<svg width="148" height="148" viewBox="0 0 148 148" fill="none" xmlns="http://www.w3.org/2000/svg">
<rect x="0.786403" y="0.786403" width="146.271" height="146.271" fill="#650190" stroke="#650190" stroke-width="1.57281"/>
<path d="M41.96 102.576L43.863 97.3389H43.8945L45.7661 102.576H41.96ZM43.0766 95.9863L38.7042 107.216H40.2299L41.4881 103.835H46.238L47.4648 107.216H49.1162L44.7281 95.9863H43.0766ZM55.5244 101.696H56.9085C56.8561 101.213 56.7302 100.799 56.531 100.453C56.3318 100.097 56.0749 99.8029 55.7603 99.5723C55.4563 99.3416 55.0998 99.1738 54.6908 99.069C54.2924 98.9536 53.8625 98.896 53.4011 98.896C52.7615 98.896 52.2006 99.0113 51.7182 99.242C51.2359 99.4622 50.8322 99.7715 50.5072 100.17C50.1926 100.558 49.9567 101.019 49.7994 101.554C49.6421 102.078 49.5635 102.644 49.5635 103.253C49.5635 103.861 49.6421 104.422 49.7994 104.936C49.9672 105.439 50.2083 105.874 50.5229 106.241C50.8479 106.608 51.2464 106.891 51.7182 107.09C52.2006 107.289 52.751 107.389 53.3697 107.389C54.4077 107.389 55.2256 107.116 55.8233 106.571C56.4314 106.026 56.8089 105.25 56.9557 104.243H55.5873C55.5034 104.873 55.2728 105.36 54.8953 105.706C54.5283 106.052 54.0145 106.225 53.3539 106.225C52.9345 106.225 52.5728 106.141 52.2687 105.974C51.9646 105.806 51.7182 105.586 51.5295 105.313C51.3408 105.03 51.1992 104.71 51.1048 104.354C51.021 103.997 50.979 103.63 50.979 103.253C50.979 102.844 51.021 102.45 51.1048 102.073C51.1887 101.685 51.325 101.344 51.5138 101.051C51.713 100.757 51.9751 100.521 52.3002 100.343C52.6252 100.165 53.0289 100.076 53.5112 100.076C54.0774 100.076 54.5283 100.217 54.8638 100.5C55.1994 100.783 55.4196 101.182 55.5244 101.696ZM65.655 107.185C65.4243 107.321 65.1045 107.389 64.6956 107.389C64.3496 107.389 64.0717 107.295 63.862 107.106C63.6628 106.907 63.5632 106.587 63.5632 106.147C63.1962 106.587 62.7663 106.907 62.2735 107.106C61.7911 107.295 61.2669 107.389 60.7007 107.389C60.3337 107.389 59.9824 107.347 59.6469 107.263C59.3218 107.179 59.0387 107.048 58.7976 106.87C58.5564 106.692 58.3624 106.461 58.2156 106.178C58.0793 105.884 58.0112 105.533 58.0112 105.124C58.0112 104.663 58.0898 104.285 58.2471 103.992C58.4044 103.698 58.6088 103.462 58.8605 103.284C59.1226 103.095 59.4162 102.954 59.7413 102.859C60.0768 102.765 60.4176 102.686 60.7636 102.624C61.1306 102.55 61.4766 102.498 61.8016 102.466C62.1372 102.424 62.4308 102.372 62.6824 102.309C62.9341 102.236 63.1333 102.136 63.2801 102.01C63.4269 101.874 63.5003 101.68 63.5003 101.428C63.5003 101.135 63.4426 100.899 63.3273 100.72C63.2224 100.542 63.0808 100.406 62.9026 100.311C62.7348 100.217 62.5409 100.154 62.3207 100.123C62.111 100.091 61.9012 100.076 61.6915 100.076C61.1253 100.076 60.6535 100.186 60.276 100.406C59.8985 100.616 59.6941 101.019 59.6626 101.617H58.3257C58.3467 101.114 58.4516 100.689 58.6403 100.343C58.829 99.9969 59.0807 99.7191 59.3952 99.5093C59.7098 99.2892 60.0663 99.1319 60.4647 99.0375C60.8737 98.9431 61.3088 98.896 61.7702 98.896C62.1372 98.896 62.4989 98.9222 62.8554 98.9746C63.2224 99.027 63.5527 99.1371 63.8463 99.3049C64.1399 99.4622 64.3758 99.6876 64.554 99.9812C64.7323 100.275 64.8214 100.657 64.8214 101.129V105.313C64.8214 105.628 64.8371 105.858 64.8686 106.005C64.9105 106.152 65.0364 106.225 65.2461 106.225C65.3614 106.225 65.4977 106.199 65.655 106.147V107.185ZM63.4845 103.017C63.3168 103.143 63.0966 103.237 62.824 103.3C62.5513 103.352 62.263 103.399 61.9589 103.441C61.6653 103.473 61.3665 103.515 61.0624 103.567C60.7583 103.609 60.4857 103.683 60.2446 103.787C60.0034 103.892 59.8042 104.044 59.6469 104.243C59.5001 104.432 59.4267 104.694 59.4267 105.03C59.4267 105.25 59.4686 105.439 59.5525 105.596C59.6469 105.743 59.7622 105.863 59.8985 105.958C60.0453 106.052 60.2131 106.12 60.4018 106.162C60.5906 106.204 60.7898 106.225 60.9995 106.225C61.4399 106.225 61.8174 106.168 62.1319 106.052C62.4465 105.926 62.7034 105.774 62.9026 105.596C63.1018 105.407 63.2486 105.208 63.343 104.998C63.4374 104.778 63.4845 104.574 63.4845 104.385V103.017ZM67.8744 103.221C67.8744 102.823 67.9163 102.435 68.0002 102.057C68.0841 101.68 68.2204 101.344 68.4091 101.051C68.5979 100.757 68.8495 100.521 69.1641 100.343C69.4786 100.165 69.8614 100.076 70.3122 100.076C70.7736 100.076 71.1668 100.165 71.4918 100.343C71.8169 100.511 72.079 100.736 72.2782 101.019C72.488 101.302 72.64 101.633 72.7344 102.01C72.8287 102.377 72.8759 102.76 72.8759 103.158C72.8759 103.536 72.8287 103.908 72.7344 104.275C72.6505 104.642 72.5089 104.972 72.3097 105.266C72.1105 105.549 71.8536 105.78 71.539 105.958C71.2245 106.136 70.8417 106.225 70.3909 106.225C69.961 106.225 69.5835 106.141 69.2585 105.974C68.9439 105.806 68.6818 105.58 68.4721 105.297C68.2728 105.014 68.1208 104.694 68.0159 104.338C67.9216 103.971 67.8744 103.599 67.8744 103.221ZM74.1656 107.216V95.9863H72.8287V100.17H72.7973C72.6505 99.9288 72.467 99.7295 72.2468 99.5723C72.0371 99.4045 71.8116 99.2734 71.5705 99.1791C71.3293 99.0742 71.0882 99.0008 70.847 98.9589C70.6058 98.9169 70.3804 98.896 70.1707 98.896C69.552 98.896 69.0068 99.0113 68.535 99.242C68.0736 99.4622 67.6856 99.7662 67.3711 100.154C67.067 100.532 66.8363 100.977 66.6791 101.491C66.5323 102.005 66.4589 102.55 66.4589 103.127C66.4589 103.703 66.5375 104.249 66.6948 104.763C66.8521 105.276 67.0827 105.727 67.3868 106.115C67.7014 106.503 68.0893 106.812 68.5507 107.043C69.0225 107.274 69.573 107.389 70.2021 107.389C70.7683 107.389 71.2874 107.289 71.7592 107.09C72.2311 106.891 72.5771 106.566 72.7973 106.115H72.8287V107.216H74.1656ZM81.8688 102.372H77.1976C77.2185 102.057 77.2867 101.764 77.402 101.491C77.5174 101.208 77.6746 100.962 77.8739 100.752C78.0731 100.542 78.309 100.38 78.5816 100.264C78.8647 100.138 79.1793 100.076 79.5253 100.076C79.8608 100.076 80.1649 100.138 80.4375 100.264C80.7206 100.38 80.9618 100.542 81.161 100.752C81.3707 100.951 81.5333 101.192 81.6486 101.475C81.7744 101.758 81.8478 102.057 81.8688 102.372ZM83.1585 104.637H81.8373C81.722 105.171 81.4808 105.57 81.1139 105.832C80.7573 106.094 80.296 106.225 79.7298 106.225C79.2894 106.225 78.9067 106.152 78.5816 106.005C78.2566 105.858 77.9892 105.664 77.7795 105.423C77.5698 105.171 77.4178 104.888 77.3234 104.574C77.229 104.249 77.1871 103.908 77.1976 103.551H83.2843C83.3053 103.059 83.2581 102.54 83.1428 101.994C83.0379 101.449 82.8387 100.946 82.5451 100.484C82.262 100.023 81.8793 99.6457 81.397 99.3521C80.9251 99.048 80.3274 98.896 79.604 98.896C79.0482 98.896 78.5344 99.0008 78.0626 99.2105C77.6013 99.4202 77.1976 99.7138 76.8515 100.091C76.516 100.469 76.2539 100.914 76.0651 101.428C75.8764 101.942 75.782 102.508 75.782 103.127C75.803 103.745 75.8921 104.317 76.0494 104.841C76.2172 105.365 76.4636 105.816 76.7886 106.194C77.1137 106.571 77.5121 106.865 77.984 107.075C78.4663 107.284 79.0325 107.389 79.6826 107.389C80.6053 107.389 81.3707 107.158 81.9789 106.697C82.587 106.236 82.9802 105.549 83.1585 104.637ZM84.6701 99.0847V107.216H86.007V102.152C86.007 101.994 86.0437 101.8 86.1171 101.57C86.201 101.329 86.3268 101.098 86.4946 100.878C86.6728 100.657 86.8983 100.469 87.1709 100.311C87.454 100.154 87.7895 100.076 88.1775 100.076C88.4815 100.076 88.728 100.123 88.9167 100.217C89.1159 100.301 89.2732 100.427 89.3885 100.595C89.5039 100.752 89.5825 100.941 89.6245 101.161C89.6769 101.381 89.7031 101.622 89.7031 101.884V107.216H91.04V102.152C91.04 101.523 91.2287 101.019 91.6062 100.642C91.9837 100.264 92.5027 100.076 93.1633 100.076C93.4883 100.076 93.7504 100.123 93.9497 100.217C94.1594 100.311 94.3219 100.443 94.4372 100.61C94.5526 100.768 94.6312 100.956 94.6732 101.177C94.7151 101.397 94.7361 101.633 94.7361 101.884V107.216H96.073V101.255C96.073 100.836 96.0048 100.479 95.8685 100.186C95.7427 99.8816 95.5592 99.6352 95.318 99.4464C95.0873 99.2577 94.8042 99.1214 94.4687 99.0375C94.1436 98.9431 93.7767 98.896 93.3677 98.896C92.833 98.896 92.3402 99.0165 91.8893 99.2577C91.4489 99.4989 91.0924 99.8396 90.8198 100.28C90.652 99.7767 90.3637 99.4202 89.9547 99.2105C89.5458 99.0008 89.0897 98.896 88.5864 98.896C87.4435 98.896 86.568 99.3573 85.9598 100.28H85.9284V99.0847H84.6701ZM99.4944 97.622V95.9863H98.1575V97.622H99.4944ZM98.1575 99.0847V107.216H99.4944V99.0847H98.1575ZM107.086 101.696H108.47C108.418 101.213 108.292 100.799 108.093 100.453C107.893 100.097 107.637 99.8029 107.322 99.5723C107.018 99.3416 106.661 99.1738 106.252 99.069C105.854 98.9536 105.424 98.896 104.963 98.896C104.323 98.896 103.762 99.0113 103.28 99.242C102.798 99.4622 102.394 99.7715 102.069 100.17C101.754 100.558 101.518 101.019 101.361 101.554C101.204 102.078 101.125 102.644 101.125 103.253C101.125 103.861 101.204 104.422 101.361 104.936C101.529 105.439 101.77 105.874 102.085 106.241C102.41 106.608 102.808 106.891 103.28 107.09C103.762 107.289 104.313 107.389 104.931 107.389C105.969 107.389 106.787 107.116 107.385 106.571C107.993 106.026 108.37 105.25 108.517 104.243H107.149C107.065 104.873 106.834 105.36 106.457 105.706C106.09 106.052 105.576 106.225 104.916 106.225C104.496 106.225 104.134 106.141 103.83 105.974C103.526 105.806 103.28 105.586 103.091 105.313C102.902 105.03 102.761 104.71 102.666 104.354C102.583 103.997 102.541 103.63 102.541 103.253C102.541 102.844 102.583 102.45 102.666 102.073C102.75 101.685 102.887 101.344 103.075 101.051C103.275 100.757 103.537 100.521 103.862 100.343C104.187 100.165 104.591 100.076 105.073 100.076C105.639 100.076 106.09 100.217 106.425 100.5C106.761 100.783 106.981 101.182 107.086 101.696ZM42.5333 120.365V116.245H45.4587C46.308 116.245 46.9267 116.423 47.3146 116.779C47.7131 117.125 47.9123 117.634 47.9123 118.305C47.9123 118.976 47.7131 119.49 47.3146 119.846C46.9267 120.203 46.308 120.376 45.4587 120.365H42.5333ZM41.0391 114.986V126.216H42.5333V121.624H45.962C47.0944 121.634 47.949 121.346 48.5257 120.758C49.1129 120.171 49.4064 119.353 49.4064 118.305C49.4064 117.256 49.1129 116.444 48.5257 115.867C47.949 115.28 47.0944 114.986 45.962 114.986H41.0391ZM50.9704 118.085V126.216H52.3073V122.599C52.3073 122.074 52.3597 121.613 52.4646 121.215C52.5694 120.806 52.7372 120.46 52.9679 120.177C53.1985 119.893 53.5026 119.678 53.8801 119.532C54.2576 119.385 54.7137 119.311 55.2484 119.311V117.896C54.5249 117.875 53.9273 118.022 53.4554 118.336C52.9836 118.651 52.5852 119.138 52.2601 119.799H52.2287V118.085H50.9704ZM56.9538 122.158C56.9538 121.665 57.0167 121.23 57.1426 120.853C57.2789 120.465 57.4624 120.14 57.693 119.878C57.9237 119.616 58.1911 119.416 58.4952 119.28C58.8097 119.144 59.14 119.076 59.486 119.076C59.8321 119.076 60.1571 119.144 60.4612 119.28C60.7757 119.416 61.0484 119.616 61.279 119.878C61.5097 120.14 61.688 120.465 61.8138 120.853C61.9501 121.23 62.0183 121.665 62.0183 122.158C62.0183 122.651 61.9501 123.091 61.8138 123.479C61.688 123.857 61.5097 124.177 61.279 124.439C61.0484 124.69 60.7757 124.884 60.4612 125.021C60.1571 125.157 59.8321 125.225 59.486 125.225C59.14 125.225 58.8097 125.157 58.4952 125.021C58.1911 124.884 57.9237 124.69 57.693 124.439C57.4624 124.177 57.2789 123.857 57.1426 123.479C57.0167 123.091 56.9538 122.651 56.9538 122.158ZM55.5383 122.158C55.5383 122.756 55.6222 123.312 55.79 123.825C55.9577 124.339 56.2094 124.79 56.5449 125.178C56.8804 125.556 57.2946 125.854 57.7874 126.075C58.2802 126.284 58.8464 126.389 59.486 126.389C60.1361 126.389 60.7023 126.284 61.1847 126.075C61.6775 125.854 62.0917 125.556 62.4272 125.178C62.7627 124.79 63.0144 124.339 63.1821 123.825C63.3499 123.312 63.4338 122.756 63.4338 122.158C63.4338 121.561 63.3499 121.005 63.1821 120.491C63.0144 119.967 62.7627 119.516 62.4272 119.138C62.0917 118.751 61.6775 118.446 61.1847 118.226C60.7023 118.006 60.1361 117.896 59.486 117.896C58.8464 117.896 58.2802 118.006 57.7874 118.226C57.2946 118.446 56.8804 118.751 56.5449 119.138C56.2094 119.516 55.9577 119.967 55.79 120.491C55.6222 121.005 55.5383 121.561 55.5383 122.158ZM72.0248 125.524V118.085H70.7665V119.249H70.7508C70.5096 118.798 70.1741 118.462 69.7442 118.242C69.3143 118.011 68.8424 117.896 68.3287 117.896C67.6261 117.896 67.0337 118.032 66.5514 118.305C66.0691 118.567 65.6811 118.908 65.3875 119.327C65.0939 119.736 64.8842 120.197 64.7584 120.711C64.6326 121.215 64.5697 121.707 64.5697 122.19C64.5697 122.745 64.643 123.275 64.7898 123.778C64.9471 124.271 65.1778 124.706 65.4819 125.084C65.786 125.451 66.1634 125.744 66.6143 125.964C67.0652 126.185 67.5947 126.295 68.2028 126.295C68.7271 126.295 69.2199 126.179 69.6813 125.949C70.1531 125.708 70.5044 125.335 70.7351 124.832H70.7665V125.367C70.7665 125.818 70.7193 126.232 70.625 126.609C70.5411 126.987 70.3995 127.307 70.2003 127.569C70.0011 127.841 69.7494 128.051 69.4453 128.198C69.1413 128.355 68.769 128.434 68.3287 128.434C68.1085 128.434 67.8778 128.408 67.6366 128.355C67.3955 128.313 67.17 128.24 66.9603 128.135C66.7611 128.03 66.5881 127.894 66.4413 127.726C66.305 127.558 66.2316 127.354 66.2211 127.113H64.8842C64.9052 127.553 65.0205 127.925 65.2302 128.229C65.4399 128.533 65.7021 128.78 66.0166 128.969C66.3417 129.157 66.6982 129.294 67.0861 129.377C67.4846 129.461 67.8725 129.503 68.25 129.503C69.5502 129.503 70.5044 129.173 71.1125 128.512C71.7207 127.852 72.0248 126.856 72.0248 125.524ZM68.2815 125.131C67.8411 125.131 67.4741 125.042 67.1805 124.863C66.8869 124.675 66.651 124.434 66.4727 124.14C66.2945 123.836 66.1687 123.5 66.0953 123.133C66.0219 122.766 65.9852 122.399 65.9852 122.032C65.9852 121.644 66.0271 121.272 66.111 120.916C66.2054 120.559 66.3469 120.245 66.5357 119.972C66.7349 119.699 66.9865 119.484 67.2906 119.327C67.5947 119.159 67.9617 119.076 68.3916 119.076C68.811 119.076 69.1675 119.159 69.4611 119.327C69.7547 119.495 69.9906 119.72 70.1688 120.004C70.3576 120.276 70.4939 120.585 70.5778 120.931C70.6617 121.277 70.7036 121.629 70.7036 121.985C70.7036 122.363 70.6564 122.74 70.562 123.118C70.4782 123.495 70.3418 123.836 70.1531 124.14C69.9644 124.434 69.7127 124.675 69.3982 124.863C69.0941 125.042 68.7219 125.131 68.2815 125.131ZM73.9942 118.085V126.216H75.3311V122.599C75.3311 122.074 75.3835 121.613 75.4884 121.215C75.5932 120.806 75.761 120.46 75.9917 120.177C76.2223 119.893 76.5264 119.678 76.9039 119.532C77.2814 119.385 77.7375 119.311 78.2722 119.311V117.896C77.5487 117.875 76.9511 118.022 76.4792 118.336C76.0074 118.651 75.6089 119.138 75.2839 119.799H75.2524V118.085H73.9942ZM86.4824 126.185C86.2517 126.321 85.9319 126.389 85.523 126.389C85.177 126.389 84.8991 126.295 84.6894 126.106C84.4902 125.907 84.3906 125.587 84.3906 125.147C84.0236 125.587 83.5937 125.907 83.1009 126.106C82.6185 126.295 82.0943 126.389 81.5281 126.389C81.1611 126.389 80.8098 126.347 80.4743 126.263C80.1492 126.179 79.8661 126.048 79.625 125.87C79.3838 125.692 79.1898 125.461 79.043 125.178C78.9067 124.884 78.8386 124.533 78.8386 124.124C78.8386 123.663 78.9172 123.285 79.0745 122.992C79.2318 122.698 79.4362 122.462 79.6879 122.284C79.95 122.095 80.2436 121.954 80.5687 121.859C80.9042 121.765 81.245 121.686 81.591 121.624C81.958 121.55 82.304 121.498 82.629 121.466C82.9646 121.424 83.2581 121.372 83.5098 121.309C83.7614 121.236 83.9607 121.136 84.1075 121.01C84.2543 120.874 84.3277 120.68 84.3277 120.428C84.3277 120.135 84.27 119.899 84.1546 119.72C84.0498 119.542 83.9082 119.406 83.73 119.311C83.5622 119.217 83.3682 119.154 83.1481 119.123C82.9383 119.091 82.7286 119.076 82.5189 119.076C81.9527 119.076 81.4809 119.186 81.1034 119.406C80.7259 119.616 80.5215 120.019 80.49 120.617H79.1531C79.1741 120.114 79.2789 119.689 79.4677 119.343C79.6564 118.997 79.9081 118.719 80.2226 118.509C80.5372 118.289 80.8937 118.132 81.2921 118.038C81.7011 117.943 82.1362 117.896 82.5976 117.896C82.9646 117.896 83.3263 117.922 83.6828 117.975C84.0498 118.027 84.3801 118.137 84.6737 118.305C84.9673 118.462 85.2032 118.688 85.3814 118.981C85.5597 119.275 85.6488 119.657 85.6488 120.129V124.313C85.6488 124.628 85.6645 124.858 85.696 125.005C85.7379 125.152 85.8638 125.225 86.0735 125.225C86.1888 125.225 86.3251 125.199 86.4824 125.147V126.185ZM84.3119 122.017C84.1442 122.143 83.924 122.237 83.6514 122.3C83.3787 122.352 83.0904 122.399 82.7863 122.441C82.4927 122.473 82.1939 122.515 81.8898 122.567C81.5857 122.609 81.3131 122.683 81.0719 122.787C80.8308 122.892 80.6316 123.044 80.4743 123.243C80.3275 123.432 80.2541 123.694 80.2541 124.03C80.2541 124.25 80.296 124.439 80.3799 124.596C80.4743 124.743 80.5896 124.863 80.7259 124.958C80.8727 125.052 81.0405 125.12 81.2292 125.162C81.418 125.204 81.6172 125.225 81.8269 125.225C82.2673 125.225 82.6448 125.168 82.9593 125.052C83.2739 124.926 83.5308 124.774 83.73 124.596C83.9292 124.407 84.076 124.208 84.1704 123.998C84.2647 123.778 84.3119 123.574 84.3119 123.385V122.017ZM87.7266 118.085V126.216H89.0635V121.152C89.0635 120.994 89.1002 120.8 89.1736 120.57C89.2575 120.329 89.3833 120.098 89.5511 119.878C89.7293 119.657 89.9548 119.469 90.2274 119.311C90.5105 119.154 90.846 119.076 91.234 119.076C91.5381 119.076 91.7845 119.123 91.9732 119.217C92.1724 119.301 92.3297 119.427 92.4451 119.595C92.5604 119.752 92.639 119.941 92.681 120.161C92.7334 120.381 92.7596 120.622 92.7596 120.884V126.216H94.0965V121.152C94.0965 120.523 94.2852 120.019 94.6627 119.642C95.0402 119.264 95.5592 119.076 96.2198 119.076C96.5448 119.076 96.807 119.123 97.0062 119.217C97.2159 119.311 97.3784 119.443 97.4938 119.61C97.6091 119.768 97.6877 119.956 97.7297 120.177C97.7716 120.397 97.7926 120.633 97.7926 120.884V126.216H99.1295V120.255C99.1295 119.836 99.0613 119.479 98.925 119.186C98.7992 118.882 98.6157 118.635 98.3745 118.446C98.1439 118.258 97.8608 118.121 97.5252 118.038C97.2002 117.943 96.8332 117.896 96.4243 117.896C95.8895 117.896 95.3967 118.017 94.9458 118.258C94.5054 118.499 94.1489 118.84 93.8763 119.28C93.7085 118.777 93.4202 118.42 93.0113 118.211C92.6023 118.001 92.1462 117.896 91.6429 117.896C90.5 117.896 89.6245 118.357 89.0163 119.28H88.9849V118.085H87.7266ZM101.953 123.652H100.616C100.637 124.156 100.742 124.586 100.931 124.942C101.12 125.288 101.371 125.571 101.686 125.791C102 126.001 102.362 126.153 102.771 126.248C103.18 126.342 103.61 126.389 104.061 126.389C104.47 126.389 104.879 126.347 105.288 126.263C105.707 126.19 106.079 126.054 106.404 125.854C106.74 125.655 107.007 125.393 107.206 125.068C107.416 124.743 107.521 124.334 107.521 123.841C107.521 123.453 107.442 123.128 107.285 122.866C107.138 122.604 106.939 122.389 106.687 122.221C106.446 122.043 106.163 121.901 105.838 121.797C105.524 121.692 105.199 121.603 104.863 121.529C104.548 121.456 104.234 121.388 103.919 121.325C103.605 121.251 103.322 121.167 103.07 121.073C102.818 120.968 102.609 120.842 102.441 120.696C102.284 120.538 102.205 120.344 102.205 120.114C102.205 119.904 102.257 119.736 102.362 119.61C102.467 119.474 102.603 119.369 102.771 119.296C102.939 119.212 103.122 119.154 103.322 119.123C103.531 119.091 103.736 119.076 103.935 119.076C104.155 119.076 104.37 119.102 104.58 119.154C104.8 119.196 104.999 119.27 105.178 119.374C105.356 119.479 105.503 119.621 105.618 119.799C105.733 119.967 105.801 120.182 105.822 120.444H107.159C107.128 119.951 107.023 119.542 106.845 119.217C106.666 118.882 106.425 118.619 106.121 118.431C105.828 118.231 105.487 118.095 105.099 118.022C104.711 117.938 104.286 117.896 103.825 117.896C103.468 117.896 103.107 117.943 102.74 118.038C102.383 118.121 102.058 118.258 101.765 118.446C101.481 118.625 101.246 118.861 101.057 119.154C100.879 119.448 100.789 119.799 100.789 120.208C100.789 120.732 100.92 121.141 101.183 121.435C101.445 121.728 101.77 121.959 102.158 122.127C102.556 122.284 102.986 122.41 103.447 122.504C103.909 122.588 104.333 122.688 104.721 122.803C105.12 122.908 105.45 123.05 105.712 123.228C105.974 123.406 106.105 123.668 106.105 124.014C106.105 124.266 106.043 124.476 105.917 124.643C105.791 124.801 105.628 124.921 105.429 125.005C105.24 125.089 105.031 125.147 104.8 125.178C104.569 125.209 104.349 125.225 104.139 125.225C103.867 125.225 103.599 125.199 103.337 125.147C103.086 125.094 102.855 125.01 102.645 124.895C102.446 124.769 102.284 124.607 102.158 124.407C102.032 124.198 101.964 123.946 101.953 123.652Z" fill="white"/>
<path d="M96.0117 23.668H58.4023C55.9087 23.668 53.5172 24.6586 51.7539 26.4219C49.9906 28.1851 49 30.5767 49 33.0703V70.6797C49 73.1733 49.9906 75.5649 51.7539 77.3281C53.5172 79.0914 55.9087 80.082 58.4023 80.082H96.0117C96.8429 80.082 97.6401 79.7518 98.2279 79.1641C98.8156 78.5763 99.1458 77.7791 99.1458 76.9479V26.8021C99.1458 25.9709 98.8156 25.1737 98.2279 24.5859C97.6401 23.9982 96.8429 23.668 96.0117 23.668V23.668ZM58.4023 73.8138C57.5711 73.8138 56.774 73.4836 56.1862 72.8958C55.5984 72.3081 55.2682 71.5109 55.2682 70.6797C55.2682 69.8485 55.5984 69.0513 56.1862 68.4635C56.774 67.8758 57.5711 67.5456 58.4023 67.5456H92.8776V73.8138H58.4023Z" fill="white"/>
</svg>
