<svg width="148" height="149" viewBox="0 0 148 149" fill="none" xmlns="http://www.w3.org/2000/svg">
<rect x="0.864528" y="1.56765" width="146.271" height="146.271" fill="#650190" stroke="#650190" stroke-width="1.57281"/>
<path d="M59.6761 97.5553H61.1703C61.0864 96.9576 60.9081 96.4334 60.6355 95.9825C60.3629 95.5211 60.0221 95.1384 59.6132 94.8343C59.2043 94.5303 58.7377 94.2996 58.2134 94.1423C57.6891 93.985 57.1334 93.9064 56.5462 93.9064C55.6864 93.9064 54.921 94.0637 54.2499 94.3782C53.5893 94.6823 53.0336 95.1017 52.5828 95.6365C52.1424 96.1712 51.8068 96.8003 51.5762 97.5238C51.3455 98.2368 51.2301 99.0023 51.2301 99.8201C51.2301 100.638 51.335 101.403 51.5447 102.116C51.7649 102.829 52.0899 103.448 52.5198 103.972C52.9497 104.497 53.4897 104.911 54.1398 105.215C54.7899 105.508 55.5501 105.655 56.4204 105.655C57.8569 105.655 58.9893 105.262 59.8177 104.476C60.646 103.689 61.1336 102.588 61.2804 101.173H59.7862C59.7547 101.634 59.6604 102.064 59.5031 102.462C59.3458 102.861 59.1256 103.207 58.8425 103.5C58.5699 103.784 58.2396 104.009 57.8517 104.177C57.4742 104.334 57.039 104.413 56.5462 104.413C55.8752 104.413 55.2985 104.287 54.8161 104.035C54.3338 103.784 53.9354 103.448 53.6208 103.029C53.3167 102.599 53.0913 102.101 52.9445 101.534C52.7977 100.958 52.7243 100.35 52.7243 99.71C52.7243 99.1229 52.7977 98.5566 52.9445 98.0114C53.0913 97.4662 53.3167 96.9838 53.6208 96.5644C53.9354 96.1345 54.3286 95.7937 54.8004 95.5421C55.2827 95.2905 55.8594 95.1646 56.5305 95.1646C57.3169 95.1646 57.9932 95.3638 58.5594 95.7623C59.1361 96.1607 59.5083 96.7584 59.6761 97.5553ZM70.1145 105.372C69.8838 105.508 69.564 105.577 69.1551 105.577C68.8091 105.577 68.5312 105.482 68.3215 105.293C68.1223 105.094 68.0227 104.774 68.0227 104.334C67.6557 104.774 67.2258 105.094 66.733 105.293C66.2506 105.482 65.7264 105.577 65.1602 105.577C64.7932 105.577 64.4419 105.535 64.1064 105.451C63.7813 105.367 63.4982 105.236 63.2571 105.058C63.0159 104.879 62.8219 104.649 62.6751 104.366C62.5388 104.072 62.4707 103.721 62.4707 103.312C62.4707 102.85 62.5493 102.473 62.7066 102.179C62.8639 101.886 63.0683 101.65 63.32 101.472C63.5821 101.283 63.8757 101.141 64.2008 101.047C64.5363 100.953 64.8771 100.874 65.2231 100.811C65.5901 100.738 65.9361 100.685 66.2611 100.654C66.5967 100.612 66.8902 100.559 67.1419 100.496C67.3935 100.423 67.5928 100.323 67.7396 100.198C67.8864 100.061 67.9598 99.8673 67.9598 99.6157C67.9598 99.3221 67.9021 99.0862 67.7867 98.9079C67.6819 98.7297 67.5403 98.5933 67.3621 98.499C67.1943 98.4046 67.0003 98.3417 66.7802 98.3102C66.5704 98.2788 66.3607 98.2631 66.151 98.2631C65.5848 98.2631 65.113 98.3732 64.7355 98.5933C64.358 98.8031 64.1536 99.2067 64.1221 99.8044H62.7852C62.8062 99.3011 62.911 98.8764 63.0998 98.5304C63.2885 98.1844 63.5402 97.9066 63.8547 97.6968C64.1693 97.4767 64.5258 97.3194 64.9242 97.225C65.3332 97.1306 65.7683 97.0835 66.2297 97.0835C66.5967 97.0835 66.9584 97.1097 67.3149 97.1621C67.6819 97.2145 68.0122 97.3246 68.3058 97.4924C68.5994 97.6497 68.8353 97.8751 69.0135 98.1687C69.1918 98.4623 69.2809 98.845 69.2809 99.3168V103.5C69.2809 103.815 69.2966 104.046 69.3281 104.193C69.37 104.339 69.4959 104.413 69.7056 104.413C69.8209 104.413 69.9572 104.387 70.1145 104.334V105.372ZM67.944 101.204C67.7763 101.33 67.5561 101.424 67.2834 101.487C67.0108 101.54 66.7225 101.587 66.4184 101.629C66.1248 101.66 65.826 101.702 65.5219 101.755C65.2178 101.797 64.9452 101.87 64.704 101.975C64.4629 102.08 64.2637 102.232 64.1064 102.431C63.9596 102.62 63.8862 102.882 63.8862 103.217C63.8862 103.438 63.9281 103.626 64.012 103.784C64.1064 103.93 64.2217 104.051 64.358 104.145C64.5048 104.24 64.6726 104.308 64.8613 104.35C65.0501 104.392 65.2493 104.413 65.459 104.413C65.8994 104.413 66.2769 104.355 66.5914 104.24C66.906 104.114 67.1629 103.962 67.3621 103.784C67.5613 103.595 67.7081 103.396 67.8025 103.186C67.8968 102.966 67.944 102.761 67.944 102.573V101.204ZM71.3116 97.2722V105.404H72.6484V101.786C72.6484 101.262 72.7009 100.801 72.8057 100.402C72.9106 99.9931 73.0783 99.6471 73.309 99.364C73.5397 99.0809 73.8438 98.866 74.2212 98.7192C74.5987 98.5724 75.0548 98.499 75.5896 98.499V97.0835C74.8661 97.0625 74.2684 97.2093 73.7966 97.5238C73.3247 97.8384 72.9263 98.326 72.6013 98.9865H72.5698V97.2722H71.3116ZM81.9662 100.559H77.295C77.3159 100.245 77.3841 99.9512 77.4994 99.6786C77.6148 99.3955 77.7721 99.1491 77.9713 98.9394C78.1705 98.7297 78.4064 98.5671 78.679 98.4518C78.9622 98.326 79.2767 98.2631 79.6227 98.2631C79.9583 98.2631 80.2623 98.326 80.535 98.4518C80.8181 98.5671 81.0592 98.7297 81.2584 98.9394C81.4682 99.1386 81.6307 99.3797 81.746 99.6629C81.8718 99.946 81.9452 100.245 81.9662 100.559ZM83.2559 102.824H81.9348C81.8194 103.359 81.5783 103.757 81.2113 104.02C80.8548 104.282 80.3934 104.413 79.8272 104.413C79.3868 104.413 79.0041 104.339 78.679 104.193C78.354 104.046 78.0866 103.852 77.8769 103.611C77.6672 103.359 77.5152 103.076 77.4208 102.761C77.3264 102.436 77.2845 102.095 77.295 101.739H83.3817C83.4027 101.246 83.3555 100.727 83.2402 100.182C83.1353 99.6366 82.9361 99.1333 82.6425 98.672C82.3594 98.2106 81.9767 97.8332 81.4944 97.5396C81.0225 97.2355 80.4249 97.0835 79.7014 97.0835C79.1456 97.0835 78.6319 97.1883 78.16 97.398C77.6987 97.6077 77.295 97.9013 76.949 98.2788C76.6134 98.6563 76.3513 99.1019 76.1626 99.6157C75.9738 100.129 75.8795 100.696 75.8795 101.314C75.9004 101.933 75.9895 102.504 76.1468 103.029C76.3146 103.553 76.561 104.004 76.886 104.381C77.2111 104.759 77.6095 105.052 78.0814 105.262C78.5637 105.472 79.1299 105.577 79.78 105.577C80.7027 105.577 81.4682 105.346 82.0763 104.885C82.6845 104.423 83.0777 103.736 83.2559 102.824ZM90.4139 100.559H85.7427C85.7636 100.245 85.8318 99.9512 85.9471 99.6786C86.0625 99.3955 86.2197 99.1491 86.419 98.9394C86.6182 98.7297 86.8541 98.5671 87.1267 98.4518C87.4098 98.326 87.7244 98.2631 88.0704 98.2631C88.4059 98.2631 88.71 98.326 88.9826 98.4518C89.2657 98.5671 89.5069 98.7297 89.7061 98.9394C89.9158 99.1386 90.0784 99.3797 90.1937 99.6629C90.3195 99.946 90.3929 100.245 90.4139 100.559ZM91.7036 102.824H90.3824C90.2671 103.359 90.0259 103.757 89.6589 104.02C89.3024 104.282 88.8411 104.413 88.2749 104.413C87.8345 104.413 87.4518 104.339 87.1267 104.193C86.8017 104.046 86.5343 103.852 86.3246 103.611C86.1149 103.359 85.9629 103.076 85.8685 102.761C85.7741 102.436 85.7322 102.095 85.7427 101.739H91.8294C91.8504 101.246 91.8032 100.727 91.6879 100.182C91.583 99.6366 91.3838 99.1333 91.0902 98.672C90.8071 98.2106 90.4244 97.8332 89.9421 97.5396C89.4702 97.2355 88.8725 97.0835 88.1491 97.0835C87.5933 97.0835 87.0795 97.1883 86.6077 97.398C86.1463 97.6077 85.7427 97.9013 85.3966 98.2788C85.0611 98.6563 84.799 99.1019 84.6102 99.6157C84.4215 100.129 84.3271 100.696 84.3271 101.314C84.3481 101.933 84.4372 102.504 84.5945 103.029C84.7623 103.553 85.0087 104.004 85.3337 104.381C85.6588 104.759 86.0572 105.052 86.5291 105.262C87.0114 105.472 87.5776 105.577 88.2277 105.577C89.1504 105.577 89.9158 105.346 90.524 104.885C91.1321 104.423 91.5253 103.736 91.7036 102.824ZM93.168 97.2722V105.404H94.5049V101.786C94.5049 101.262 94.5573 100.801 94.6622 100.402C94.767 99.9931 94.9348 99.6471 95.1655 99.364C95.3962 99.0809 95.7002 98.866 96.0777 98.7192C96.4552 98.5724 96.9113 98.499 97.4461 98.499V97.0835C96.7226 97.0625 96.1249 97.2093 95.6531 97.5238C95.1812 97.8384 94.7828 98.326 94.4577 98.9865H94.4263V97.2722H93.168ZM30.1051 123.145V114.432H32.6216C33.3136 114.432 33.8955 114.532 34.3674 114.731C34.8392 114.92 35.2219 115.203 35.5155 115.58C35.8196 115.947 36.0346 116.398 36.1604 116.933C36.2967 117.457 36.3649 118.055 36.3649 118.726C36.3649 119.418 36.2915 120.01 36.1447 120.503C36.0083 120.985 35.8301 121.389 35.6099 121.714C35.3897 122.039 35.1381 122.296 34.855 122.485C34.5823 122.674 34.3045 122.82 34.0214 122.925C33.7383 123.02 33.4709 123.082 33.2192 123.114C32.9676 123.135 32.7579 123.145 32.5901 123.145H30.1051ZM28.6109 113.174V124.404H32.4643C33.3975 124.404 34.2049 124.273 34.8864 124.01C35.568 123.748 36.1289 123.371 36.5693 122.878C37.0097 122.375 37.3347 121.761 37.5445 121.038C37.7542 120.304 37.859 119.465 37.859 118.521C37.859 116.718 37.3924 115.376 36.4592 114.495C35.526 113.614 34.1944 113.174 32.4643 113.174H28.6109ZM45.1112 119.559H40.44C40.461 119.245 40.5291 118.951 40.6445 118.679C40.7598 118.395 40.9171 118.149 41.1163 117.939C41.3155 117.73 41.5515 117.567 41.8241 117.452C42.1072 117.326 42.4217 117.263 42.7678 117.263C43.1033 117.263 43.4074 117.326 43.68 117.452C43.9631 117.567 44.2043 117.73 44.4035 117.939C44.6132 118.139 44.7757 118.38 44.8911 118.663C45.0169 118.946 45.0903 119.245 45.1112 119.559ZM46.4009 121.824H45.0798C44.9645 122.359 44.7233 122.757 44.3563 123.02C43.9998 123.282 43.5384 123.413 42.9722 123.413C42.5318 123.413 42.1491 123.339 41.8241 123.193C41.499 123.046 41.2317 122.852 41.022 122.611C40.8122 122.359 40.6602 122.076 40.5658 121.761C40.4715 121.436 40.4295 121.095 40.44 120.739H46.5268C46.5477 120.246 46.5006 119.727 46.3852 119.182C46.2804 118.637 46.0811 118.133 45.7876 117.672C45.5044 117.211 45.1217 116.833 44.6394 116.54C44.1676 116.235 43.5699 116.083 42.8464 116.083C42.2907 116.083 41.7769 116.188 41.3051 116.398C40.8437 116.608 40.44 116.901 40.094 117.279C39.7585 117.656 39.4963 118.102 39.3076 118.616C39.1189 119.129 39.0245 119.696 39.0245 120.314C39.0455 120.933 39.1346 121.504 39.2919 122.029C39.4596 122.553 39.706 123.004 40.0311 123.381C40.3561 123.759 40.7546 124.052 41.2264 124.262C41.7087 124.472 42.275 124.577 42.925 124.577C43.8478 124.577 44.6132 124.346 45.2213 123.885C45.8295 123.423 46.2227 122.736 46.4009 121.824ZM51.5772 124.404L54.5498 116.272H53.15L50.9324 123.051H50.9009L48.6203 116.272H47.1262L50.1459 124.404H51.5772ZM61.423 119.559H56.7517C56.7727 119.245 56.8409 118.951 56.9562 118.679C57.0715 118.395 57.2288 118.149 57.428 117.939C57.6273 117.73 57.8632 117.567 58.1358 117.452C58.4189 117.326 58.7335 117.263 59.0795 117.263C59.415 117.263 59.7191 117.326 59.9917 117.452C60.2748 117.567 60.516 117.73 60.7152 117.939C60.9249 118.139 61.0874 118.38 61.2028 118.663C61.3286 118.946 61.402 119.245 61.423 119.559ZM62.7127 121.824H61.3915C61.2762 122.359 61.035 122.757 60.668 123.02C60.3115 123.282 59.8502 123.413 59.2839 123.413C58.8436 123.413 58.4608 123.339 58.1358 123.193C57.8108 123.046 57.5434 122.852 57.3337 122.611C57.124 122.359 56.9719 122.076 56.8776 121.761C56.7832 121.436 56.7412 121.095 56.7517 120.739H62.8385C62.8595 120.246 62.8123 119.727 62.6969 119.182C62.5921 118.637 62.3929 118.133 62.0993 117.672C61.8162 117.211 61.4335 116.833 60.9511 116.54C60.4793 116.235 59.8816 116.083 59.1581 116.083C58.6024 116.083 58.0886 116.188 57.6168 116.398C57.1554 116.608 56.7517 116.901 56.4057 117.279C56.0702 117.656 55.808 118.102 55.6193 118.616C55.4306 119.129 55.3362 119.696 55.3362 120.314C55.3572 120.933 55.4463 121.504 55.6036 122.029C55.7713 122.553 56.0178 123.004 56.3428 123.381C56.6678 123.759 57.0663 124.052 57.5381 124.262C58.0205 124.472 58.5867 124.577 59.2368 124.577C60.1595 124.577 60.9249 124.346 61.5331 123.885C62.1412 123.423 62.5344 122.736 62.7127 121.824ZM64.3029 113.174V124.404H65.6398V113.174H64.3029ZM68.686 120.346C68.686 119.853 68.7489 119.418 68.8747 119.04C69.0111 118.652 69.1946 118.327 69.4252 118.065C69.6559 117.803 69.9233 117.604 70.2274 117.468C70.5419 117.331 70.8722 117.263 71.2182 117.263C71.5642 117.263 71.8893 117.331 72.1934 117.468C72.5079 117.604 72.7806 117.803 73.0112 118.065C73.2419 118.327 73.4202 118.652 73.546 119.04C73.6823 119.418 73.7504 119.853 73.7504 120.346C73.7504 120.839 73.6823 121.279 73.546 121.667C73.4202 122.044 73.2419 122.364 73.0112 122.626C72.7806 122.878 72.5079 123.072 72.1934 123.208C71.8893 123.345 71.5642 123.413 71.2182 123.413C70.8722 123.413 70.5419 123.345 70.2274 123.208C69.9233 123.072 69.6559 122.878 69.4252 122.626C69.1946 122.364 69.0111 122.044 68.8747 121.667C68.7489 121.279 68.686 120.839 68.686 120.346ZM67.2705 120.346C67.2705 120.943 67.3544 121.499 67.5221 122.013C67.6899 122.527 67.9416 122.978 68.2771 123.366C68.6126 123.743 69.0268 124.042 69.5196 124.262C70.0124 124.472 70.5786 124.577 71.2182 124.577C71.8683 124.577 72.4345 124.472 72.9169 124.262C73.4097 124.042 73.8238 123.743 74.1594 123.366C74.4949 122.978 74.7466 122.527 74.9143 122.013C75.0821 121.499 75.166 120.943 75.166 120.346C75.166 119.748 75.0821 119.192 74.9143 118.679C74.7466 118.154 74.4949 117.703 74.1594 117.326C73.8238 116.938 73.4097 116.634 72.9169 116.414C72.4345 116.194 71.8683 116.083 71.2182 116.083C70.5786 116.083 70.0124 116.194 69.5196 116.414C69.0268 116.634 68.6126 116.938 68.2771 117.326C67.9416 117.703 67.6899 118.154 67.5221 118.679C67.3544 119.192 67.2705 119.748 67.2705 120.346ZM76.7894 116.272V127.502H78.1263V123.318H78.1577C78.3045 123.56 78.4828 123.764 78.6925 123.932C78.9127 124.089 79.1434 124.215 79.3845 124.309C79.6257 124.404 79.8669 124.472 80.108 124.514C80.3597 124.556 80.5851 124.577 80.7843 124.577C81.403 124.577 81.943 124.467 82.4043 124.246C82.8762 124.026 83.2641 123.727 83.5682 123.35C83.8828 122.962 84.1134 122.511 84.2602 121.997C84.4175 121.483 84.4962 120.938 84.4962 120.361C84.4962 119.785 84.4175 119.24 84.2602 118.726C84.103 118.212 83.867 117.761 83.5525 117.373C83.2484 116.975 82.8604 116.66 82.3886 116.429C81.9272 116.199 81.382 116.083 80.7529 116.083C80.1867 116.083 79.6676 116.188 79.1958 116.398C78.724 116.597 78.3779 116.922 78.1577 117.373H78.1263V116.272H76.7894ZM83.0806 120.267C83.0806 120.666 83.0387 121.054 82.9548 121.431C82.8709 121.808 82.7346 122.144 82.5459 122.438C82.3571 122.731 82.1055 122.967 81.7909 123.145C81.4868 123.324 81.1041 123.413 80.6428 123.413C80.1814 123.413 79.7882 123.329 79.4632 123.161C79.1381 122.983 78.8707 122.752 78.661 122.469C78.4618 122.186 78.315 121.861 78.2207 121.494C78.1263 121.116 78.0791 120.728 78.0791 120.33C78.0791 119.953 78.121 119.58 78.2049 119.213C78.2993 118.846 78.4461 118.521 78.6453 118.238C78.8445 117.945 79.1014 117.709 79.416 117.53C79.7305 117.352 80.1133 117.263 80.5641 117.263C80.994 117.263 81.3663 117.347 81.6808 117.515C82.0059 117.682 82.268 117.908 82.4672 118.191C82.6769 118.474 82.829 118.799 82.9233 119.166C83.0282 119.523 83.0806 119.89 83.0806 120.267ZM86.0654 116.272V124.404H87.4023V119.339C87.4023 119.182 87.439 118.988 87.5124 118.757C87.5963 118.516 87.7221 118.285 87.8899 118.065C88.0681 117.845 88.2935 117.656 88.5662 117.499C88.8493 117.342 89.1848 117.263 89.5728 117.263C89.8768 117.263 90.1232 117.31 90.312 117.405C90.5112 117.488 90.6685 117.614 90.7838 117.782C90.8992 117.939 90.9778 118.128 91.0197 118.348C91.0722 118.568 91.0984 118.81 91.0984 119.072V124.404H92.4353V119.339C92.4353 118.71 92.624 118.207 93.0015 117.829C93.3789 117.452 93.898 117.263 94.5585 117.263C94.8836 117.263 95.1457 117.31 95.345 117.405C95.5547 117.499 95.7172 117.63 95.8325 117.798C95.9479 117.955 96.0265 118.144 96.0684 118.364C96.1104 118.584 96.1314 118.82 96.1314 119.072V124.404H97.4682V118.443C97.4682 118.023 97.4001 117.667 97.2638 117.373C97.138 117.069 96.9545 116.823 96.7133 116.634C96.4826 116.445 96.1995 116.309 95.864 116.225C95.5389 116.131 95.1719 116.083 94.763 116.083C94.2283 116.083 93.7354 116.204 93.2846 116.445C92.8442 116.686 92.4877 117.027 92.2151 117.468C92.0473 116.964 91.759 116.608 91.35 116.398C90.9411 116.188 90.485 116.083 89.9817 116.083C88.8388 116.083 87.9632 116.545 87.3551 117.468H87.3236V116.272H86.0654ZM105.121 119.559H100.449C100.47 119.245 100.538 118.951 100.654 118.679C100.769 118.395 100.926 118.149 101.126 117.939C101.325 117.73 101.561 117.567 101.833 117.452C102.117 117.326 102.431 117.263 102.777 117.263C103.113 117.263 103.417 117.326 103.689 117.452C103.972 117.567 104.214 117.73 104.413 117.939C104.623 118.139 104.785 118.38 104.9 118.663C105.026 118.946 105.1 119.245 105.121 119.559ZM106.41 121.824H105.089C104.974 122.359 104.733 122.757 104.366 123.02C104.009 123.282 103.548 123.413 102.982 123.413C102.541 123.413 102.158 123.339 101.833 123.193C101.508 123.046 101.241 122.852 101.031 122.611C100.822 122.359 100.67 122.076 100.575 121.761C100.481 121.436 100.439 121.095 100.449 120.739H106.536C106.557 120.246 106.51 119.727 106.395 119.182C106.29 118.637 106.09 118.133 105.797 117.672C105.514 117.211 105.131 116.833 104.649 116.54C104.177 116.235 103.579 116.083 102.856 116.083C102.3 116.083 101.786 116.188 101.314 116.398C100.853 116.608 100.449 116.901 100.103 117.279C99.7678 117.656 99.5056 118.102 99.3169 118.616C99.1282 119.129 99.0338 119.696 99.0338 120.314C99.0548 120.933 99.1439 121.504 99.3012 122.029C99.4689 122.553 99.7153 123.004 100.04 123.381C100.365 123.759 100.764 124.052 101.236 124.262C101.718 124.472 102.284 124.577 102.934 124.577C103.857 124.577 104.623 124.346 105.231 123.885C105.839 123.423 106.232 122.736 106.41 121.824ZM107.922 116.272V124.404H109.259V119.811C109.259 119.444 109.306 119.108 109.4 118.804C109.505 118.49 109.657 118.217 109.856 117.987C110.056 117.756 110.302 117.578 110.596 117.452C110.9 117.326 111.256 117.263 111.665 117.263C112.179 117.263 112.583 117.41 112.876 117.703C113.17 117.997 113.317 118.395 113.317 118.899V124.404H114.653V119.056C114.653 118.616 114.606 118.217 114.512 117.861C114.428 117.494 114.276 117.179 114.056 116.917C113.836 116.655 113.547 116.45 113.191 116.304C112.834 116.157 112.389 116.083 111.854 116.083C110.648 116.083 109.767 116.576 109.212 117.562H109.18V116.272H107.922ZM118.517 116.272V113.834H117.18V116.272H115.796V117.452H117.18V122.626C117.18 123.004 117.217 123.308 117.291 123.539C117.364 123.769 117.474 123.947 117.621 124.073C117.778 124.199 117.977 124.288 118.218 124.341C118.47 124.383 118.769 124.404 119.115 124.404H120.137V123.224H119.524C119.314 123.224 119.141 123.219 119.005 123.208C118.879 123.187 118.779 123.151 118.706 123.098C118.633 123.046 118.58 122.972 118.549 122.878C118.528 122.784 118.517 122.658 118.517 122.5V117.452H120.137V116.272H118.517Z" fill="white"/>
<path d="M86.733 48.7656C92.0171 48.7656 96.2508 44.4211 96.2508 39.0391C96.2508 33.657 92.0171 29.3125 86.733 29.3125C81.4488 29.3125 77.1832 33.657 77.1832 39.0391C77.1832 44.4211 81.4488 48.7656 86.733 48.7656ZM61.267 48.7656C66.5512 48.7656 70.7849 44.4211 70.7849 39.0391C70.7849 33.657 66.5512 29.3125 61.267 29.3125C55.9829 29.3125 51.7173 33.657 51.7173 39.0391C51.7173 44.4211 55.9829 48.7656 61.267 48.7656ZM61.267 55.25C53.8501 55.25 38.9844 59.0434 38.9844 66.5977V74.7031H83.5497V66.5977C83.5497 59.0434 68.684 55.25 61.267 55.25ZM86.733 55.25C85.8098 55.25 84.7593 55.3148 83.6452 55.4121C87.3378 58.1355 89.9162 61.7992 89.9162 66.5977V74.7031H109.016V66.5977C109.016 59.0434 94.1499 55.25 86.733 55.25Z" fill="white"/>
</svg>
