<svg width="148" height="149" viewBox="0 0 148 149" fill="none" xmlns="http://www.w3.org/2000/svg">
<rect x="0.786403" y="1.3489" width="146.271" height="146.271" fill="#650190" stroke="#650190" stroke-width="1.57281"/>
<path d="M67.6619 121.803L68.0551 123.203H68.9988V117.289H64.0759V118.548H67.6619C67.6828 119.061 67.6147 119.544 67.4574 119.995C67.3001 120.435 67.0642 120.823 66.7496 121.158C66.4456 121.484 66.0681 121.74 65.6172 121.929C65.1664 122.118 64.6473 122.212 64.0601 122.212C63.431 122.212 62.8753 122.092 62.393 121.851C61.9211 121.599 61.5227 121.269 61.1976 120.86C60.8726 120.44 60.6262 119.963 60.4584 119.428C60.2907 118.883 60.2068 118.317 60.2068 117.73C60.2068 117.132 60.2802 116.55 60.427 115.984C60.5738 115.407 60.7992 114.899 61.1033 114.458C61.4178 114.007 61.8163 113.646 62.2986 113.373C62.7914 113.1 63.3786 112.964 64.0601 112.964C64.4796 112.964 64.8728 113.017 65.2398 113.121C65.6172 113.216 65.9528 113.363 66.2463 113.562C66.5399 113.761 66.7863 114.018 66.9856 114.332C67.1848 114.637 67.3211 115.004 67.3945 115.433H68.8887C68.7838 114.773 68.5846 114.212 68.291 113.751C68.0079 113.279 67.6514 112.891 67.2215 112.587C66.8021 112.283 66.3197 112.062 65.7745 111.926C65.2398 111.779 64.6683 111.706 64.0601 111.706C63.1689 111.706 62.3877 111.874 61.7167 112.209C61.0561 112.534 60.5004 112.975 60.0495 113.53C59.6091 114.086 59.2736 114.736 59.0429 115.481C58.8227 116.215 58.7126 116.991 58.7126 117.808C58.7126 118.542 58.8332 119.25 59.0744 119.932C59.3155 120.613 59.6668 121.216 60.1281 121.74C60.5895 122.265 61.1505 122.684 61.811 122.999C62.4716 123.303 63.2213 123.455 64.0601 123.455C64.7207 123.455 65.3761 123.329 66.0262 123.077C66.6762 122.815 67.2215 122.391 67.6619 121.803ZM72.3927 113.609V111.973H71.0558V113.609H72.3927ZM71.0558 115.072V123.203H72.3927V115.072H71.0558ZM78.1284 123.203L81.101 115.072H79.7012L77.4836 121.851H77.4521L75.1715 115.072H73.6774L76.6972 123.203H78.1284ZM87.9742 118.359H83.3029C83.3239 118.044 83.3921 117.751 83.5074 117.478C83.6227 117.195 83.78 116.949 83.9792 116.739C84.1785 116.529 84.4144 116.367 84.687 116.251C84.9701 116.125 85.2847 116.063 85.6307 116.063C85.9662 116.063 86.2703 116.125 86.5429 116.251C86.826 116.367 87.0672 116.529 87.2664 116.739C87.4761 116.938 87.6386 117.179 87.754 117.462C87.8798 117.745 87.9532 118.044 87.9742 118.359ZM89.2639 120.624H87.9427C87.8274 121.158 87.5862 121.557 87.2192 121.819C86.8627 122.081 86.4014 122.212 85.8352 122.212C85.3948 122.212 85.0121 122.139 84.687 121.992C84.362 121.845 84.0946 121.651 83.8849 121.41C83.6752 121.158 83.5231 120.875 83.4288 120.561C83.3344 120.236 83.2925 119.895 83.3029 119.538H89.3897C89.4107 119.046 89.3635 118.527 89.2481 117.981C89.1433 117.436 88.9441 116.933 88.6505 116.472C88.3674 116.01 87.9847 115.633 87.5023 115.339C87.0305 115.035 86.4328 114.883 85.7093 114.883C85.1536 114.883 84.6398 114.988 84.168 115.198C83.7066 115.407 83.3029 115.701 82.9569 116.078C82.6214 116.456 82.3593 116.901 82.1705 117.415C81.9818 117.929 81.8874 118.495 81.8874 119.114C81.9084 119.732 81.9975 120.304 82.1548 120.828C82.3226 121.352 82.569 121.803 82.894 122.181C83.2191 122.558 83.6175 122.852 84.0893 123.062C84.5717 123.271 85.1379 123.376 85.788 123.376C86.7107 123.376 87.4761 123.145 88.0843 122.684C88.6924 122.223 89.0856 121.536 89.2639 120.624Z" fill="white"/>
<path d="M45 84.2709C43.9587 84.2709 43.1146 85.115 43.1146 86.1562C43.1146 87.1975 43.9587 88.0416 45 88.0416V84.2709ZM103.359 88.0416C104.401 88.0416 105.245 87.1975 105.245 86.1562C105.245 85.115 104.401 84.2709 103.359 84.2709V88.0416ZM74.1797 27.7969L74.8799 26.0463C74.299 25.814 73.6407 25.8849 73.1227 26.2356C72.6046 26.5864 72.2943 27.1713 72.2943 27.7969H74.1797ZM88.7695 27.7969H90.6549C90.6549 27.1713 90.3446 26.5864 89.8265 26.2356C89.3085 25.8849 88.6502 25.814 88.0693 26.0463L88.7695 27.7969ZM88.7695 36.5508L89.4698 38.3013C90.1856 38.015 90.6549 37.3217 90.6549 36.5508H88.7695ZM72.2943 45.3047C72.2943 46.346 73.1384 47.1901 74.1797 47.1901C75.221 47.1901 76.0651 46.346 76.0651 45.3047H72.2943ZM50.8359 86.1562H48.9505C48.9505 87.1975 49.7947 88.0416 50.8359 88.0416V86.1562ZM97.5234 86.1562V88.0416C98.5647 88.0416 99.4088 87.1975 99.4088 86.1562H97.5234ZM52.5284 55.0912C51.4871 55.0912 50.643 55.9353 50.643 56.9766C50.643 58.0178 51.4871 58.862 52.5284 58.862V55.0912ZM95.831 58.862C96.8723 58.862 97.7164 58.0178 97.7164 56.9766C97.7164 55.9353 96.8723 55.0912 95.831 55.0912V58.862ZM45 88.0416H103.359V84.2709H45V88.0416ZM73.4795 29.5474C78.5977 31.5947 84.3515 31.5947 89.4698 29.5474L88.0693 26.0463C83.8501 27.734 79.0992 27.734 74.8799 26.0463L73.4795 29.5474ZM86.8841 27.7969V36.5508H90.6549V27.7969H86.8841ZM88.0693 34.8002C83.8501 36.4879 79.0992 36.4879 74.8799 34.8002L73.4795 38.3013C78.5977 40.3486 84.3515 40.3486 89.4698 38.3013L88.0693 34.8002ZM76.0651 36.5508V27.7969H72.2943V36.5508H76.0651ZM72.2943 36.5508V45.3047H76.0651V36.5508H72.2943ZM88.7695 43.4193H59.5898V47.1901H88.7695V43.4193ZM59.5898 43.4193C56.3813 43.4193 53.6285 44.2227 51.6912 46.16C49.754 48.0973 48.9505 50.85 48.9505 54.0586H52.7213C52.7213 51.4313 53.3769 49.807 54.3576 48.8263C55.3383 47.8456 56.9625 47.1901 59.5898 47.1901V43.4193ZM48.9505 54.0586V86.1562H52.7213V54.0586H48.9505ZM50.8359 88.0416H97.5234V84.2709H50.8359V88.0416ZM99.4088 86.1562V54.0586H95.638V86.1562H99.4088ZM99.4088 54.0586C99.4088 50.85 98.6054 48.0973 96.6681 46.16C94.7309 44.2227 91.9781 43.4193 88.7695 43.4193V47.1901C91.3969 47.1901 93.0211 47.8456 94.0018 48.8263C94.9825 49.807 95.638 51.4313 95.638 54.0586H99.4088ZM52.5284 58.862H95.831V55.0912H52.5284V58.862ZM60.5932 56.9766V86.1562H64.364V56.9766H60.5932ZM72.2651 56.9766V86.1562H76.0359V56.9766H72.2651ZM83.937 56.9766V86.1562H87.7078V56.9766H83.937Z" fill="white"/>
</svg>
