<svg width="43" height="43" viewBox="0 0 43 43" fill="none" xmlns="http://www.w3.org/2000/svg">
<path d="M21.4486 3.57477C17.9135 3.57477 14.4578 4.62305 11.5184 6.58705C8.5791 8.55105 6.28817 11.3426 4.93534 14.6086C3.58251 17.8746 3.22855 21.4684 3.91822 24.9356C4.60788 28.4028 6.3102 31.5876 8.8099 34.0873C11.3096 36.587 14.4944 38.2893 17.9616 38.979C21.4288 39.6686 25.0226 39.3147 28.2886 37.9618C31.5546 36.609 34.3461 34.3181 36.3101 31.3787C38.2741 28.4394 39.3224 24.9837 39.3224 21.4486C39.3224 19.1014 38.8601 16.7771 37.9618 14.6086C37.0636 12.44 35.747 10.4696 34.0873 8.80989C32.4275 7.15015 30.4572 5.83357 28.2886 4.93533C26.1201 4.03709 23.7958 3.57477 21.4486 3.57477V3.57477ZM23.236 28.5981C23.236 29.0721 23.0477 29.5268 22.7125 29.862C22.3773 30.1972 21.9226 30.3855 21.4486 30.3855C20.9745 30.3855 20.5199 30.1972 20.1847 29.862C19.8495 29.5268 19.6612 29.0721 19.6612 28.5981V19.6612C19.6612 19.1872 19.8495 18.7325 20.1847 18.3973C20.5199 18.0621 20.9745 17.8738 21.4486 17.8738C21.9226 17.8738 22.3773 18.0621 22.7125 18.3973C23.0477 18.7325 23.236 19.1872 23.236 19.6612V28.5981ZM21.4486 16.0864C21.0951 16.0864 20.7495 15.9816 20.4556 15.7852C20.1616 15.5888 19.9325 15.3097 19.7973 14.9831C19.662 14.6565 19.6266 14.2971 19.6956 13.9504C19.7645 13.6036 19.9348 13.2852 20.1847 13.0352C20.4347 12.7852 20.7532 12.615 21.0999 12.546C21.4466 12.4771 21.806 12.5124 22.1326 12.6477C22.4592 12.783 22.7383 13.0121 22.9347 13.306C23.1311 13.6 23.236 13.9455 23.236 14.2991C23.236 14.7731 23.0477 15.2277 22.7125 15.5629C22.3773 15.8981 21.9226 16.0864 21.4486 16.0864Z" fill="#650190"/>
</svg>
