<svg width="148" height="149" viewBox="0 0 148 149" fill="none" xmlns="http://www.w3.org/2000/svg">
<rect x="0.786403" y="1.3489" width="146.271" height="146.271" fill="#650190" stroke="#650190" stroke-width="1.57281"/>
<path d="M44.9942 116.002V127.232H52.4335V125.973H46.4883V116.002H44.9942ZM54.929 117.638V116.002H53.5921V117.638H54.929ZM53.5921 119.1V127.232H54.929V119.1H53.5921ZM57.0473 116.002V127.232H58.3842V126.146H58.4156C58.5624 126.388 58.7407 126.592 58.9504 126.76C59.1706 126.917 59.4012 127.043 59.6424 127.137C59.8836 127.232 60.1247 127.3 60.3659 127.342C60.6175 127.384 60.843 127.405 61.0422 127.405C61.6608 127.405 62.2008 127.295 62.6622 127.074C63.134 126.854 63.522 126.555 63.8261 126.178C64.1406 125.79 64.3713 125.339 64.5181 124.825C64.6754 124.312 64.754 123.766 64.754 123.19C64.754 122.613 64.6754 122.068 64.5181 121.554C64.3608 121.04 64.1249 120.589 63.8103 120.201C63.5063 119.803 63.1183 119.488 62.6465 119.258C62.1851 119.027 61.6399 118.912 61.0107 118.912C60.4445 118.912 59.9255 119.016 59.4537 119.226C58.9818 119.425 58.6358 119.75 58.4156 120.201H58.3842V116.002H57.0473ZM63.3385 123.095C63.3385 123.494 63.2966 123.882 63.2127 124.259C63.1288 124.637 62.9925 124.972 62.8037 125.266C62.615 125.559 62.3634 125.795 62.0488 125.973C61.7447 126.152 61.362 126.241 60.9007 126.241C60.4393 126.241 60.0461 126.157 59.721 125.989C59.396 125.811 59.1286 125.58 58.9189 125.297C58.7197 125.014 58.5729 124.689 58.4785 124.322C58.3842 123.945 58.337 123.557 58.337 123.158C58.337 122.781 58.3789 122.408 58.4628 122.041C58.5572 121.674 58.704 121.349 58.9032 121.066C59.1024 120.773 59.3593 120.537 59.6739 120.359C59.9884 120.18 60.3711 120.091 60.822 120.091C61.2519 120.091 61.6241 120.175 61.9387 120.343C62.2637 120.511 62.5259 120.736 62.7251 121.019C62.9348 121.302 63.0869 121.627 63.1812 121.994C63.2861 122.351 63.3385 122.718 63.3385 123.095ZM66.2761 119.1V127.232H67.613V123.614C67.613 123.09 67.6654 122.629 67.7703 122.23C67.8751 121.821 68.0429 121.475 68.2735 121.192C68.5042 120.909 68.8083 120.694 69.1858 120.547C69.5632 120.4 70.0194 120.327 70.5541 120.327V118.912C69.8306 118.891 69.233 119.037 68.7611 119.352C68.2893 119.666 67.8908 120.154 67.5658 120.815H67.5343V119.1H66.2761ZM78.7643 127.2C78.5336 127.337 78.2138 127.405 77.8049 127.405C77.4589 127.405 77.181 127.31 76.9713 127.122C76.7721 126.922 76.6725 126.603 76.6725 126.162C76.3055 126.603 75.8756 126.922 75.3828 127.122C74.9004 127.31 74.3762 127.405 73.8099 127.405C73.443 127.405 73.0917 127.363 72.7562 127.279C72.4311 127.195 72.148 127.064 71.9069 126.886C71.6657 126.707 71.4717 126.477 71.3249 126.194C71.1886 125.9 71.1204 125.549 71.1204 125.14C71.1204 124.679 71.1991 124.301 71.3564 124.007C71.5136 123.714 71.7181 123.478 71.9698 123.3C72.2319 123.111 72.5255 122.969 72.8505 122.875C73.1861 122.781 73.5268 122.702 73.8729 122.639C74.2398 122.566 74.5859 122.513 74.9109 122.482C75.2464 122.44 75.54 122.387 75.7917 122.325C76.0433 122.251 76.2426 122.152 76.3893 122.026C76.5361 121.889 76.6095 121.695 76.6095 121.444C76.6095 121.15 76.5519 120.914 76.4365 120.736C76.3317 120.558 76.1901 120.421 76.0119 120.327C75.8441 120.233 75.6501 120.17 75.4299 120.138C75.2202 120.107 75.0105 120.091 74.8008 120.091C74.2346 120.091 73.7628 120.201 73.3853 120.421C73.0078 120.631 72.8034 121.035 72.7719 121.633H71.435C71.456 121.129 71.5608 120.705 71.7496 120.359C71.9383 120.013 72.19 119.735 72.5045 119.525C72.8191 119.305 73.1756 119.147 73.574 119.053C73.983 118.959 74.4181 118.912 74.8795 118.912C75.2464 118.912 75.6082 118.938 75.9647 118.99C76.3317 119.043 76.662 119.153 76.9556 119.32C77.2491 119.478 77.4851 119.703 77.6633 119.997C77.8416 120.29 77.9307 120.673 77.9307 121.145V125.329C77.9307 125.643 77.9464 125.874 77.9779 126.021C78.0198 126.167 78.1456 126.241 78.3554 126.241C78.4707 126.241 78.607 126.215 78.7643 126.162V127.2ZM76.5938 123.032C76.426 123.158 76.2059 123.252 75.9332 123.315C75.6606 123.368 75.3723 123.415 75.0682 123.457C74.7746 123.488 74.4758 123.53 74.1717 123.583C73.8676 123.625 73.595 123.698 73.3538 123.803C73.1127 123.908 72.9134 124.06 72.7562 124.259C72.6094 124.448 72.536 124.71 72.536 125.045C72.536 125.266 72.5779 125.454 72.6618 125.612C72.7562 125.758 72.8715 125.879 73.0078 125.973C73.1546 126.068 73.3224 126.136 73.5111 126.178C73.6998 126.22 73.8991 126.241 74.1088 126.241C74.5492 126.241 74.9266 126.183 75.2412 126.068C75.5558 125.942 75.8127 125.79 76.0119 125.612C76.2111 125.423 76.3579 125.224 76.4523 125.014C76.5466 124.794 76.5938 124.589 76.5938 124.401V123.032ZM79.9613 119.1V127.232H81.2982V123.614C81.2982 123.09 81.3507 122.629 81.4555 122.23C81.5604 121.821 81.7281 121.475 81.9588 121.192C82.1895 120.909 82.4936 120.694 82.871 120.547C83.2485 120.4 83.7046 120.327 84.2394 120.327V118.912C83.5159 118.891 82.9182 119.037 82.4464 119.352C81.9745 119.666 81.5761 120.154 81.251 120.815H81.2196V119.1H79.9613ZM86.6616 117.638V116.002H85.3247V117.638H86.6616ZM85.3247 119.1V127.232H86.6616V119.1H85.3247ZM94.3791 122.387H89.7078C89.7288 122.073 89.797 121.779 89.9123 121.507C90.0276 121.224 90.1849 120.977 90.3841 120.767C90.5834 120.558 90.8193 120.395 91.0919 120.28C91.375 120.154 91.6896 120.091 92.0356 120.091C92.3711 120.091 92.6752 120.154 92.9478 120.28C93.2309 120.395 93.4721 120.558 93.6713 120.767C93.881 120.967 94.0435 121.208 94.1589 121.491C94.2847 121.774 94.3581 122.073 94.3791 122.387ZM95.6688 124.652H94.3476C94.2323 125.187 93.9911 125.585 93.6241 125.848C93.2676 126.11 92.8063 126.241 92.24 126.241C91.7997 126.241 91.4169 126.167 91.0919 126.021C90.7668 125.874 90.4995 125.68 90.2898 125.439C90.0801 125.187 89.928 124.904 89.8336 124.589C89.7393 124.264 89.6973 123.924 89.7078 123.567H95.7946C95.8156 123.074 95.7684 122.555 95.653 122.01C95.5482 121.465 95.349 120.961 95.0554 120.5C94.7723 120.039 94.3895 119.661 93.9072 119.368C93.4354 119.064 92.8377 118.912 92.1142 118.912C91.5585 118.912 91.0447 119.016 90.5729 119.226C90.1115 119.436 89.7078 119.729 89.3618 120.107C89.0263 120.484 88.7641 120.93 88.5754 121.444C88.3867 121.958 88.2923 122.524 88.2923 123.142C88.3133 123.761 88.4024 124.332 88.5597 124.857C88.7274 125.381 88.9738 125.832 89.2989 126.209C89.6239 126.587 90.0224 126.88 90.4942 127.09C90.9766 127.3 91.5428 127.405 92.1929 127.405C93.1156 127.405 93.881 127.174 94.4892 126.713C95.0973 126.251 95.4905 125.565 95.6688 124.652ZM97.9982 124.668H96.6613C96.6823 125.171 96.7872 125.601 96.9759 125.958C97.1646 126.304 97.4163 126.587 97.7309 126.807C98.0454 127.017 98.4072 127.169 98.8161 127.263C99.225 127.358 99.6549 127.405 100.106 127.405C100.515 127.405 100.924 127.363 101.333 127.279C101.752 127.205 102.124 127.069 102.449 126.87C102.785 126.671 103.052 126.409 103.251 126.084C103.461 125.758 103.566 125.35 103.566 124.857C103.566 124.469 103.487 124.144 103.33 123.882C103.183 123.619 102.984 123.405 102.732 123.237C102.491 123.059 102.208 122.917 101.883 122.812C101.568 122.707 101.243 122.618 100.908 122.545C100.593 122.471 100.279 122.403 99.9642 122.34C99.6497 122.267 99.3666 122.183 99.1149 122.089C98.8633 121.984 98.6536 121.858 98.4858 121.711C98.3285 121.554 98.2499 121.36 98.2499 121.129C98.2499 120.919 98.3023 120.752 98.4072 120.626C98.512 120.49 98.6483 120.385 98.8161 120.311C98.9839 120.227 99.1673 120.17 99.3666 120.138C99.5763 120.107 99.7807 120.091 99.98 120.091C100.2 120.091 100.415 120.117 100.625 120.17C100.845 120.212 101.044 120.285 101.222 120.39C101.401 120.495 101.548 120.636 101.663 120.815C101.778 120.982 101.846 121.197 101.867 121.459H103.204C103.173 120.967 103.068 120.558 102.89 120.233C102.711 119.897 102.47 119.635 102.166 119.446C101.873 119.247 101.532 119.111 101.144 119.037C100.756 118.953 100.331 118.912 99.8699 118.912C99.5134 118.912 99.1516 118.959 98.7846 119.053C98.4281 119.137 98.1031 119.273 97.8095 119.462C97.5264 119.64 97.2905 119.876 97.1017 120.17C96.9235 120.463 96.8344 120.815 96.8344 121.224C96.8344 121.748 96.9654 122.157 97.2276 122.45C97.4897 122.744 97.8147 122.975 98.2027 123.142C98.6011 123.3 99.031 123.425 99.4924 123.52C99.9538 123.604 100.378 123.703 100.766 123.819C101.165 123.924 101.495 124.065 101.757 124.243C102.019 124.422 102.15 124.684 102.15 125.03C102.15 125.281 102.088 125.491 101.962 125.659C101.836 125.816 101.673 125.937 101.474 126.021C101.285 126.105 101.076 126.162 100.845 126.194C100.614 126.225 100.394 126.241 100.184 126.241C99.9118 126.241 99.6444 126.215 99.3823 126.162C99.1307 126.11 98.9 126.026 98.6903 125.911C98.491 125.785 98.3285 125.622 98.2027 125.423C98.0769 125.213 98.0087 124.962 97.9982 124.668Z" fill="white"/>
<path d="M73.8145 57.5469C66.7831 50.9923 57.3683 46.9701 47 46.9701V79.7434C57.3683 79.7434 66.7831 83.7655 73.8145 90.3202C80.8459 83.7953 90.2607 79.7434 100.629 79.7434V46.9701C90.2607 46.9701 80.8459 50.9923 73.8145 57.5469ZM73.8145 46.9701C78.7603 46.9701 82.7527 42.9777 82.7527 38.0319C82.7527 33.0861 78.7603 29.0938 73.8145 29.0938C68.8687 29.0938 64.8763 33.0861 64.8763 38.0319C64.8763 42.9777 68.8687 46.9701 73.8145 46.9701Z" fill="white"/>
</svg>
