<svg width="148" height="149" viewBox="0 0 148 149" fill="none" xmlns="http://www.w3.org/2000/svg">
<rect x="0.786403" y="1.3489" width="146.271" height="146.271" fill="#650190" stroke="#650190" stroke-width="1.57281"/>
<path d="M35.5804 115.355H37.0745C36.9907 114.757 36.8124 114.233 36.5398 113.782C36.2672 113.321 35.9264 112.938 35.5175 112.634C35.1085 112.33 34.6419 112.099 34.1177 111.942C33.5934 111.785 33.0377 111.706 32.4505 111.706C31.5907 111.706 30.8253 111.863 30.1542 112.178C29.4936 112.482 28.9379 112.901 28.487 113.436C28.0466 113.971 27.7111 114.6 27.4804 115.323C27.2497 116.036 27.1344 116.802 27.1344 117.62C27.1344 118.438 27.2393 119.203 27.449 119.916C27.6692 120.629 27.9942 121.248 28.4241 121.772C28.854 122.296 29.394 122.71 30.0441 123.014C30.6942 123.308 31.4544 123.455 32.3247 123.455C33.7612 123.455 34.8936 123.062 35.7219 122.275C36.5503 121.489 37.0378 120.388 37.1846 118.972H35.6905C35.659 119.434 35.5647 119.864 35.4074 120.262C35.2501 120.66 35.0299 121.006 34.7468 121.3C34.4742 121.583 34.1439 121.809 33.7559 121.976C33.3784 122.134 32.9433 122.212 32.4505 122.212C31.7794 122.212 31.2027 122.086 30.7204 121.835C30.2381 121.583 29.8396 121.248 29.5251 120.828C29.221 120.398 28.9956 119.9 28.8488 119.334C28.702 118.757 28.6286 118.149 28.6286 117.51C28.6286 116.922 28.702 116.356 28.8488 115.811C28.9956 115.266 29.221 114.783 29.5251 114.364C29.8396 113.934 30.2328 113.593 30.7047 113.342C31.187 113.09 31.7637 112.964 32.4348 112.964C33.2212 112.964 33.8975 113.163 34.4637 113.562C35.0404 113.96 35.4126 114.558 35.5804 115.355ZM46.0188 123.172C45.7881 123.308 45.4683 123.376 45.0594 123.376C44.7133 123.376 44.4355 123.282 44.2258 123.093C44.0266 122.894 43.9269 122.574 43.9269 122.134C43.56 122.574 43.1301 122.894 42.6372 123.093C42.1549 123.282 41.6306 123.376 41.0644 123.376C40.6974 123.376 40.3462 123.334 40.0107 123.25C39.6856 123.166 39.4025 123.035 39.1613 122.857C38.9202 122.679 38.7262 122.448 38.5794 122.165C38.4431 121.871 38.3749 121.52 38.3749 121.111C38.3749 120.65 38.4536 120.272 38.6109 119.979C38.7681 119.685 38.9726 119.449 39.2242 119.271C39.4864 119.082 39.78 118.941 40.105 118.846C40.4406 118.752 40.7813 118.673 41.1273 118.611C41.4943 118.537 41.8404 118.485 42.1654 118.453C42.5009 118.411 42.7945 118.359 43.0462 118.296C43.2978 118.223 43.497 118.123 43.6438 117.997C43.7906 117.861 43.864 117.667 43.864 117.415C43.864 117.122 43.8064 116.886 43.691 116.707C43.5862 116.529 43.4446 116.393 43.2664 116.299C43.0986 116.204 42.9046 116.141 42.6844 116.11C42.4747 116.078 42.265 116.063 42.0553 116.063C41.4891 116.063 41.0172 116.173 40.6398 116.393C40.2623 116.603 40.0578 117.006 40.0264 117.604H38.6895C38.7105 117.101 38.8153 116.676 39.0041 116.33C39.1928 115.984 39.4444 115.706 39.759 115.496C40.0736 115.276 40.4301 115.119 40.8285 115.025C41.2374 114.93 41.6726 114.883 42.1339 114.883C42.5009 114.883 42.8627 114.909 43.2192 114.962C43.5862 115.014 43.9165 115.124 44.21 115.292C44.5036 115.449 44.7396 115.675 44.9178 115.968C45.0961 116.262 45.1852 116.645 45.1852 117.116V121.3C45.1852 121.615 45.2009 121.845 45.2324 121.992C45.2743 122.139 45.4001 122.212 45.6098 122.212C45.7252 122.212 45.8615 122.186 46.0188 122.134V123.172ZM43.8483 119.004C43.6805 119.13 43.4603 119.224 43.1877 119.287C42.9151 119.339 42.6268 119.386 42.3227 119.428C42.0291 119.46 41.7303 119.502 41.4262 119.554C41.1221 119.596 40.8495 119.67 40.6083 119.774C40.3672 119.879 40.1679 120.031 40.0107 120.231C39.8639 120.419 39.7905 120.681 39.7905 121.017C39.7905 121.237 39.8324 121.426 39.9163 121.583C40.0107 121.73 40.126 121.851 40.2623 121.945C40.4091 122.039 40.5769 122.107 40.7656 122.149C40.9543 122.191 41.1536 122.212 41.3633 122.212C41.8037 122.212 42.1811 122.155 42.4957 122.039C42.8102 121.913 43.0671 121.761 43.2664 121.583C43.4656 121.394 43.6124 121.195 43.7067 120.985C43.8011 120.765 43.8483 120.561 43.8483 120.372V119.004ZM47.263 115.072V123.203H48.5999V118.139C48.5999 117.981 48.6366 117.787 48.71 117.557C48.7939 117.316 48.9197 117.085 49.0875 116.865C49.2657 116.645 49.4912 116.456 49.7638 116.299C50.0469 116.141 50.3824 116.063 50.7704 116.063C51.0744 116.063 51.3208 116.11 51.5096 116.204C51.7088 116.288 51.8661 116.414 51.9814 116.582C52.0968 116.739 52.1754 116.928 52.2173 117.148C52.2698 117.368 52.296 117.609 52.296 117.871V123.203H53.6329V118.139C53.6329 117.51 53.8216 117.006 54.1991 116.629C54.5766 116.251 55.0956 116.063 55.7562 116.063C56.0812 116.063 56.3433 116.11 56.5426 116.204C56.7523 116.299 56.9148 116.43 57.0301 116.597C57.1455 116.755 57.2241 116.943 57.2661 117.164C57.308 117.384 57.329 117.62 57.329 117.871V123.203H58.6659V117.242C58.6659 116.823 58.5977 116.466 58.4614 116.173C58.3356 115.869 58.1521 115.622 57.9109 115.433C57.6802 115.245 57.3971 115.108 57.0616 115.025C56.7365 114.93 56.3696 114.883 55.9606 114.883C55.4259 114.883 54.9331 115.004 54.4822 115.245C54.0418 115.486 53.6853 115.827 53.4127 116.267C53.2449 115.764 52.9566 115.407 52.5476 115.198C52.1387 114.988 51.6826 114.883 51.1793 114.883C50.0364 114.883 49.1609 115.344 48.5527 116.267H48.5213V115.072H47.263ZM60.719 115.072V126.302H62.0559V122.118H62.0873C62.2341 122.359 62.4124 122.564 62.6221 122.731C62.8423 122.889 63.0729 123.014 63.3141 123.109C63.5553 123.203 63.7964 123.271 64.0376 123.313C64.2892 123.355 64.5147 123.376 64.7139 123.376C65.3325 123.376 65.8725 123.266 66.3339 123.046C66.8057 122.826 67.1937 122.527 67.4978 122.149C67.8123 121.761 68.043 121.311 68.1898 120.797C68.3471 120.283 68.4257 119.738 68.4257 119.161C68.4257 118.584 68.3471 118.039 68.1898 117.525C68.0325 117.012 67.7966 116.561 67.482 116.173C67.178 115.774 66.79 115.46 66.3182 115.229C65.8568 114.998 65.3116 114.883 64.6824 114.883C64.1162 114.883 63.5972 114.988 63.1254 115.198C62.6535 115.397 62.3075 115.722 62.0873 116.173H62.0559V115.072H60.719ZM67.0102 119.067C67.0102 119.465 66.9683 119.853 66.8844 120.231C66.8005 120.608 66.6642 120.944 66.4754 121.237C66.2867 121.531 66.0351 121.767 65.7205 121.945C65.4164 122.123 65.0337 122.212 64.5724 122.212C64.111 122.212 63.7178 122.128 63.3927 121.961C63.0677 121.782 62.8003 121.552 62.5906 121.269C62.3914 120.985 62.2446 120.66 62.1502 120.293C62.0559 119.916 62.0087 119.528 62.0087 119.13C62.0087 118.752 62.0506 118.38 62.1345 118.013C62.2289 117.646 62.3757 117.321 62.5749 117.038C62.7741 116.744 63.031 116.508 63.3456 116.33C63.6601 116.152 64.0428 116.063 64.4937 116.063C64.9236 116.063 65.2958 116.146 65.6104 116.314C65.9354 116.482 66.1976 116.707 66.3968 116.991C66.6065 117.274 66.7586 117.599 66.8529 117.966C66.9578 118.322 67.0102 118.689 67.0102 119.067ZM76.7266 123.203V115.072H75.3897V119.664C75.3897 120.031 75.3373 120.372 75.2324 120.687C75.138 120.991 74.9912 121.258 74.792 121.489C74.5928 121.719 74.3412 121.898 74.0371 122.024C73.7435 122.149 73.3922 122.212 72.9833 122.212C72.4695 122.212 72.0658 122.065 71.7722 121.772C71.4786 121.478 71.3319 121.08 71.3319 120.577V115.072H69.995V120.419C69.995 120.86 70.0369 121.263 70.1208 121.63C70.2152 121.987 70.3724 122.296 70.5926 122.558C70.8128 122.82 71.1012 123.025 71.4577 123.172C71.8142 123.308 72.2598 123.376 72.7946 123.376C73.3922 123.376 73.9113 123.261 74.3516 123.03C74.792 122.789 75.1538 122.417 75.4369 121.913H75.4683V123.203H76.7266ZM79.5523 120.639H78.2155C78.2364 121.143 78.3413 121.573 78.53 121.929C78.7188 122.275 78.9704 122.558 79.285 122.778C79.5995 122.988 79.9613 123.14 80.3702 123.235C80.7791 123.329 81.209 123.376 81.6599 123.376C82.0688 123.376 82.4778 123.334 82.8867 123.25C83.3061 123.177 83.6783 123.041 84.0034 122.841C84.3389 122.642 84.6063 122.38 84.8055 122.055C85.0152 121.73 85.1201 121.321 85.1201 120.828C85.1201 120.44 85.0414 120.115 84.8842 119.853C84.7374 119.591 84.5381 119.376 84.2865 119.208C84.0453 119.03 83.7622 118.888 83.4372 118.784C83.1226 118.679 82.7976 118.59 82.462 118.516C82.1475 118.443 81.8329 118.375 81.5184 118.312C81.2038 118.238 80.9207 118.154 80.669 118.06C80.4174 117.955 80.2077 117.829 80.0399 117.683C79.8826 117.525 79.804 117.331 79.804 117.101C79.804 116.891 79.8564 116.723 79.9613 116.597C80.0661 116.461 80.2024 116.356 80.3702 116.283C80.538 116.199 80.7215 116.141 80.9207 116.11C81.1304 116.078 81.3349 116.063 81.5341 116.063C81.7543 116.063 81.9692 116.089 82.1789 116.141C82.3991 116.183 82.5983 116.257 82.7766 116.361C82.9548 116.466 83.1016 116.608 83.217 116.786C83.3323 116.954 83.4005 117.169 83.4214 117.431H84.7583C84.7269 116.938 84.622 116.529 84.4438 116.204C84.2655 115.869 84.0244 115.606 83.7203 115.418C83.4267 115.219 83.0859 115.082 82.698 115.009C82.31 114.925 81.8853 114.883 81.424 114.883C81.0675 114.883 80.7057 114.93 80.3387 115.025C79.9822 115.108 79.6572 115.245 79.3636 115.433C79.0805 115.612 78.8446 115.848 78.6558 116.141C78.4776 116.435 78.3885 116.786 78.3885 117.195C78.3885 117.719 78.5195 118.128 78.7817 118.422C79.0438 118.715 79.3689 118.946 79.7568 119.114C80.1553 119.271 80.5852 119.397 81.0465 119.491C81.5079 119.575 81.9325 119.675 82.3205 119.79C82.7189 119.895 83.0492 120.037 83.3114 120.215C83.5735 120.393 83.7046 120.655 83.7046 121.001C83.7046 121.253 83.6416 121.463 83.5158 121.63C83.39 121.788 83.2275 121.908 83.0282 121.992C82.8395 122.076 82.6298 122.134 82.3991 122.165C82.1684 122.197 81.9483 122.212 81.7385 122.212C81.4659 122.212 81.1985 122.186 80.9364 122.134C80.6848 122.081 80.4541 121.997 80.2444 121.882C80.0452 121.756 79.8826 121.594 79.7568 121.394C79.631 121.185 79.5628 120.933 79.5523 120.639ZM91.2276 111.973V123.203H92.6431V113.861H92.6746L96.1819 123.203H97.4559L100.963 113.861H100.995V123.203H102.41V111.973H100.366L96.8111 121.41L93.2723 111.973H91.2276ZM111.88 123.172C111.649 123.308 111.33 123.376 110.921 123.376C110.575 123.376 110.297 123.282 110.087 123.093C109.888 122.894 109.788 122.574 109.788 122.134C109.421 122.574 108.991 122.894 108.498 123.093C108.016 123.282 107.492 123.376 106.926 123.376C106.559 123.376 106.207 123.334 105.872 123.25C105.547 123.166 105.264 123.035 105.023 122.857C104.781 122.679 104.587 122.448 104.441 122.165C104.304 121.871 104.236 121.52 104.236 121.111C104.236 120.65 104.315 120.272 104.472 119.979C104.629 119.685 104.834 119.449 105.085 119.271C105.348 119.082 105.641 118.941 105.966 118.846C106.302 118.752 106.643 118.673 106.989 118.611C107.356 118.537 107.702 118.485 108.027 118.453C108.362 118.411 108.656 118.359 108.907 118.296C109.159 118.223 109.358 118.123 109.505 117.997C109.652 117.861 109.725 117.667 109.725 117.415C109.725 117.122 109.668 116.886 109.552 116.707C109.447 116.529 109.306 116.393 109.128 116.299C108.96 116.204 108.766 116.141 108.546 116.11C108.336 116.078 108.126 116.063 107.917 116.063C107.35 116.063 106.878 116.173 106.501 116.393C106.124 116.603 105.919 117.006 105.888 117.604H104.551C104.572 117.101 104.677 116.676 104.865 116.33C105.054 115.984 105.306 115.706 105.62 115.496C105.935 115.276 106.291 115.119 106.69 115.025C107.099 114.93 107.534 114.883 107.995 114.883C108.362 114.883 108.724 114.909 109.08 114.962C109.447 115.014 109.778 115.124 110.071 115.292C110.365 115.449 110.601 115.675 110.779 115.968C110.957 116.262 111.046 116.645 111.046 117.116V121.3C111.046 121.615 111.062 121.845 111.094 121.992C111.136 122.139 111.261 122.212 111.471 122.212C111.586 122.212 111.723 122.186 111.88 122.134V123.172ZM109.71 119.004C109.542 119.13 109.322 119.224 109.049 119.287C108.776 119.339 108.488 119.386 108.184 119.428C107.89 119.46 107.591 119.502 107.287 119.554C106.983 119.596 106.711 119.67 106.47 119.774C106.228 119.879 106.029 120.031 105.872 120.231C105.725 120.419 105.652 120.681 105.652 121.017C105.652 121.237 105.694 121.426 105.778 121.583C105.872 121.73 105.987 121.851 106.124 121.945C106.27 122.039 106.438 122.107 106.627 122.149C106.816 122.191 107.015 122.212 107.225 122.212C107.665 122.212 108.042 122.155 108.357 122.039C108.671 121.913 108.928 121.761 109.128 121.583C109.327 121.394 109.474 121.195 109.568 120.985C109.662 120.765 109.71 120.561 109.71 120.372V119.004ZM113.171 115.072V126.302H114.508V122.118H114.54C114.687 122.359 114.865 122.564 115.075 122.731C115.295 122.889 115.525 123.014 115.767 123.109C116.008 123.203 116.249 123.271 116.49 123.313C116.742 123.355 116.967 123.376 117.166 123.376C117.785 123.376 118.325 123.266 118.786 123.046C119.258 122.826 119.646 122.527 119.95 122.149C120.265 121.761 120.495 121.311 120.642 120.797C120.8 120.283 120.878 119.738 120.878 119.161C120.878 118.584 120.8 118.039 120.642 117.525C120.485 117.012 120.249 116.561 119.935 116.173C119.63 115.774 119.242 115.46 118.771 115.229C118.309 114.998 117.764 114.883 117.135 114.883C116.569 114.883 116.05 114.988 115.578 115.198C115.106 115.397 114.76 115.722 114.54 116.173H114.508V115.072H113.171ZM119.463 119.067C119.463 119.465 119.421 119.853 119.337 120.231C119.253 120.608 119.117 120.944 118.928 121.237C118.739 121.531 118.488 121.767 118.173 121.945C117.869 122.123 117.486 122.212 117.025 122.212C116.563 122.212 116.17 122.128 115.845 121.961C115.52 121.782 115.253 121.552 115.043 121.269C114.844 120.985 114.697 120.66 114.603 120.293C114.508 119.916 114.461 119.528 114.461 119.13C114.461 118.752 114.503 118.38 114.587 118.013C114.681 117.646 114.828 117.321 115.027 117.038C115.227 116.744 115.483 116.508 115.798 116.33C116.113 116.152 116.495 116.063 116.946 116.063C117.376 116.063 117.748 116.146 118.063 116.314C118.388 116.482 118.65 116.707 118.849 116.991C119.059 117.274 119.211 117.599 119.305 117.966C119.41 118.322 119.463 118.689 119.463 119.067Z" fill="white"/>
<path d="M100.477 29.0938L99.9702 29.1889L83.0417 35.751L64.0208 29.0938L46.1412 35.117C45.4755 35.3389 45 35.9095 45 36.6387V84.5712C45 85.4588 45.6974 86.1562 46.5851 86.1562L47.0923 86.0611L64.0208 79.499L83.0417 86.1562L100.921 80.133C101.587 79.9111 102.062 79.3405 102.062 78.6113V30.6788C102.062 29.7912 101.365 29.0938 100.477 29.0938ZM83.0417 79.816L64.0208 73.127V35.434L83.0417 42.123V79.816Z" fill="white"/>
</svg>
