<svg width="42" height="42" viewBox="0 0 42 42" fill="none" xmlns="http://www.w3.org/2000/svg">
<path d="M21 0.166672C16.8795 0.166672 12.8516 1.38853 9.42559 3.67772C5.99956 5.96692 3.3293 9.22064 1.75248 13.0274C0.175653 16.8342 -0.236917 21.0231 0.566942 25.0644C1.3708 29.1057 3.35498 32.8178 6.26858 35.7314C9.18217 38.645 12.8943 40.6292 16.9356 41.433C20.9769 42.2369 25.1657 41.8243 28.9725 40.2475C32.7793 38.6707 36.0331 36.0004 38.3222 32.5744C40.6114 29.1484 41.8333 25.1204 41.8333 21C41.8333 18.2641 41.2944 15.555 40.2475 13.0274C39.2005 10.4998 37.6659 8.20317 35.7314 6.26861C33.7968 4.33406 31.5002 2.79949 28.9725 1.75251C26.4449 0.705542 23.7358 0.166672 21 0.166672V0.166672ZM21 37.6667C17.7036 37.6667 14.4813 36.6892 11.7405 34.8578C8.99964 33.0265 6.86344 30.4235 5.60198 27.3781C4.34052 24.3326 4.01046 20.9815 4.65355 17.7485C5.29663 14.5155 6.88398 11.5458 9.21486 9.21489C11.5457 6.88402 14.5154 5.29667 17.7485 4.65358C20.9815 4.0105 24.3326 4.34055 27.378 5.60201C30.4235 6.86347 33.0264 8.99968 34.8578 11.7405C36.6891 14.4813 37.6666 17.7036 37.6666 21C37.6666 25.4203 35.9107 29.6595 32.7851 32.7851C29.6595 35.9107 25.4202 37.6667 21 37.6667V37.6667Z" fill="#650190"/>
<path d="M21 8.5C19.0661 8.5 17.2114 9.26823 15.844 10.6357C14.4765 12.0031 13.7083 13.8578 13.7083 15.7917C13.7083 16.3442 13.9278 16.8741 14.3185 17.2648C14.7092 17.6555 15.2391 17.875 15.7916 17.875C16.3442 17.875 16.8741 17.6555 17.2648 17.2648C17.6555 16.8741 17.875 16.3442 17.875 15.7917C17.875 15.1736 18.0583 14.5694 18.4016 14.0555C18.745 13.5416 19.2331 13.1411 19.8041 12.9045C20.3751 12.668 21.0034 12.6061 21.6096 12.7267C22.2158 12.8473 22.7726 13.1449 23.2097 13.582C23.6467 14.019 23.9444 14.5758 24.0649 15.182C24.1855 15.7882 24.1236 16.4165 23.8871 16.9876C23.6506 17.5586 23.25 18.0466 22.7361 18.39C22.2222 18.7334 21.618 18.9167 21 18.9167C20.4474 18.9167 19.9175 19.1362 19.5268 19.5269C19.1361 19.9176 18.9166 20.4475 18.9166 21V25.1667C18.9166 25.7192 19.1361 26.2491 19.5268 26.6398C19.9175 27.0305 20.4474 27.25 21 27.25C21.5525 27.25 22.0824 27.0305 22.4731 26.6398C22.8638 26.2491 23.0833 25.7192 23.0833 25.1667V22.75C24.7669 22.2583 26.216 21.1747 27.1635 19.6988C28.111 18.223 28.4932 16.4543 28.2395 14.7189C27.9857 12.9835 27.1133 11.3982 25.7829 10.2554C24.4525 9.11255 22.7538 8.48912 21 8.5V8.5Z" fill="#650190"/>
<path d="M21 33.5C22.1506 33.5 23.0833 32.5673 23.0833 31.4167C23.0833 30.2661 22.1506 29.3333 21 29.3333C19.8494 29.3333 18.9166 30.2661 18.9166 31.4167C18.9166 32.5673 19.8494 33.5 21 33.5Z" fill="#650190"/>
</svg>
