<svg width="148" height="149" viewBox="0 0 148 149" fill="none" xmlns="http://www.w3.org/2000/svg">
<rect x="0.942653" y="1.56765" width="146.271" height="146.271" fill="#650190" stroke="#650190" stroke-width="1.57281"/>
<path d="M42.2437 107.143V118.372H43.7379V113.575H47.3868C47.7538 113.575 48.0474 113.633 48.2676 113.748C48.4878 113.853 48.666 114 48.8023 114.189C48.9387 114.367 49.0383 114.582 49.1012 114.834C49.1641 115.075 49.2165 115.332 49.2585 115.604C49.3109 115.877 49.3423 116.155 49.3528 116.438C49.3633 116.721 49.3738 116.988 49.3843 117.24C49.3948 117.481 49.4157 117.701 49.4472 117.901C49.4891 118.1 49.5625 118.257 49.6674 118.372H51.3346C51.1773 118.184 51.0567 117.969 50.9728 117.727C50.8994 117.476 50.8417 117.214 50.7998 116.941C50.7579 116.668 50.7317 116.391 50.7212 116.108C50.7107 115.824 50.695 115.547 50.674 115.274C50.6425 115.001 50.5953 114.739 50.5324 114.488C50.48 114.236 50.3909 114.01 50.2651 113.811C50.1497 113.602 49.9872 113.423 49.7775 113.276C49.5783 113.13 49.3161 113.025 48.9911 112.962V112.93C49.6726 112.742 50.1654 112.39 50.4695 111.877C50.7841 111.363 50.9414 110.765 50.9414 110.084C50.9414 109.171 50.6373 108.453 50.0291 107.929C49.4315 107.405 48.5979 107.143 47.5284 107.143H42.2437ZM46.8521 112.317H43.7379V108.401H47.4497C48.1522 108.401 48.6608 108.579 48.9754 108.936C49.2899 109.292 49.4472 109.753 49.4472 110.32C49.4472 110.729 49.3738 111.064 49.227 111.326C49.0907 111.578 48.902 111.782 48.6608 111.94C48.4301 112.086 48.1575 112.186 47.8429 112.238C47.5284 112.291 47.1981 112.317 46.8521 112.317ZM58.4369 113.528H53.7657C53.7866 113.214 53.8548 112.92 53.9701 112.647C54.0855 112.364 54.2427 112.118 54.442 111.908C54.6412 111.698 54.8771 111.536 55.1497 111.421C55.4328 111.295 55.7474 111.232 56.0934 111.232C56.4289 111.232 56.733 111.295 57.0056 111.421C57.2887 111.536 57.5299 111.698 57.7291 111.908C57.9388 112.107 58.1014 112.348 58.2167 112.632C58.3425 112.915 58.4159 113.214 58.4369 113.528ZM59.7266 115.793H58.4054C58.2901 116.328 58.0489 116.726 57.6819 116.988C57.3254 117.25 56.8641 117.381 56.2979 117.381C55.8575 117.381 55.4748 117.308 55.1497 117.161C54.8247 117.014 54.5573 116.821 54.3476 116.579C54.1379 116.328 53.9858 116.045 53.8915 115.73C53.7971 115.405 53.7552 115.064 53.7657 114.708H59.8524C59.8734 114.215 59.8262 113.696 59.7109 113.151C59.606 112.605 59.4068 112.102 59.1132 111.641C58.8301 111.179 58.4474 110.802 57.965 110.508C57.4932 110.204 56.8955 110.052 56.172 110.052C55.6163 110.052 55.1025 110.157 54.6307 110.367C54.1693 110.576 53.7657 110.87 53.4196 111.248C53.0841 111.625 52.822 112.071 52.6332 112.584C52.4445 113.098 52.3501 113.664 52.3501 114.283C52.3711 114.902 52.4602 115.473 52.6175 115.997C52.7853 116.522 53.0317 116.973 53.3567 117.35C53.6818 117.727 54.0802 118.021 54.5521 118.231C55.0344 118.44 55.6006 118.545 56.2507 118.545C57.1734 118.545 57.9388 118.315 58.547 117.853C59.1551 117.392 59.5483 116.705 59.7266 115.793ZM62.0561 115.809H60.7192C60.7401 116.312 60.845 116.742 61.0337 117.098C61.2225 117.444 61.4741 117.727 61.7887 117.948C62.1032 118.157 62.465 118.309 62.8739 118.404C63.2828 118.498 63.7127 118.545 64.1636 118.545C64.5726 118.545 64.9815 118.503 65.3904 118.42C65.8098 118.346 66.1821 118.21 66.5071 118.011C66.8426 117.811 67.11 117.549 67.3092 117.224C67.5189 116.899 67.6238 116.49 67.6238 115.997C67.6238 115.609 67.5452 115.284 67.3879 115.022C67.2411 114.76 67.0419 114.545 66.7902 114.377C66.549 114.199 66.2659 114.058 65.9409 113.953C65.6263 113.848 65.3013 113.759 64.9658 113.685C64.6512 113.612 64.3366 113.544 64.0221 113.481C63.7075 113.408 63.4244 113.324 63.1728 113.229C62.9211 113.124 62.7114 112.999 62.5436 112.852C62.3863 112.695 62.3077 112.501 62.3077 112.27C62.3077 112.06 62.3601 111.892 62.465 111.767C62.5698 111.63 62.7062 111.525 62.8739 111.452C63.0417 111.368 63.2252 111.31 63.4244 111.279C63.6341 111.248 63.8386 111.232 64.0378 111.232C64.258 111.232 64.4729 111.258 64.6826 111.31C64.9028 111.352 65.1021 111.426 65.2803 111.531C65.4586 111.635 65.6054 111.777 65.7207 111.955C65.836 112.123 65.9042 112.338 65.9252 112.6H67.262C67.2306 112.107 67.1257 111.698 66.9475 111.373C66.7692 111.038 66.5281 110.776 66.224 110.587C65.9304 110.388 65.5896 110.251 65.2017 110.178C64.8137 110.094 64.3891 110.052 63.9277 110.052C63.5712 110.052 63.2095 110.099 62.8425 110.194C62.486 110.278 62.1609 110.414 61.8673 110.603C61.5842 110.781 61.3483 111.017 61.1596 111.31C60.9813 111.604 60.8922 111.955 60.8922 112.364C60.8922 112.888 61.0233 113.297 61.2854 113.591C61.5475 113.885 61.8726 114.115 62.2605 114.283C62.659 114.44 63.0889 114.566 63.5502 114.661C64.0116 114.744 64.4362 114.844 64.8242 114.959C65.2226 115.064 65.5529 115.206 65.8151 115.384C66.0772 115.562 66.2083 115.824 66.2083 116.17C66.2083 116.422 66.1454 116.632 66.0195 116.8C65.8937 116.957 65.7312 117.077 65.532 117.161C65.3432 117.245 65.1335 117.303 64.9028 117.334C64.6722 117.366 64.452 117.381 64.2423 117.381C63.9696 117.381 63.7023 117.355 63.4401 117.303C63.1885 117.25 62.9578 117.167 62.7481 117.051C62.5489 116.925 62.3863 116.763 62.2605 116.564C62.1347 116.354 62.0665 116.102 62.0561 115.809ZM74.7486 113.528H70.0774C70.0983 113.214 70.1665 112.92 70.2818 112.647C70.3972 112.364 70.5545 112.118 70.7537 111.908C70.9529 111.698 71.1888 111.536 71.4614 111.421C71.7445 111.295 72.0591 111.232 72.4051 111.232C72.7407 111.232 73.0447 111.295 73.3174 111.421C73.6005 111.536 73.8416 111.698 74.0408 111.908C74.2505 112.107 74.4131 112.348 74.5284 112.632C74.6542 112.915 74.7276 113.214 74.7486 113.528ZM76.0383 115.793H74.7171C74.6018 116.328 74.3606 116.726 73.9937 116.988C73.6372 117.25 73.1758 117.381 72.6096 117.381C72.1692 117.381 71.7865 117.308 71.4614 117.161C71.1364 117.014 70.869 116.821 70.6593 116.579C70.4496 116.328 70.2976 116.045 70.2032 115.73C70.1088 115.405 70.0669 115.064 70.0774 114.708H76.1641C76.1851 114.215 76.1379 113.696 76.0226 113.151C75.9177 112.605 75.7185 112.102 75.4249 111.641C75.1418 111.179 74.7591 110.802 74.2768 110.508C73.8049 110.204 73.2073 110.052 72.4838 110.052C71.928 110.052 71.4143 110.157 70.9424 110.367C70.4811 110.576 70.0774 110.87 69.7314 111.248C69.3958 111.625 69.1337 112.071 68.9449 112.584C68.7562 113.098 68.6618 113.664 68.6618 114.283C68.6828 114.902 68.7719 115.473 68.9292 115.997C69.097 116.522 69.3434 116.973 69.6684 117.35C69.9935 117.727 70.3919 118.021 70.8638 118.231C71.3461 118.44 71.9123 118.545 72.5624 118.545C73.4851 118.545 74.2505 118.315 74.8587 117.853C75.4669 117.392 75.8601 116.705 76.0383 115.793ZM84.7534 118.341C84.5227 118.477 84.2029 118.545 83.794 118.545C83.4479 118.545 83.1701 118.451 82.9604 118.262C82.7611 118.063 82.6615 117.743 82.6615 117.303C82.2945 117.743 81.8646 118.063 81.3718 118.262C80.8895 118.451 80.3652 118.545 79.799 118.545C79.432 118.545 79.0808 118.503 78.7452 118.42C78.4202 118.336 78.1371 118.205 77.8959 118.026C77.6548 117.848 77.4608 117.617 77.314 117.334C77.1777 117.041 77.1095 116.689 77.1095 116.281C77.1095 115.819 77.1882 115.442 77.3455 115.148C77.5027 114.855 77.7072 114.619 77.9588 114.44C78.221 114.252 78.5146 114.11 78.8396 114.016C79.1751 113.921 79.5159 113.843 79.8619 113.78C80.2289 113.706 80.5749 113.654 80.9 113.622C81.2355 113.581 81.5291 113.528 81.7808 113.465C82.0324 113.392 82.2316 113.292 82.3784 113.166C82.5252 113.03 82.5986 112.836 82.5986 112.584C82.5986 112.291 82.541 112.055 82.4256 111.877C82.3208 111.698 82.1792 111.562 82.001 111.468C81.8332 111.373 81.6392 111.31 81.419 111.279C81.2093 111.248 80.9996 111.232 80.7899 111.232C80.2237 111.232 79.7518 111.342 79.3744 111.562C78.9969 111.772 78.7924 112.175 78.761 112.773H77.4241C77.4451 112.27 77.5499 111.845 77.7387 111.499C77.9274 111.153 78.179 110.875 78.4936 110.666C78.8082 110.445 79.1647 110.288 79.5631 110.194C79.972 110.099 80.4072 110.052 80.8685 110.052C81.2355 110.052 81.5973 110.078 81.9538 110.131C82.3208 110.183 82.651 110.293 82.9446 110.461C83.2382 110.618 83.4742 110.844 83.6524 111.137C83.8307 111.431 83.9198 111.814 83.9198 112.286V116.469C83.9198 116.784 83.9355 117.014 83.967 117.161C84.0089 117.308 84.1347 117.381 84.3444 117.381C84.4598 117.381 84.5961 117.355 84.7534 117.303V118.341ZM82.5829 114.173C82.4151 114.299 82.1949 114.393 81.9223 114.456C81.6497 114.508 81.3613 114.556 81.0573 114.598C80.7637 114.629 80.4648 114.671 80.1608 114.723C79.8567 114.765 79.5841 114.839 79.3429 114.944C79.1018 115.048 78.9025 115.201 78.7452 115.4C78.5985 115.588 78.5251 115.851 78.5251 116.186C78.5251 116.406 78.567 116.595 78.6509 116.752C78.7452 116.899 78.8606 117.02 78.9969 117.114C79.1437 117.208 79.3115 117.277 79.5002 117.319C79.6889 117.361 79.8882 117.381 80.0979 117.381C80.5382 117.381 80.9157 117.324 81.2303 117.208C81.5448 117.083 81.8017 116.931 82.001 116.752C82.2002 116.564 82.347 116.364 82.4413 116.155C82.5357 115.934 82.5829 115.73 82.5829 115.541V114.173ZM85.9504 110.241V118.372H87.2873V114.755C87.2873 114.231 87.3397 113.769 87.4446 113.371C87.5494 112.962 87.7172 112.616 87.9479 112.333C88.1786 112.05 88.4826 111.835 88.8601 111.688C89.2376 111.541 89.6937 111.468 90.2285 111.468V110.052C89.505 110.031 88.9073 110.178 88.4355 110.493C87.9636 110.807 87.5652 111.295 87.2401 111.955H87.2087V110.241H85.9504ZM96.4792 112.852H97.8633C97.8109 112.369 97.6851 111.955 97.4858 111.609C97.2866 111.253 97.0297 110.959 96.7152 110.729C96.4111 110.498 96.0546 110.33 95.6457 110.225C95.2472 110.11 94.8173 110.052 94.356 110.052C93.7164 110.052 93.1554 110.168 92.6731 110.398C92.1907 110.618 91.787 110.928 91.462 111.326C91.1474 111.714 90.9115 112.175 90.7542 112.71C90.597 113.235 90.5183 113.801 90.5183 114.409C90.5183 115.017 90.597 115.578 90.7542 116.092C90.922 116.595 91.1632 117.03 91.4777 117.397C91.8028 117.764 92.2012 118.047 92.6731 118.247C93.1554 118.446 93.7059 118.545 94.3245 118.545C95.3626 118.545 96.1804 118.273 96.7781 117.727C97.3862 117.182 97.7637 116.406 97.9105 115.4H96.5422C96.4583 116.029 96.2276 116.516 95.8501 116.862C95.4831 117.208 94.9694 117.381 94.3088 117.381C93.8894 117.381 93.5276 117.298 93.2235 117.13C92.9195 116.962 92.6731 116.742 92.4843 116.469C92.2956 116.186 92.154 115.866 92.0597 115.51C91.9758 115.153 91.9338 114.786 91.9338 114.409C91.9338 114 91.9758 113.607 92.0597 113.229C92.1435 112.841 92.2799 112.501 92.4686 112.207C92.6678 111.913 92.9299 111.677 93.255 111.499C93.58 111.321 93.9837 111.232 94.4661 111.232C95.0323 111.232 95.4831 111.373 95.8187 111.656C96.1542 111.94 96.3744 112.338 96.4792 112.852ZM99.4064 107.143V118.372H100.743V113.78C100.743 113.413 100.79 113.077 100.885 112.773C100.99 112.459 101.142 112.186 101.341 111.955C101.54 111.725 101.787 111.546 102.08 111.421C102.384 111.295 102.741 111.232 103.15 111.232C103.663 111.232 104.067 111.379 104.361 111.672C104.654 111.966 104.801 112.364 104.801 112.868V118.372H106.138V113.025C106.138 112.584 106.091 112.186 105.996 111.829C105.913 111.462 105.761 111.148 105.54 110.886C105.32 110.624 105.032 110.419 104.675 110.272C104.319 110.126 103.873 110.052 103.338 110.052C103.097 110.052 102.846 110.078 102.583 110.131C102.332 110.183 102.085 110.267 101.844 110.382C101.614 110.487 101.404 110.629 101.215 110.807C101.026 110.975 100.88 111.185 100.775 111.436H100.743V107.143H99.4064Z" fill="white"/>
<path d="M98.1051 76.2594L80.2389 52.4504V39.6064L84.3974 34.4011C85.1983 33.3847 84.4898 31.9062 83.1961 31.9062H64.9602C63.6664 31.9062 62.9579 33.3847 63.7588 34.4011L67.9174 39.6064V52.4504L50.0511 76.2594C48.5417 78.2922 49.9895 81.1875 52.5154 81.1875H95.6408C98.1668 81.1875 99.6145 78.2922 98.1051 76.2594Z" fill="white"/>
</svg>
