<svg width="148" height="148" viewBox="0 0 148 148" fill="none" xmlns="http://www.w3.org/2000/svg">
<rect x="0.786403" y="0.786403" width="146.271" height="146.271" fill="#650190" stroke="#650190" stroke-width="1.57281"/>
<path d="M31.8926 103.063V95.9665H30.4142V103.063C30.4142 104.059 30.1652 104.816 29.6672 105.335C29.1796 105.843 28.4637 106.098 27.5196 106.098C26.5236 106.098 25.761 105.843 25.2319 105.335C24.7028 104.816 24.4382 104.059 24.4382 103.063V95.9665H22.9598V103.063C22.9598 104.547 23.3592 105.631 24.1581 106.316C24.9673 106.99 26.0878 107.327 27.5196 107.327C28.9202 107.327 29.9992 106.974 30.7566 106.269C31.5139 105.553 31.8926 104.484 31.8926 103.063ZM34.0353 99.0323V107.078H35.3581V102.534C35.3581 102.171 35.4048 101.839 35.4982 101.538C35.6019 101.227 35.7523 100.957 35.9495 100.729C36.1466 100.5 36.3904 100.324 36.6809 100.199C36.9818 100.075 37.3345 100.013 37.7392 100.013C38.2475 100.013 38.647 100.158 38.9375 100.448C39.228 100.739 39.3732 101.133 39.3732 101.631V107.078H40.696V101.787C40.696 101.351 40.6493 100.957 40.556 100.604C40.473 100.241 40.3225 99.9297 40.1047 99.6704C39.8868 99.411 39.6015 99.2087 39.2487 99.0634C38.896 98.9182 38.455 98.8456 37.9259 98.8456C36.7328 98.8456 35.8613 99.3332 35.3114 100.308H35.2803V99.0323H34.0353ZM43.6477 103.125C43.6477 102.731 43.6892 102.347 43.7722 101.974C43.8552 101.6 43.99 101.268 44.1768 100.978C44.3635 100.687 44.6125 100.454 44.9238 100.277C45.235 100.101 45.6137 100.013 46.0599 100.013C46.5164 100.013 46.9054 100.101 47.227 100.277C47.5487 100.443 47.808 100.666 48.0052 100.946C48.2127 101.227 48.3631 101.553 48.4565 101.927C48.5499 102.29 48.5965 102.669 48.5965 103.063C48.5965 103.436 48.5499 103.805 48.4565 104.168C48.3735 104.531 48.2334 104.858 48.0363 105.148C47.8392 105.428 47.585 105.657 47.2737 105.833C46.9625 106.009 46.5838 106.098 46.1377 106.098C45.7123 106.098 45.3388 106.015 45.0172 105.849C44.7059 105.683 44.4465 105.46 44.239 105.179C44.0419 104.899 43.8915 104.583 43.7877 104.23C43.6944 103.867 43.6477 103.499 43.6477 103.125ZM49.8727 107.078V95.9665H48.5499V100.106H48.5187C48.3735 99.8675 48.1919 99.6704 47.974 99.5147C47.7665 99.3487 47.5435 99.2191 47.3049 99.1257C47.0662 99.0219 46.8276 98.9493 46.589 98.9078C46.3504 98.8663 46.1273 98.8456 45.9198 98.8456C45.3077 98.8456 44.7682 98.9597 44.3013 99.1879C43.8448 99.4058 43.4609 99.7067 43.1497 100.091C42.8488 100.464 42.6205 100.905 42.4649 101.413C42.3197 101.922 42.247 102.461 42.247 103.032C42.247 103.602 42.3249 104.142 42.4805 104.65C42.6361 105.159 42.8644 105.605 43.1652 105.989C43.4765 106.373 43.8604 106.679 44.3169 106.907C44.7837 107.135 45.3284 107.249 45.9509 107.249C46.5112 107.249 47.0247 107.151 47.4916 106.954C47.9585 106.756 48.3009 106.435 48.5187 105.989H48.5499V107.078H49.8727ZM57.4948 102.285H52.8727C52.8935 101.974 52.9609 101.683 53.075 101.413C53.1891 101.133 53.3448 100.889 53.5419 100.682C53.739 100.474 53.9725 100.314 54.2422 100.199C54.5223 100.075 54.8336 100.013 55.176 100.013C55.508 100.013 55.8088 100.075 56.0786 100.199C56.3587 100.314 56.5973 100.474 56.7945 100.682C57.002 100.879 57.1628 101.118 57.2769 101.398C57.4014 101.678 57.474 101.974 57.4948 102.285ZM58.7709 104.526H57.4636C57.3495 105.055 57.1109 105.449 56.7478 105.709C56.395 105.968 55.9385 106.098 55.3783 106.098C54.9425 106.098 54.5638 106.025 54.2422 105.88C53.9206 105.735 53.656 105.543 53.4485 105.304C53.241 105.055 53.0906 104.775 52.9972 104.464C52.9038 104.142 52.8623 103.805 52.8727 103.452H58.8954C58.9161 102.964 58.8695 102.451 58.7553 101.911C58.6516 101.372 58.4545 100.874 58.164 100.417C57.8838 99.9609 57.5051 99.5874 57.0279 99.2969C56.561 98.996 55.9696 98.8456 55.2538 98.8456C54.7039 98.8456 54.1955 98.9493 53.7286 99.1568C53.2721 99.3643 52.8727 99.6548 52.5303 100.028C52.1983 100.402 51.939 100.843 51.7522 101.351C51.5655 101.859 51.4721 102.42 51.4721 103.032C51.4928 103.644 51.581 104.209 51.7366 104.728C51.9026 105.247 52.1465 105.693 52.4681 106.067C52.7897 106.44 53.184 106.731 53.6508 106.938C54.1281 107.146 54.6883 107.249 55.3316 107.249C56.2446 107.249 57.002 107.021 57.6037 106.565C58.2055 106.108 58.5945 105.428 58.7709 104.526ZM60.2199 99.0323V107.078H61.5427V103.499C61.5427 102.98 61.5946 102.523 61.6983 102.129C61.8021 101.725 61.9681 101.382 62.1963 101.102C62.4246 100.822 62.7255 100.609 63.099 100.464C63.4725 100.319 63.9238 100.246 64.4529 100.246V98.8456C63.737 98.8248 63.1457 98.9701 62.6788 99.2813C62.2119 99.5926 61.8177 100.075 61.496 100.729H61.4649V99.0323H60.2199ZM71.9492 106.393V99.0323H70.7042V100.184H70.6886C70.45 99.7378 70.118 99.4058 69.6926 99.1879C69.2672 98.9597 68.8004 98.8456 68.292 98.8456C67.5969 98.8456 67.0107 98.9804 66.5334 99.2502C66.0562 99.5096 65.6723 99.8467 65.3818 100.262C65.0913 100.666 64.8838 101.123 64.7593 101.631C64.6348 102.129 64.5725 102.617 64.5725 103.094C64.5725 103.644 64.6452 104.168 64.7904 104.666C64.946 105.154 65.1743 105.584 65.4752 105.958C65.776 106.321 66.1495 106.611 66.5957 106.829C67.0418 107.047 67.5657 107.156 68.1675 107.156C68.6862 107.156 69.1739 107.042 69.6304 106.814C70.0972 106.575 70.4448 106.207 70.673 105.709H70.7042V106.238C70.7042 106.684 70.6575 107.094 70.5641 107.467C70.4811 107.841 70.341 108.157 70.1439 108.417C69.9468 108.686 69.6978 108.894 69.3969 109.039C69.096 109.195 68.7277 109.272 68.292 109.272C68.0741 109.272 67.8459 109.247 67.6072 109.195C67.3686 109.153 67.1455 109.081 66.938 108.977C66.7409 108.873 66.5697 108.738 66.4245 108.572C66.2896 108.406 66.217 108.204 66.2066 107.965H64.8838C64.9045 108.401 65.0187 108.769 65.2262 109.07C65.4337 109.371 65.693 109.615 66.0043 109.802C66.3259 109.988 66.6787 110.123 67.0625 110.206C67.4568 110.289 67.8407 110.331 68.2142 110.331C69.5007 110.331 70.4448 110.004 71.0465 109.35C71.6483 108.697 71.9492 107.711 71.9492 106.393ZM68.2453 106.004C67.8095 106.004 67.4464 105.916 67.1559 105.74C66.8654 105.553 66.632 105.314 66.4556 105.024C66.2792 104.723 66.1547 104.391 66.0821 104.028C66.0095 103.665 65.9732 103.302 65.9732 102.938C65.9732 102.555 66.0147 102.186 66.0977 101.834C66.191 101.481 66.3311 101.17 66.5179 100.9C66.715 100.63 66.964 100.417 67.2649 100.262C67.5657 100.096 67.9289 100.013 68.3542 100.013C68.7692 100.013 69.122 100.096 69.4125 100.262C69.703 100.428 69.9364 100.651 70.1128 100.931C70.2995 101.201 70.4344 101.507 70.5174 101.849C70.6004 102.191 70.6419 102.539 70.6419 102.892C70.6419 103.265 70.5952 103.639 70.5019 104.012C70.4189 104.386 70.284 104.723 70.0972 105.024C69.9105 105.314 69.6615 105.553 69.3502 105.74C69.0494 105.916 68.681 106.004 68.2453 106.004ZM73.8979 99.0323V107.078H75.2207V103.499C75.2207 102.98 75.2726 102.523 75.3763 102.129C75.4801 101.725 75.6461 101.382 75.8743 101.102C76.1026 100.822 76.4035 100.609 76.777 100.464C77.1505 100.319 77.6018 100.246 78.1309 100.246V98.8456C77.415 98.8248 76.8236 98.9701 76.3568 99.2813C75.8899 99.5926 75.4956 100.075 75.174 100.729H75.1429V99.0323H73.8979ZM86.2546 107.047C86.0264 107.182 85.7099 107.249 85.3053 107.249C84.9629 107.249 84.688 107.156 84.4805 106.969C84.2834 106.772 84.1848 106.456 84.1848 106.02C83.8217 106.456 83.3963 106.772 82.9087 106.969C82.4314 107.156 81.9127 107.249 81.3524 107.249C80.9893 107.249 80.6418 107.208 80.3098 107.125C79.9881 107.042 79.708 106.912 79.4694 106.736C79.2308 106.559 79.0388 106.331 78.8936 106.051C78.7587 105.76 78.6913 105.413 78.6913 105.008C78.6913 104.552 78.7691 104.178 78.9247 103.888C79.0803 103.597 79.2826 103.364 79.5316 103.188C79.791 103.001 80.0815 102.861 80.4031 102.767C80.7351 102.674 81.0723 102.596 81.4147 102.534C81.7778 102.461 82.1202 102.409 82.4418 102.378C82.7738 102.337 83.0643 102.285 83.3133 102.223C83.5623 102.15 83.7594 102.051 83.9047 101.927C84.0499 101.792 84.1226 101.6 84.1226 101.351C84.1226 101.061 84.0655 100.827 83.9514 100.651C83.8476 100.474 83.7076 100.34 83.5312 100.246C83.3652 100.153 83.1733 100.091 82.9554 100.059C82.7479 100.028 82.5404 100.013 82.3329 100.013C81.7726 100.013 81.3058 100.122 80.9323 100.34C80.5588 100.547 80.3564 100.946 80.3253 101.538H79.0025C79.0233 101.04 79.127 100.62 79.3138 100.277C79.5005 99.9349 79.7495 99.66 80.0608 99.4525C80.372 99.2346 80.7248 99.079 81.119 98.9856C81.5236 98.8922 81.9542 98.8456 82.4107 98.8456C82.7738 98.8456 83.1318 98.8715 83.4845 98.9234C83.8476 98.9752 84.1744 99.0842 84.4649 99.2502C84.7554 99.4058 84.9889 99.6289 85.1653 99.9194C85.3416 100.21 85.4298 100.589 85.4298 101.055V105.195C85.4298 105.506 85.4454 105.735 85.4765 105.88C85.518 106.025 85.6425 106.098 85.85 106.098C85.9641 106.098 86.099 106.072 86.2546 106.02V107.047ZM84.107 102.923C83.941 103.047 83.7231 103.141 83.4534 103.203C83.1836 103.255 82.8983 103.302 82.5974 103.343C82.3069 103.374 82.0113 103.416 81.7104 103.468C81.4095 103.509 81.1398 103.582 80.9011 103.685C80.6625 103.789 80.4654 103.94 80.3098 104.137C80.1645 104.324 80.0919 104.583 80.0919 104.915C80.0919 105.133 80.1334 105.32 80.2164 105.475C80.3098 105.62 80.4239 105.74 80.5588 105.833C80.704 105.926 80.87 105.994 81.0568 106.035C81.2435 106.077 81.4406 106.098 81.6481 106.098C82.0839 106.098 82.4574 106.041 82.7686 105.926C83.0799 105.802 83.3341 105.652 83.5312 105.475C83.7283 105.288 83.8736 105.091 83.9669 104.884C84.0603 104.666 84.107 104.464 84.107 104.277V102.923ZM88.4507 103.125C88.4507 102.731 88.4922 102.347 88.5752 101.974C88.6582 101.6 88.793 101.268 88.9798 100.978C89.1665 100.687 89.4155 100.454 89.7268 100.277C90.038 100.101 90.4167 100.013 90.8628 100.013C91.3193 100.013 91.7084 100.101 92.03 100.277C92.3517 100.443 92.611 100.666 92.8082 100.946C93.0157 101.227 93.1661 101.553 93.2595 101.927C93.3528 102.29 93.3995 102.669 93.3995 103.063C93.3995 103.436 93.3528 103.805 93.2595 104.168C93.1765 104.531 93.0364 104.858 92.8393 105.148C92.6422 105.428 92.388 105.657 92.0767 105.833C91.7655 106.009 91.3868 106.098 90.9407 106.098C90.5153 106.098 90.1418 106.015 89.8202 105.849C89.5089 105.683 89.2495 105.46 89.042 105.179C88.8449 104.899 88.6945 104.583 88.5907 104.23C88.4973 103.867 88.4507 103.499 88.4507 103.125ZM94.6757 107.078V95.9665H93.3528V100.106H93.3217C93.1765 99.8675 92.9949 99.6704 92.777 99.5147C92.5695 99.3487 92.3465 99.2191 92.1078 99.1257C91.8692 99.0219 91.6306 98.9493 91.392 98.9078C91.1533 98.8663 90.9303 98.8456 90.7228 98.8456C90.1107 98.8456 89.5712 98.9597 89.1043 99.1879C88.6478 99.4058 88.2639 99.7067 87.9527 100.091C87.6518 100.464 87.4235 100.905 87.2679 101.413C87.1227 101.922 87.05 102.461 87.05 103.032C87.05 103.602 87.1278 104.142 87.2835 104.65C87.4391 105.159 87.6673 105.605 87.9682 105.989C88.2795 106.373 88.6633 106.679 89.1198 106.907C89.5867 107.135 90.1314 107.249 90.7539 107.249C91.3142 107.249 91.8277 107.151 92.2946 106.954C92.7615 106.756 93.1038 106.435 93.3217 105.989H93.3528V107.078H94.6757ZM103.372 107.078V99.0323H102.049V103.577C102.049 103.94 101.997 104.277 101.893 104.588C101.8 104.889 101.655 105.154 101.457 105.382C101.26 105.61 101.011 105.786 100.71 105.911C100.42 106.035 100.072 106.098 99.6677 106.098C99.1593 106.098 98.7599 105.952 98.4694 105.662C98.1789 105.371 98.0336 104.977 98.0336 104.479V99.0323H96.7108V104.324C96.7108 104.759 96.7523 105.159 96.8353 105.522C96.9287 105.875 97.0843 106.181 97.3022 106.44C97.5201 106.699 97.8054 106.902 98.1581 107.047C98.5109 107.182 98.9518 107.249 99.4809 107.249C100.072 107.249 100.586 107.135 101.022 106.907C101.457 106.668 101.815 106.3 102.095 105.802H102.127V107.078H103.372ZM112.486 107.047C112.258 107.182 111.941 107.249 111.537 107.249C111.194 107.249 110.919 107.156 110.712 106.969C110.515 106.772 110.416 106.456 110.416 106.02C110.053 106.456 109.628 106.772 109.14 106.969C108.663 107.156 108.144 107.249 107.584 107.249C107.221 107.249 106.873 107.208 106.541 107.125C106.219 107.042 105.939 106.912 105.701 106.736C105.462 106.559 105.27 106.331 105.125 106.051C104.99 105.76 104.923 105.413 104.923 105.008C104.923 104.552 105 104.178 105.156 103.888C105.312 103.597 105.514 103.364 105.763 103.188C106.022 103.001 106.313 102.861 106.634 102.767C106.966 102.674 107.304 102.596 107.646 102.534C108.009 102.461 108.352 102.409 108.673 102.378C109.005 102.337 109.296 102.285 109.545 102.223C109.794 102.15 109.991 102.051 110.136 101.927C110.281 101.792 110.354 101.6 110.354 101.351C110.354 101.061 110.297 100.827 110.183 100.651C110.079 100.474 109.939 100.34 109.763 100.246C109.597 100.153 109.405 100.091 109.187 100.059C108.979 100.028 108.772 100.013 108.564 100.013C108.004 100.013 107.537 100.122 107.164 100.34C106.79 100.547 106.588 100.946 106.557 101.538H105.234C105.255 101.04 105.358 100.62 105.545 100.277C105.732 99.9349 105.981 99.66 106.292 99.4525C106.603 99.2346 106.956 99.079 107.35 98.9856C107.755 98.8922 108.186 98.8456 108.642 98.8456C109.005 98.8456 109.363 98.8715 109.716 98.9234C110.079 98.9752 110.406 99.0842 110.696 99.2502C110.987 99.4058 111.22 99.6289 111.397 99.9194C111.573 100.21 111.661 100.589 111.661 101.055V105.195C111.661 105.506 111.677 105.735 111.708 105.88C111.749 106.025 111.874 106.098 112.081 106.098C112.195 106.098 112.33 106.072 112.486 106.02V107.047ZM110.338 102.923C110.172 103.047 109.954 103.141 109.685 103.203C109.415 103.255 109.13 103.302 108.829 103.343C108.538 103.374 108.243 103.416 107.942 103.468C107.641 103.509 107.371 103.582 107.132 103.685C106.894 103.789 106.697 103.94 106.541 104.137C106.396 104.324 106.323 104.583 106.323 104.915C106.323 105.133 106.365 105.32 106.448 105.475C106.541 105.62 106.655 105.74 106.79 105.833C106.935 105.926 107.101 105.994 107.288 106.035C107.475 106.077 107.672 106.098 107.879 106.098C108.315 106.098 108.689 106.041 109 105.926C109.311 105.802 109.565 105.652 109.763 105.475C109.96 105.288 110.105 105.091 110.198 104.884C110.292 104.666 110.338 104.464 110.338 104.277V102.923ZM115.553 99.0323V96.6201H114.231V99.0323H112.861V100.199H114.231V105.32C114.231 105.693 114.267 105.994 114.34 106.222C114.412 106.45 114.521 106.627 114.666 106.751C114.822 106.876 115.019 106.964 115.258 107.016C115.507 107.057 115.802 107.078 116.145 107.078H117.156V105.911H116.549C116.342 105.911 116.171 105.906 116.036 105.895C115.911 105.875 115.813 105.838 115.74 105.786C115.668 105.735 115.616 105.662 115.585 105.569C115.564 105.475 115.553 105.351 115.553 105.195V100.199H117.156V99.0323H115.553ZM124.213 102.285H119.591C119.612 101.974 119.679 101.683 119.793 101.413C119.907 101.133 120.063 100.889 120.26 100.682C120.457 100.474 120.691 100.314 120.96 100.199C121.24 100.075 121.552 100.013 121.894 100.013C122.226 100.013 122.527 100.075 122.797 100.199C123.077 100.314 123.315 100.474 123.513 100.682C123.72 100.879 123.881 101.118 123.995 101.398C124.12 101.678 124.192 101.974 124.213 102.285ZM125.489 104.526H124.182C124.068 105.055 123.829 105.449 123.466 105.709C123.113 105.968 122.657 106.098 122.096 106.098C121.661 106.098 121.282 106.025 120.96 105.88C120.639 105.735 120.374 105.543 120.167 105.304C119.959 105.055 119.809 104.775 119.715 104.464C119.622 104.142 119.58 103.805 119.591 103.452H125.614C125.634 102.964 125.588 102.451 125.473 101.911C125.37 101.372 125.173 100.874 124.882 100.417C124.602 99.9609 124.223 99.5874 123.746 99.2969C123.279 98.996 122.688 98.8456 121.972 98.8456C121.422 98.8456 120.914 98.9493 120.447 99.1568C119.99 99.3643 119.591 99.6548 119.248 100.028C118.916 100.402 118.657 100.843 118.47 101.351C118.284 101.859 118.19 102.42 118.19 103.032C118.211 103.644 118.299 104.209 118.455 104.728C118.621 105.247 118.865 105.693 119.186 106.067C119.508 106.44 119.902 106.731 120.369 106.938C120.846 107.146 121.406 107.249 122.05 107.249C122.963 107.249 123.72 107.021 124.322 106.565C124.924 106.108 125.313 105.428 125.489 104.526ZM36.8208 121.487L38.7039 116.305H38.735L40.587 121.487H36.8208ZM37.9258 114.966L33.5994 126.078H35.109L36.354 122.732H41.0538L42.2677 126.078H43.9018L39.5598 114.966H37.9258ZM45.745 122.125C45.745 121.731 45.7865 121.347 45.8695 120.974C45.9525 120.6 46.0873 120.268 46.2741 119.978C46.4608 119.687 46.7098 119.454 47.0211 119.277C47.3323 119.101 47.711 119.013 48.1572 119.013C48.6137 119.013 49.0027 119.101 49.3243 119.277C49.646 119.443 49.9053 119.666 50.1025 119.946C50.31 120.227 50.4604 120.553 50.5538 120.927C50.6472 121.29 50.6938 121.669 50.6938 122.063C50.6938 122.436 50.6472 122.805 50.5538 123.168C50.4708 123.531 50.3307 123.858 50.1336 124.148C49.9365 124.428 49.6823 124.657 49.371 124.833C49.0598 125.009 48.6811 125.098 48.235 125.098C47.8096 125.098 47.4361 125.015 47.1145 124.849C46.8032 124.683 46.5438 124.46 46.3363 124.179C46.1392 123.899 45.9888 123.583 45.885 123.23C45.7917 122.867 45.745 122.499 45.745 122.125ZM51.97 126.078V114.966H50.6472V119.106H50.616C50.4708 118.867 50.2892 118.67 50.0713 118.515C49.8638 118.349 49.6408 118.219 49.4022 118.126C49.1635 118.022 48.9249 117.949 48.6863 117.908C48.4477 117.866 48.2246 117.846 48.0171 117.846C47.405 117.846 46.8655 117.96 46.3986 118.188C45.9421 118.406 45.5582 118.707 45.247 119.091C44.9461 119.464 44.7178 119.905 44.5622 120.413C44.417 120.922 44.3443 121.461 44.3443 122.032C44.3443 122.602 44.4222 123.142 44.5778 123.65C44.7334 124.159 44.9617 124.605 45.2625 124.989C45.5738 125.373 45.9577 125.679 46.4142 125.907C46.881 126.135 47.4257 126.249 48.0482 126.249C48.6085 126.249 49.122 126.151 49.5889 125.954C50.0558 125.756 50.3982 125.435 50.616 124.989H50.6472V126.078H51.97ZM54.0051 118.032V126.078H55.3279V121.067C55.3279 120.911 55.3642 120.719 55.4369 120.491C55.5199 120.253 55.6444 120.024 55.8104 119.806C55.9867 119.589 56.2098 119.402 56.4796 119.246C56.7597 119.091 57.0917 119.013 57.4756 119.013C57.7764 119.013 58.0203 119.059 58.207 119.153C58.4041 119.236 58.5598 119.36 58.6739 119.526C58.788 119.682 58.8658 119.869 58.9073 120.087C58.9592 120.304 58.9851 120.543 58.9851 120.802V126.078H60.3079V121.067C60.3079 120.444 60.4947 119.946 60.8682 119.573C61.2417 119.199 61.7553 119.013 62.4089 119.013C62.7305 119.013 62.9899 119.059 63.187 119.153C63.3945 119.246 63.5553 119.376 63.6694 119.542C63.7836 119.697 63.8614 119.884 63.9029 120.102C63.9444 120.32 63.9651 120.553 63.9651 120.802V126.078H65.2879V120.18C65.2879 119.765 65.2205 119.412 65.0856 119.122C64.9611 118.821 64.7796 118.577 64.5409 118.39C64.3127 118.203 64.0326 118.069 63.7006 117.986C63.3789 117.892 63.0158 117.846 62.6112 117.846C62.0821 117.846 61.5944 117.965 61.1483 118.203C60.7126 118.442 60.3598 118.779 60.0901 119.215C59.9241 118.717 59.6387 118.364 59.2341 118.157C58.8295 117.949 58.3782 117.846 57.8802 117.846C56.7493 117.846 55.883 118.302 55.2812 119.215H55.2501V118.032H54.0051ZM68.6734 116.585V114.966H67.3506V116.585H68.6734ZM67.3506 118.032V126.078H68.6734V118.032H67.3506ZM71.5319 123.541H70.2091C70.2298 124.039 70.3336 124.465 70.5203 124.818C70.7071 125.16 70.9561 125.44 71.2673 125.658C71.5786 125.865 71.9365 126.016 72.3412 126.109C72.7458 126.203 73.1712 126.249 73.6173 126.249C74.0219 126.249 74.4265 126.208 74.8312 126.125C75.2462 126.052 75.6145 125.917 75.9361 125.72C76.2681 125.523 76.5327 125.264 76.7298 124.942C76.9373 124.62 77.041 124.216 77.041 123.728C77.041 123.344 76.9632 123.023 76.8076 122.763C76.6623 122.504 76.4652 122.291 76.2162 122.125C75.9776 121.949 75.6975 121.809 75.3758 121.705C75.0646 121.601 74.743 121.513 74.411 121.44C74.0997 121.368 73.7885 121.3 73.4772 121.238C73.166 121.166 72.8858 121.083 72.6368 120.989C72.3878 120.885 72.1803 120.761 72.0143 120.616C71.8587 120.46 71.7809 120.268 71.7809 120.04C71.7809 119.832 71.8328 119.666 71.9365 119.542C72.0403 119.407 72.1752 119.303 72.3412 119.231C72.5072 119.148 72.6887 119.091 72.8858 119.059C73.0933 119.028 73.2957 119.013 73.4928 119.013C73.7107 119.013 73.9233 119.039 74.1308 119.091C74.3487 119.132 74.5458 119.205 74.7222 119.308C74.8986 119.412 75.0438 119.552 75.158 119.729C75.2721 119.895 75.3395 120.107 75.3603 120.367H76.6831C76.652 119.879 76.5482 119.474 76.3718 119.153C76.1955 118.821 75.9568 118.561 75.656 118.375C75.3655 118.178 75.0283 118.043 74.6444 117.97C74.2605 117.887 73.8403 117.846 73.3838 117.846C73.0311 117.846 72.6732 117.892 72.31 117.986C71.9573 118.069 71.6357 118.203 71.3452 118.39C71.065 118.567 70.8316 118.8 70.6448 119.091C70.4685 119.381 70.3803 119.729 70.3803 120.133C70.3803 120.652 70.51 121.057 70.7693 121.347C71.0287 121.638 71.3503 121.866 71.7342 122.032C72.1285 122.187 72.5538 122.312 73.0103 122.405C73.4668 122.488 73.887 122.587 74.2709 122.701C74.6652 122.805 74.992 122.945 75.2513 123.121C75.5107 123.298 75.6404 123.557 75.6404 123.899C75.6404 124.148 75.5782 124.356 75.4537 124.522C75.3292 124.677 75.1683 124.797 74.9712 124.88C74.7845 124.963 74.577 125.02 74.3487 125.051C74.1205 125.082 73.9026 125.098 73.6951 125.098C73.4253 125.098 73.1608 125.072 72.9014 125.02C72.6524 124.968 72.4242 124.885 72.2167 124.771C72.0195 124.646 71.8587 124.486 71.7342 124.288C71.6097 124.081 71.5423 123.832 71.5319 123.541ZM79.3132 123.541H77.9903C78.0111 124.039 78.1148 124.465 78.3016 124.818C78.4883 125.16 78.7373 125.44 79.0486 125.658C79.3598 125.865 79.7178 126.016 80.1224 126.109C80.527 126.203 80.9524 126.249 81.3985 126.249C81.8032 126.249 82.2078 126.208 82.6124 126.125C83.0274 126.052 83.3957 125.917 83.7173 125.72C84.0493 125.523 84.3139 125.264 84.511 124.942C84.7185 124.62 84.8223 124.216 84.8223 123.728C84.8223 123.344 84.7445 123.023 84.5888 122.763C84.4436 122.504 84.2465 122.291 83.9975 122.125C83.7588 121.949 83.4787 121.809 83.1571 121.705C82.8458 121.601 82.5242 121.513 82.1922 121.44C81.881 121.368 81.5697 121.3 81.2585 121.238C80.9472 121.166 80.6671 121.083 80.4181 120.989C80.1691 120.885 79.9616 120.761 79.7956 120.616C79.64 120.46 79.5622 120.268 79.5622 120.04C79.5622 119.832 79.614 119.666 79.7178 119.542C79.8215 119.407 79.9564 119.303 80.1224 119.231C80.2884 119.148 80.47 119.091 80.6671 119.059C80.8746 119.028 81.0769 119.013 81.274 119.013C81.4919 119.013 81.7046 119.039 81.9121 119.091C82.13 119.132 82.3271 119.205 82.5035 119.308C82.6798 119.412 82.8251 119.552 82.9392 119.729C83.0533 119.895 83.1208 120.107 83.1415 120.367H84.4643C84.4332 119.879 84.3295 119.474 84.1531 119.153C83.9767 118.821 83.7381 118.561 83.4372 118.375C83.1467 118.178 82.8095 118.043 82.4257 117.97C82.0418 117.887 81.6216 117.846 81.1651 117.846C80.8123 117.846 80.4544 117.892 80.0913 117.986C79.7385 118.069 79.4169 118.203 79.1264 118.39C78.8463 118.567 78.6128 118.8 78.4261 119.091C78.2497 119.381 78.1615 119.729 78.1615 120.133C78.1615 120.652 78.2912 121.057 78.5506 121.347C78.81 121.638 79.1316 121.866 79.5155 122.032C79.9097 122.187 80.3351 122.312 80.7916 122.405C81.2481 122.488 81.6683 122.587 82.0522 122.701C82.4464 122.805 82.7732 122.945 83.0326 123.121C83.292 123.298 83.4217 123.557 83.4217 123.899C83.4217 124.148 83.3594 124.356 83.2349 124.522C83.1104 124.677 82.9496 124.797 82.7525 124.88C82.5657 124.963 82.3582 125.02 82.13 125.051C81.9017 125.082 81.6838 125.098 81.4763 125.098C81.2066 125.098 80.942 125.072 80.6827 125.02C80.4337 124.968 80.2054 124.885 79.9979 124.771C79.8008 124.646 79.64 124.486 79.5155 124.288C79.391 124.081 79.3235 123.832 79.3132 123.541ZM87.6858 116.585V114.966H86.363V116.585H87.6858ZM86.363 118.032V126.078H87.6858V118.032H86.363ZM90.6999 122.063C90.6999 121.575 90.7622 121.145 90.8867 120.771C91.0215 120.387 91.2031 120.066 91.4314 119.806C91.6596 119.547 91.9242 119.35 92.225 119.215C92.5363 119.08 92.8631 119.013 93.2055 119.013C93.5479 119.013 93.8695 119.08 94.1704 119.215C94.4816 119.35 94.7514 119.547 94.9796 119.806C95.2079 120.066 95.3842 120.387 95.5087 120.771C95.6436 121.145 95.711 121.575 95.711 122.063C95.711 122.551 95.6436 122.986 95.5087 123.37C95.3842 123.744 95.2079 124.06 94.9796 124.32C94.7514 124.569 94.4816 124.76 94.1704 124.895C93.8695 125.03 93.5479 125.098 93.2055 125.098C92.8631 125.098 92.5363 125.03 92.225 124.895C91.9242 124.76 91.6596 124.569 91.4314 124.32C91.2031 124.06 91.0215 123.744 90.8867 123.37C90.7622 122.986 90.6999 122.551 90.6999 122.063ZM89.2993 122.063C89.2993 122.654 89.3823 123.204 89.5483 123.713C89.7143 124.221 89.9633 124.667 90.2953 125.051C90.6273 125.424 91.0371 125.72 91.5247 125.938C92.0124 126.146 92.5726 126.249 93.2055 126.249C93.8487 126.249 94.409 126.146 94.8862 125.938C95.3739 125.72 95.7837 125.424 96.1157 125.051C96.4477 124.667 96.6967 124.221 96.8627 123.713C97.0287 123.204 97.1117 122.654 97.1117 122.063C97.1117 121.472 97.0287 120.922 96.8627 120.413C96.6967 119.895 96.4477 119.448 96.1157 119.075C95.7837 118.691 95.3739 118.39 94.8862 118.172C94.409 117.954 93.8487 117.846 93.2055 117.846C92.5726 117.846 92.0124 117.954 91.5247 118.172C91.0371 118.39 90.6273 118.691 90.2953 119.075C89.9633 119.448 89.7143 119.895 89.5483 120.413C89.3823 120.922 89.2993 121.472 89.2993 122.063ZM98.6713 118.032V126.078H99.9941V121.534C99.9941 121.171 100.041 120.839 100.134 120.538C100.238 120.227 100.388 119.957 100.586 119.729C100.783 119.5 101.026 119.324 101.317 119.199C101.618 119.075 101.971 119.013 102.375 119.013C102.884 119.013 103.283 119.158 103.574 119.448C103.864 119.739 104.009 120.133 104.009 120.631V126.078H105.332V120.787C105.332 120.351 105.285 119.957 105.192 119.604C105.109 119.241 104.959 118.93 104.741 118.67C104.523 118.411 104.238 118.209 103.885 118.063C103.532 117.918 103.091 117.846 102.562 117.846C101.369 117.846 100.497 118.333 99.9474 119.308H99.9163V118.032H98.6713ZM108.128 123.541H106.805C106.826 124.039 106.93 124.465 107.117 124.818C107.303 125.16 107.552 125.44 107.864 125.658C108.175 125.865 108.533 126.016 108.937 126.109C109.342 126.203 109.767 126.249 110.213 126.249C110.618 126.249 111.023 126.208 111.427 126.125C111.842 126.052 112.211 125.917 112.532 125.72C112.864 125.523 113.129 125.264 113.326 124.942C113.533 124.62 113.637 124.216 113.637 123.728C113.637 123.344 113.559 123.023 113.404 122.763C113.259 122.504 113.061 122.291 112.812 122.125C112.574 121.949 112.294 121.809 111.972 121.705C111.661 121.601 111.339 121.513 111.007 121.44C110.696 121.368 110.385 121.3 110.073 121.238C109.762 121.166 109.482 121.083 109.233 120.989C108.984 120.885 108.777 120.761 108.611 120.616C108.455 120.46 108.377 120.268 108.377 120.04C108.377 119.832 108.429 119.666 108.533 119.542C108.636 119.407 108.771 119.303 108.937 119.231C109.103 119.148 109.285 119.091 109.482 119.059C109.69 119.028 109.892 119.013 110.089 119.013C110.307 119.013 110.52 119.039 110.727 119.091C110.945 119.132 111.142 119.205 111.318 119.308C111.495 119.412 111.64 119.552 111.754 119.729C111.868 119.895 111.936 120.107 111.956 120.367H113.279C113.248 119.879 113.144 119.474 112.968 119.153C112.792 118.821 112.553 118.561 112.252 118.375C111.962 118.178 111.624 118.043 111.241 117.97C110.857 117.887 110.437 117.846 109.98 117.846C109.627 117.846 109.269 117.892 108.906 117.986C108.553 118.069 108.232 118.203 107.941 118.39C107.661 118.567 107.428 118.8 107.241 119.091C107.065 119.381 106.976 119.729 106.976 120.133C106.976 120.652 107.106 121.057 107.366 121.347C107.625 121.638 107.947 121.866 108.33 122.032C108.725 122.187 109.15 122.312 109.607 122.405C110.063 122.488 110.483 122.587 110.867 122.701C111.261 122.805 111.588 122.945 111.848 123.121C112.107 123.298 112.237 123.557 112.237 123.899C112.237 124.148 112.174 124.356 112.05 124.522C111.925 124.677 111.765 124.797 111.567 124.88C111.381 124.963 111.173 125.02 110.945 125.051C110.717 125.082 110.499 125.098 110.291 125.098C110.022 125.098 109.757 125.072 109.498 125.02C109.249 124.968 109.02 124.885 108.813 124.771C108.616 124.646 108.455 124.486 108.33 124.288C108.206 124.081 108.138 123.832 108.128 123.541Z" fill="white"/>
<path d="M97.6906 27.2344H49.9656C46.6845 27.2344 44.0298 29.9335 44.0298 33.2324L44 69.2207C44 72.5196 46.6845 75.2188 49.9656 75.2188H97.6906C100.972 75.2188 103.656 72.5196 103.656 69.2207V33.2324C103.656 29.9335 100.972 27.2344 97.6906 27.2344ZM97.6906 39.2305L73.8281 54.2256L49.9656 39.2305V33.2324L73.8281 48.2275L97.6906 33.2324V39.2305Z" fill="white"/>
</svg>
