<svg width="30" height="30" viewBox="0 0 30 30" fill="none" xmlns="http://www.w3.org/2000/svg">
<path d="M8.54201 0.48645C4.09373 0.48645 0.48645 4.09373 0.48645 8.54201V21.4309C0.48645 25.8792 4.09373 29.4865 8.54201 29.4865H21.4309C25.8792 29.4865 29.4865 25.8792 29.4865 21.4309V8.54201C29.4865 4.09373 25.8792 0.48645 21.4309 0.48645H8.54201ZM24.6531 3.70867C25.5425 3.70867 26.2642 4.43045 26.2642 5.31978C26.2642 6.20912 25.5425 6.93089 24.6531 6.93089C23.7638 6.93089 23.042 6.20912 23.042 5.31978C23.042 4.43045 23.7638 3.70867 24.6531 3.70867ZM14.9865 6.93089C19.4347 6.93089 23.042 10.5382 23.042 14.9865C23.042 19.4347 19.4347 23.042 14.9865 23.042C10.5382 23.042 6.93089 19.4347 6.93089 14.9865C6.93089 10.5382 10.5382 6.93089 14.9865 6.93089ZM14.9865 10.1531C13.7046 10.1531 12.4752 10.6623 11.5688 11.5688C10.6623 12.4752 10.1531 13.7046 10.1531 14.9865C10.1531 16.2683 10.6623 17.4977 11.5688 18.4041C12.4752 19.3106 13.7046 19.8198 14.9865 19.8198C16.2683 19.8198 17.4977 19.3106 18.4041 18.4041C19.3106 17.4977 19.8198 16.2683 19.8198 14.9865C19.8198 13.7046 19.3106 12.4752 18.4041 11.5688C17.4977 10.6623 16.2683 10.1531 14.9865 10.1531Z" fill="#650190"/>
</svg>
