<svg width="36" height="28" viewBox="0 0 36 28" fill="none" xmlns="http://www.w3.org/2000/svg">
<path d="M35.1621 0.48645C33.8172 1.28023 31.1186 2.36203 29.5322 2.67405C29.4857 2.68605 29.4477 2.70148 29.4029 2.71348C28.001 1.33852 26.0801 0.48645 23.954 0.48645C19.6691 0.48645 16.1946 3.94101 16.1946 8.20134C16.1946 8.42593 16.1756 8.8391 16.1946 9.05855C10.4129 9.05855 6.01244 6.04803 2.85693 2.20087C2.51379 3.05808 2.36377 4.41247 2.36377 5.68457C2.36377 8.08647 4.25191 10.4455 7.19188 11.9079C6.65044 12.0468 6.05383 12.1462 5.43307 12.1462C4.43124 12.1462 3.37078 11.8839 2.39998 11.0884C2.39998 11.1176 2.39998 11.145 2.39998 11.1759C2.39998 14.5327 5.98313 16.818 9.16968 17.4541C8.52306 17.833 7.21947 17.8707 6.5832 17.8707C6.13487 17.8707 4.54849 17.6667 4.12431 17.5878C5.01061 20.3394 8.20751 21.8858 11.2544 21.9407C8.87137 23.7991 7.21775 24.4883 2.33791 24.4883H0.675659C3.75875 26.4531 7.68504 27.9189 11.6199 27.9189C24.4317 27.9189 31.7135 18.2101 31.7135 9.05855C31.7135 8.91111 31.7101 8.60251 31.7049 8.2922C31.7049 8.26134 31.7135 8.2322 31.7135 8.20134C31.7135 8.15505 31.6997 8.11048 31.6997 8.06419C31.6945 7.83102 31.6894 7.61329 31.6842 7.50014C33.0464 6.52292 34.2276 5.30397 35.1621 3.91529C33.912 4.46733 32.5705 4.83765 31.1617 5.00566C32.5998 4.14845 34.6431 2.10486 35.1621 0.48645Z" fill="#650190"/>
</svg>
