<svg width="33" height="27" viewBox="0 0 33 27" fill="none" xmlns="http://www.w3.org/2000/svg">
<path d="M32.0517 4.10098C31.6761 2.6967 30.5691 1.5896 29.1648 1.21404C26.6175 0.531494 16.4054 0.531494 16.4054 0.531494C16.4054 0.531494 6.19338 0.531494 3.64608 1.21404C2.2418 1.5896 1.13471 2.6967 0.759144 4.10098C0.0765991 6.64827 0.0765991 13.5946 0.0765991 13.5946C0.0765991 13.5946 0.0765991 20.5408 0.759144 23.0881C1.13471 24.4924 2.2418 25.5995 3.64608 25.9751C6.19338 26.6576 16.4054 26.6576 16.4054 26.6576C16.4054 26.6576 26.6175 26.6576 29.1648 25.9751C30.5707 25.5995 31.6761 24.4924 32.0517 23.0881C32.7343 20.5408 32.7343 13.5946 32.7343 13.5946C32.7343 13.5946 32.7343 6.64827 32.0517 4.10098ZM13.1397 19.2509V7.93825L22.937 13.5946L13.1397 19.2509Z" fill="#650190"/>
</svg>
