<svg width="148" height="148" viewBox="0 0 148 148" fill="none" xmlns="http://www.w3.org/2000/svg">
<rect x="0.786403" y="0.786403" width="146.271" height="146.271" fill="white" stroke="#650190" stroke-width="1.57281"/>
<path d="M43.9728 98.58V109.81H45.4669V104.667H50.6257V103.409H45.4669V99.8383H51.3492V98.58H43.9728ZM54.1995 100.216V98.58H52.8626V100.216H54.1995ZM52.8626 101.678V109.81H54.1995V101.678H52.8626ZM56.2705 101.678V109.81H57.6074V105.217C57.6074 104.85 57.6546 104.515 57.749 104.211C57.8538 103.896 58.0058 103.623 58.2051 103.393C58.4043 103.162 58.6507 102.984 58.9443 102.858C59.2484 102.732 59.6049 102.669 60.0138 102.669C60.5276 102.669 60.9313 102.816 61.2249 103.11C61.5184 103.403 61.6652 103.802 61.6652 104.305V109.81H63.0021V104.462C63.0021 104.022 62.9549 103.623 62.8606 103.267C62.7767 102.9 62.6247 102.585 62.4045 102.323C62.1843 102.061 61.8959 101.857 61.5394 101.71C61.1829 101.563 60.7373 101.49 60.2025 101.49C58.9967 101.49 58.1159 101.983 57.5602 102.968H57.5288V101.678H56.2705ZM72.2135 109.778C71.9828 109.915 71.663 109.983 71.2541 109.983C70.9081 109.983 70.6302 109.888 70.4205 109.7C70.2213 109.501 70.1217 109.181 70.1217 108.74C69.7547 109.181 69.3248 109.501 68.832 109.7C68.3496 109.888 67.8254 109.983 67.2591 109.983C66.8922 109.983 66.5409 109.941 66.2054 109.857C65.8803 109.773 65.5972 109.642 65.3561 109.464C65.1149 109.286 64.9209 109.055 64.7741 108.772C64.6378 108.478 64.5697 108.127 64.5697 107.718C64.5697 107.257 64.6483 106.879 64.8056 106.586C64.9629 106.292 65.1673 106.056 65.419 105.878C65.6811 105.689 65.9747 105.548 66.2997 105.453C66.6353 105.359 66.976 105.28 67.3221 105.217C67.689 105.144 68.0351 105.091 68.3601 105.06C68.6956 105.018 68.9892 104.966 69.2409 104.903C69.4925 104.829 69.6918 104.73 69.8386 104.604C69.9853 104.468 70.0587 104.274 70.0587 104.022C70.0587 103.728 70.0011 103.492 69.8857 103.314C69.7809 103.136 69.6393 103 69.4611 102.905C69.2933 102.811 69.0993 102.748 68.8791 102.716C68.6694 102.685 68.4597 102.669 68.25 102.669C67.6838 102.669 67.212 102.779 66.8345 103C66.457 103.209 66.2526 103.613 66.2211 104.211H64.8842C64.9052 103.707 65.01 103.283 65.1988 102.937C65.3875 102.591 65.6392 102.313 65.9537 102.103C66.2683 101.883 66.6248 101.726 67.0232 101.631C67.4322 101.537 67.8673 101.49 68.3287 101.49C68.6956 101.49 69.0574 101.516 69.4139 101.568C69.7809 101.621 70.1112 101.731 70.4048 101.899C70.6984 102.056 70.9343 102.281 71.1125 102.575C71.2908 102.869 71.3799 103.251 71.3799 103.723V107.907C71.3799 108.221 71.3956 108.452 71.4271 108.599C71.469 108.746 71.5949 108.819 71.8046 108.819C71.9199 108.819 72.0562 108.793 72.2135 108.74V109.778ZM70.043 105.61C69.8753 105.736 69.6551 105.831 69.3824 105.894C69.1098 105.946 68.8215 105.993 68.5174 106.035C68.2238 106.067 67.925 106.109 67.6209 106.161C67.3168 106.203 67.0442 106.276 66.803 106.381C66.5619 106.486 66.3626 106.638 66.2054 106.837C66.0586 107.026 65.9852 107.288 65.9852 107.624C65.9852 107.844 66.0271 108.033 66.111 108.19C66.2054 108.337 66.3207 108.457 66.457 108.552C66.6038 108.646 66.7716 108.714 66.9603 108.756C67.1491 108.798 67.3483 108.819 67.558 108.819C67.9984 108.819 68.3758 108.761 68.6904 108.646C69.005 108.52 69.2619 108.368 69.4611 108.19C69.6603 108.001 69.8071 107.802 69.9015 107.592C69.9958 107.372 70.043 107.168 70.043 106.979V105.61ZM73.4577 101.678V109.81H74.7946V105.217C74.7946 104.85 74.8418 104.515 74.9362 104.211C75.041 103.896 75.1931 103.623 75.3923 103.393C75.5915 103.162 75.8379 102.984 76.1315 102.858C76.4356 102.732 76.7921 102.669 77.201 102.669C77.7148 102.669 78.1185 102.816 78.4121 103.11C78.7057 103.403 78.8524 103.802 78.8524 104.305V109.81H80.1893V104.462C80.1893 104.022 80.1421 103.623 80.0478 103.267C79.9639 102.9 79.8119 102.585 79.5917 102.323C79.3715 102.061 79.0831 101.857 78.7266 101.71C78.3701 101.563 77.9245 101.49 77.3897 101.49C76.1839 101.49 75.3031 101.983 74.7474 102.968H74.716V101.678H73.4577ZM87.7178 104.289H89.1019C89.0494 103.807 88.9236 103.393 88.7244 103.047C88.5252 102.69 88.2683 102.397 87.9537 102.166C87.6496 101.935 87.2931 101.768 86.8842 101.663C86.4858 101.547 86.0559 101.49 85.5945 101.49C84.9549 101.49 84.3939 101.605 83.9116 101.836C83.4293 102.056 83.0256 102.365 82.7005 102.764C82.386 103.152 82.1501 103.613 81.9928 104.148C81.8355 104.672 81.7569 105.238 81.7569 105.846C81.7569 106.455 81.8355 107.015 81.9928 107.529C82.1605 108.033 82.4017 108.468 82.7163 108.835C83.0413 109.202 83.4398 109.485 83.9116 109.684C84.3939 109.883 84.9444 109.983 85.563 109.983C86.6011 109.983 87.419 109.71 88.0166 109.165C88.6248 108.62 89.0022 107.844 89.149 106.837H87.7807C87.6968 107.466 87.4661 107.954 87.0887 108.3C86.7217 108.646 86.2079 108.819 85.5473 108.819C85.1279 108.819 84.7662 108.735 84.4621 108.567C84.158 108.4 83.9116 108.179 83.7229 107.907C83.5341 107.624 83.3926 107.304 83.2982 106.947C83.2143 106.591 83.1724 106.224 83.1724 105.846C83.1724 105.437 83.2143 105.044 83.2982 104.667C83.3821 104.279 83.5184 103.938 83.7071 103.644C83.9064 103.351 84.1685 103.115 84.4935 102.937C84.8186 102.758 85.2223 102.669 85.7046 102.669C86.2708 102.669 86.7217 102.811 87.0572 103.094C87.3927 103.377 87.6129 103.776 87.7178 104.289ZM92.0605 100.216V98.58H90.7236V100.216H92.0605ZM90.7236 101.678V109.81H92.0605V101.678H90.7236ZM101.335 109.778C101.104 109.915 100.784 109.983 100.376 109.983C100.03 109.983 99.7517 109.888 99.542 109.7C99.3428 109.501 99.2431 109.181 99.2431 108.74C98.8762 109.181 98.4463 109.501 97.9534 109.7C97.4711 109.888 96.9468 109.983 96.3806 109.983C96.0136 109.983 95.6624 109.941 95.3269 109.857C95.0018 109.773 94.7187 109.642 94.4775 109.464C94.2364 109.286 94.0424 109.055 93.8956 108.772C93.7593 108.478 93.6911 108.127 93.6911 107.718C93.6911 107.257 93.7698 106.879 93.9271 106.586C94.0843 106.292 94.2888 106.056 94.5404 105.878C94.8026 105.689 95.0962 105.548 95.4212 105.453C95.7568 105.359 96.0975 105.28 96.4435 105.217C96.8105 105.144 97.1565 105.091 97.4816 105.06C97.8171 105.018 98.1107 104.966 98.3624 104.903C98.614 104.829 98.8132 104.73 98.96 104.604C99.1068 104.468 99.1802 104.274 99.1802 104.022C99.1802 103.728 99.1226 103.492 99.0072 103.314C98.9024 103.136 98.7608 103 98.5826 102.905C98.4148 102.811 98.2208 102.748 98.0006 102.716C97.7909 102.685 97.5812 102.669 97.3715 102.669C96.8053 102.669 96.3334 102.779 95.956 103C95.5785 103.209 95.374 103.613 95.3426 104.211H94.0057C94.0267 103.707 94.1315 103.283 94.3203 102.937C94.509 102.591 94.7606 102.313 95.0752 102.103C95.3898 101.883 95.7463 101.726 96.1447 101.631C96.5536 101.537 96.9888 101.49 97.4501 101.49C97.8171 101.49 98.1789 101.516 98.5354 101.568C98.9024 101.621 99.2327 101.731 99.5262 101.899C99.8198 102.056 100.056 102.281 100.234 102.575C100.412 102.869 100.501 103.251 100.501 103.723V107.907C100.501 108.221 100.517 108.452 100.549 108.599C100.591 108.746 100.716 108.819 100.926 108.819C101.041 108.819 101.178 108.793 101.335 108.74V109.778ZM99.1645 105.61C98.9967 105.736 98.7765 105.831 98.5039 105.894C98.2313 105.946 97.943 105.993 97.6389 106.035C97.3453 106.067 97.0465 106.109 96.7424 106.161C96.4383 106.203 96.1657 106.276 95.9245 106.381C95.6834 106.486 95.4841 106.638 95.3269 106.837C95.1801 107.026 95.1067 107.288 95.1067 107.624C95.1067 107.844 95.1486 108.033 95.2325 108.19C95.3269 108.337 95.4422 108.457 95.5785 108.552C95.7253 108.646 95.8931 108.714 96.0818 108.756C96.2705 108.798 96.4698 108.819 96.6795 108.819C97.1199 108.819 97.4973 108.761 97.8119 108.646C98.1264 108.52 98.3833 108.368 98.5826 108.19C98.7818 108.001 98.9286 107.802 99.0229 107.592C99.1173 107.372 99.1645 107.168 99.1645 106.979V105.61ZM102.658 98.58V109.81H103.995V98.58H102.658ZM65.5597 124.17L67.4628 118.933H67.4943L69.3659 124.17H65.5597ZM66.6764 117.58L62.304 128.81H63.8296L65.0879 125.428H69.8378L71.0645 128.81H72.716L68.3279 117.58H66.6764ZM75.0192 119.216V117.58H73.6823V119.216H75.0192ZM73.6823 120.678V128.81H75.0192V120.678H73.6823ZM78.0654 124.815C78.0654 124.416 78.1073 124.029 78.1912 123.651C78.2751 123.274 78.4114 122.938 78.6001 122.644C78.7889 122.351 79.0405 122.115 79.3551 121.937C79.6696 121.758 80.0523 121.669 80.5032 121.669C80.9646 121.669 81.3578 121.758 81.6828 121.937C82.0079 122.104 82.27 122.33 82.4692 122.613C82.6789 122.896 82.831 123.226 82.9253 123.604C83.0197 123.971 83.0669 124.354 83.0669 124.752C83.0669 125.129 83.0197 125.502 82.9253 125.869C82.8415 126.236 82.6999 126.566 82.5007 126.86C82.3015 127.143 82.0446 127.373 81.73 127.552C81.4154 127.73 81.0327 127.819 80.5819 127.819C80.152 127.819 79.7745 127.735 79.4494 127.567C79.1349 127.4 78.8727 127.174 78.663 126.891C78.4638 126.608 78.3118 126.288 78.2069 125.932C78.1126 125.565 78.0654 125.192 78.0654 124.815ZM84.3566 128.81V117.58H83.0197V121.764H82.9883C82.8415 121.523 82.658 121.323 82.4378 121.166C82.2281 120.998 82.0026 120.867 81.7615 120.773C81.5203 120.668 81.2791 120.595 81.038 120.553C80.7968 120.511 80.5714 120.49 80.3617 120.49C79.743 120.49 79.1978 120.605 78.7259 120.836C78.2646 121.056 77.8766 121.36 77.5621 121.748C77.258 122.125 77.0273 122.571 76.87 123.085C76.7232 123.599 76.6498 124.144 76.6498 124.721C76.6498 125.297 76.7285 125.842 76.8858 126.356C77.043 126.87 77.2737 127.321 77.5778 127.709C77.8924 128.097 78.2803 128.406 78.7417 128.637C79.2135 128.868 79.764 128.983 80.3931 128.983C80.9593 128.983 81.4784 128.883 81.9502 128.684C82.422 128.485 82.7681 128.16 82.9883 127.709H83.0197V128.81H84.3566Z" fill="#650190"/>
<path d="M107.257 66.7638L98.5095 66.7638Z" fill="white"/>
<path d="M77.7768 63.3622L81.3338 57.3776Z" fill="#650190"/>
<path d="M107.257 67.8976C107.883 67.8976 108.391 67.39 108.391 66.7638C108.391 66.1375 107.883 65.6299 107.257 65.6299L107.257 67.8976ZM98.5095 65.6299C97.8833 65.6299 97.3757 66.1375 97.3757 66.7638C97.3757 67.39 97.8833 67.8976 98.5095 67.8976L98.5095 65.6299ZM102.65 62.6831C102.902 62.1095 102.64 61.4409 102.067 61.1897C101.493 60.9385 100.824 61.1998 100.573 61.7735L102.65 62.6831ZM89.4704 70.1653L89.4704 69.0315L89.4704 69.0315L89.4704 70.1653ZM52.8319 66.7638L51.698 66.7638L52.8319 66.7638ZM56.2335 64.496C56.8597 64.496 57.3673 63.9884 57.3673 63.3622C57.3673 62.736 56.8597 62.2283 56.2335 62.2283L56.2335 64.496ZM44.8948 59.9606L43.761 59.9606L44.8948 59.9606ZM48.2964 56.559L48.2964 57.6929L48.2964 57.6929L48.2964 56.559ZM40.3594 53.1574L39.2255 53.1574L40.3594 53.1574ZM44.8948 46.3542L43.761 46.3542L44.8948 46.3542ZM67.021 42.9526L67.021 44.0865C67.6472 44.0865 68.1549 43.5789 68.1549 42.9526L67.021 42.9526ZM67.021 42.9209L68.1549 42.9209C68.1549 42.6187 68.0342 42.3289 67.8197 42.116C67.6051 41.9031 67.3145 41.7847 67.0122 41.7871L67.021 42.9209ZM63.0366 38.9682L61.9028 38.9682L61.9028 38.9685L63.0366 38.9682ZM66.9893 35.0156L66.9893 33.8817L66.9893 35.0156ZM87.7072 35.0156L87.7072 36.1495L87.7072 36.1495L87.7072 35.0156ZM97.8541 39.2188L97.0523 40.0206L97.0524 40.0206L97.8541 39.2188ZM98.3882 39.7529L99.19 38.9512L99.19 38.9511L98.3882 39.7529ZM101.393 44.0865L100.361 44.5563C100.545 44.9607 100.949 45.2204 101.393 45.2204L101.393 44.0865ZM107.257 45.2204C107.883 45.2204 108.391 44.7127 108.391 44.0865C108.391 43.4603 107.883 42.9526 107.257 42.9526L107.257 45.2204ZM70.9737 50.8897C71.5999 50.8897 72.1075 50.382 72.1075 49.7558C72.1075 49.1296 71.5999 48.622 70.9737 48.622L70.9737 50.8897ZM53.9657 62.2283C53.3395 62.2283 52.8319 62.736 52.8319 63.3622C52.8319 63.9884 53.3395 64.496 53.9657 64.496L53.9657 62.2283ZM72.1075 64.496C72.7337 64.496 73.2414 63.9884 73.2414 63.3622C73.2414 62.736 72.7337 62.2283 72.1075 62.2283L72.1075 64.496ZM69.8398 57.6929C70.466 57.6929 70.9737 57.1852 70.9737 56.559C70.9737 55.9328 70.466 55.4251 69.8398 55.4251L69.8398 57.6929ZM67.5721 41.8188C66.9459 41.8188 66.4382 42.3264 66.4382 42.9526C66.4382 43.5789 66.9459 44.0865 67.5721 44.0865L67.5721 41.8188ZM78.9107 42.9526L79.7125 42.1509C79.4998 41.9382 79.2114 41.8188 78.9107 41.8188L78.9107 42.9526ZM81.7045 45.7465L80.9028 46.5482L80.9028 46.5482L81.7045 45.7465ZM91.3831 50.8897C92.0093 50.8897 92.517 50.3821 92.5171 49.7559C92.5171 49.1297 92.0095 48.622 91.3833 48.622L91.3831 50.8897ZM78.8953 47.6745C78.9982 47.0568 78.5809 46.4726 77.9633 46.3697C77.3456 46.2667 76.7614 46.684 76.6584 47.3017L78.8953 47.6745ZM86.1516 63.1233C86.6459 63.5078 87.3583 63.4187 87.7428 62.9244C88.1272 62.4301 88.0382 61.7177 87.5439 61.3333L86.1516 63.1233ZM76.8021 62.7828C76.4822 63.3212 76.6592 64.0169 77.1975 64.3369C77.7358 64.6568 78.4316 64.4798 78.7515 63.9415L76.8021 62.7828ZM82.3085 57.957C82.6284 57.4186 82.4514 56.7229 81.9131 56.4029C81.3748 56.083 80.679 56.26 80.3591 56.7983L82.3085 57.957ZM107.257 65.6299L98.5095 65.6299L98.5095 67.8976L107.257 67.8976L107.257 65.6299ZM100.573 61.7735C99.6281 63.9314 98.0747 65.7671 96.1028 67.0562L97.3437 68.9543C99.6845 67.4241 101.529 65.2449 102.65 62.6831L100.573 61.7735ZM96.1028 67.0562C94.131 68.3452 91.8262 69.0316 89.4704 69.0315L89.4703 71.2992C92.2669 71.2994 95.0029 70.4845 97.3437 68.9543L96.1028 67.0562ZM89.4704 69.0315L56.2335 69.0315L56.2335 71.2992L89.4704 71.2992L89.4704 69.0315ZM56.2335 69.0315C55.632 69.0315 55.0552 68.7926 54.6299 68.3673L53.0264 69.9708C53.877 70.8214 55.0306 71.2992 56.2335 71.2992L56.2335 69.0315ZM54.6299 68.3673C54.2046 67.942 53.9657 67.3652 53.9657 66.7638L51.698 66.7638C51.698 67.9666 52.1758 69.1202 53.0264 69.9708L54.6299 68.3673ZM53.9657 66.7638C53.9657 66.1623 54.2046 65.5855 54.6299 65.1602L53.0264 63.5567C52.1758 64.4073 51.698 65.5609 51.698 66.7638L53.9657 66.7638ZM54.6299 65.1602C55.0552 64.735 55.632 64.496 56.2335 64.496L56.2335 62.2283C55.0306 62.2283 53.877 62.7061 53.0264 63.5567L54.6299 65.1602ZM56.2335 62.2283L48.2964 62.2283L48.2964 64.496L56.2335 64.496L56.2335 62.2283ZM48.2964 62.2283C47.695 62.2283 47.1182 61.9894 46.6929 61.5641L45.0894 63.1676C45.9399 64.0182 47.0935 64.496 48.2964 64.496L48.2964 62.2283ZM46.6929 61.5641C46.2676 61.1388 46.0287 60.562 46.0287 59.9606L43.761 59.9606C43.761 61.1635 44.2388 62.3171 45.0894 63.1676L46.6929 61.5641ZM46.0287 59.9606C46.0287 59.3591 46.2676 58.7823 46.6929 58.3571L45.0894 56.7535C44.2388 57.6041 43.761 58.7577 43.761 59.9606L46.0287 59.9606ZM46.6929 58.3571C47.1182 57.9318 47.695 57.6929 48.2964 57.6929L48.2964 55.4251C47.0935 55.4251 45.9399 55.903 45.0894 56.7535L46.6929 58.3571ZM48.2964 55.4251L43.761 55.4251L43.761 57.6929L48.2964 57.6929L48.2964 55.4251ZM43.761 55.4251C43.1595 55.4251 42.5827 55.1862 42.1574 54.7609L40.5539 56.3645C41.4045 57.215 42.5581 57.6929 43.761 57.6929L43.761 55.4251ZM42.1574 54.7609C41.7322 54.3356 41.4932 53.7588 41.4932 53.1574L39.2255 53.1574C39.2255 54.3603 39.7034 55.5139 40.5539 56.3645L42.1574 54.7609ZM41.4932 53.1574C41.4932 52.556 41.7322 51.9792 42.1574 51.5539L40.5539 49.9504C39.7034 50.8009 39.2255 51.9545 39.2255 53.1574L41.4932 53.1574ZM42.1574 51.5539C42.5827 51.1286 43.1595 50.8897 43.761 50.8897L43.761 48.622C42.5581 48.622 41.4045 49.0998 40.5539 49.9504L42.1574 51.5539ZM43.761 50.8897L48.2964 50.8897L48.2964 48.622L43.761 48.622L43.761 50.8897ZM48.2964 48.622C47.695 48.622 47.1182 48.383 46.6929 47.9578L45.0894 49.5613C45.9399 50.4118 47.0935 50.8897 48.2964 50.8897L48.2964 48.622ZM46.6929 47.9578C46.2676 47.5325 46.0287 46.9557 46.0287 46.3542L43.761 46.3542C43.761 47.5571 44.2388 48.7107 45.0894 49.5613L46.6929 47.9578ZM46.0287 46.3542C46.0287 45.7528 46.2676 45.176 46.6929 44.7507L45.0894 43.1472C44.2388 43.9977 43.761 45.1514 43.761 46.3542L46.0287 46.3542ZM46.6929 44.7507C47.1182 44.3254 47.695 44.0865 48.2964 44.0865L48.2964 41.8188C47.0935 41.8188 45.9399 42.2966 45.0894 43.1472L46.6929 44.7507ZM48.2964 44.0865L67.021 44.0865L67.021 41.8188L48.2964 41.8188L48.2964 44.0865ZM68.1549 42.9526L68.1549 42.9209L65.8872 42.9209L65.8872 42.9526L68.1549 42.9526ZM67.0122 41.7871C66.6402 41.7899 66.2712 41.7192 65.9266 41.5788L65.0711 43.6789C65.6928 43.9322 66.3585 44.0599 67.0298 44.0547L67.0122 41.7871ZM65.9266 41.5788C65.582 41.4384 65.2686 41.2312 65.0044 40.9692L63.4073 42.5791C63.8839 43.0519 64.4494 43.4257 65.0711 43.6789L65.9266 41.5788ZM65.0044 40.9692C64.7403 40.7071 64.5306 40.3954 64.3874 40.0519L62.2942 40.9242C62.5524 41.5439 62.9307 42.1063 63.4073 42.5791L65.0044 40.9692ZM64.3874 40.0519C64.2443 39.7084 64.1706 39.34 64.1705 38.968L61.9028 38.9685C61.9029 39.6399 62.036 40.3045 62.2942 40.9242L64.3874 40.0519ZM64.1705 38.9682C64.1705 38.2207 64.4675 37.5037 64.9961 36.9751L63.3926 35.3715C62.4387 36.3254 61.9028 37.6192 61.9028 38.9682L64.1705 38.9682ZM64.9961 36.9751C65.5247 36.4464 66.2417 36.1495 66.9893 36.1495L66.9893 33.8817C65.6402 33.8817 64.3465 34.4176 63.3926 35.3715L64.9961 36.9751ZM66.9893 36.1495L87.7072 36.1495L87.7072 33.8817L66.9893 33.8817L66.9893 36.1495ZM87.7072 36.1495C89.4428 36.1494 91.1614 36.4913 92.7648 37.1555L93.6327 35.0604C91.7541 34.2822 89.7406 33.8817 87.7072 33.8817L87.7072 36.1495ZM92.7648 37.1555C94.3683 37.8197 95.8252 38.7933 97.0523 40.0206L98.6559 38.4171C97.2182 36.9792 95.5113 35.8386 93.6327 35.0604L92.7648 37.1555ZM97.0524 40.0206L97.5864 40.5546L99.19 38.9511L98.6559 38.4171L97.0524 40.0206ZM97.5864 40.5546C98.7433 41.7117 99.683 43.0671 100.361 44.5563L102.425 43.6167C101.635 41.8805 100.539 40.3002 99.19 38.9512L97.5864 40.5546ZM101.393 45.2204L107.257 45.2204L107.257 42.9526L101.393 42.9526L101.393 45.2204ZM48.2964 50.8897L70.9737 50.8897L70.9737 48.622L48.2964 48.622L48.2964 50.8897ZM53.9657 64.496L72.1075 64.496L72.1075 62.2283L53.9657 62.2283L53.9657 64.496ZM69.8398 55.4251L48.2964 55.4251L48.2964 57.6929L69.8398 57.6929L69.8398 55.4251ZM67.5721 44.0865L78.9107 44.0865L78.9107 41.8188L67.5721 41.8188L67.5721 44.0865ZM78.1089 43.7544L80.9028 46.5482L82.5063 44.9447L79.7125 42.1509L78.1089 43.7544ZM80.9028 46.5482C83.6824 49.3278 87.4522 50.8894 91.3831 50.8897L91.3833 48.622C88.0537 48.6217 84.8607 47.299 82.5063 44.9447L80.9028 46.5482ZM77.7768 47.4881C76.6584 47.3017 76.6583 47.3026 76.6581 47.3036C76.658 47.3039 76.6579 47.3049 76.6578 47.3056C76.6575 47.307 76.6573 47.3085 76.657 47.3102C76.6565 47.3134 76.6559 47.3171 76.6553 47.3212C76.654 47.3294 76.6526 47.3393 76.651 47.3508C76.6477 47.3739 76.6439 47.4037 76.6398 47.4399C76.6317 47.5124 76.6227 47.6108 76.6159 47.7337C76.6024 47.9796 76.598 48.3236 76.628 48.754C76.6882 49.616 76.8861 50.8204 77.4216 52.2738C78.4959 55.1897 80.9037 59.0416 86.1516 63.1233L87.5439 61.3333C82.587 57.4779 80.4594 53.9597 79.5495 51.4898C79.0928 50.2503 78.9364 49.2579 78.8902 48.5962C78.8671 48.2648 78.8716 48.0153 78.8802 47.8581C78.8845 47.7795 78.8899 47.724 78.8934 47.693C78.8951 47.6774 78.8964 47.668 78.8968 47.6649C78.8971 47.6633 78.8971 47.6633 78.8968 47.6649C78.8967 47.6657 78.8965 47.6669 78.8963 47.6685C78.8961 47.6693 78.896 47.6702 78.8958 47.6712C78.8957 47.6717 78.8956 47.6725 78.8956 47.6728C78.8954 47.6736 78.8953 47.6745 77.7768 47.4881ZM78.7515 63.9415L82.3085 57.957L80.3591 56.7983L76.8021 62.7828L78.7515 63.9415Z" fill="#650190"/>
</svg>
