<svg width="148" height="149" viewBox="0 0 148 149" fill="none" xmlns="http://www.w3.org/2000/svg">
<rect x="0.786403" y="1.56765" width="146.271" height="146.271" fill="white" stroke="#650190" stroke-width="1.57281"/>
<path d="M50.7781 105.301L51.1713 106.7H52.115V100.787H47.1921V102.045H50.7781C50.7991 102.559 50.7309 103.041 50.5736 103.492C50.4164 103.932 50.1804 104.32 49.8659 104.656C49.5618 104.981 49.1843 105.238 48.7335 105.426C48.2826 105.615 47.7636 105.71 47.1764 105.71C46.5473 105.71 45.9915 105.589 45.5092 105.348C45.0374 105.096 44.6389 104.766 44.3139 104.357C43.9888 103.938 43.7424 103.46 43.5747 102.926C43.4069 102.38 43.323 101.814 43.323 101.227C43.323 100.629 43.3964 100.048 43.5432 99.4813C43.69 98.9046 43.9154 98.3961 44.2195 97.9557C44.5341 97.5048 44.9325 97.1431 45.4148 96.8704C45.9076 96.5978 46.4948 96.4615 47.1764 96.4615C47.5958 96.4615 47.989 96.5139 48.356 96.6188C48.7335 96.7132 49.069 96.8599 49.3626 97.0592C49.6562 97.2584 49.9026 97.5153 50.1018 97.8298C50.301 98.1339 50.4373 98.5009 50.5107 98.9308H52.0049C51.9 98.2702 51.7008 97.7093 51.4072 97.2479C51.1241 96.7761 50.7676 96.3881 50.3377 96.084C49.9183 95.78 49.436 95.5598 48.8907 95.4235C48.356 95.2767 47.7845 95.2033 47.1764 95.2033C46.2851 95.2033 45.504 95.371 44.8329 95.7066C44.1723 96.0316 43.6166 96.472 43.1657 97.0277C42.7253 97.5834 42.3898 98.2335 42.1591 98.978C41.9389 99.712 41.8288 100.488 41.8288 101.306C41.8288 102.04 41.9494 102.747 42.1906 103.429C42.4317 104.111 42.783 104.713 43.2444 105.238C43.7057 105.762 44.2667 106.181 44.9273 106.496C45.5878 106.8 46.3375 106.952 47.1764 106.952C47.837 106.952 48.4923 106.826 49.1424 106.575C49.7925 106.313 50.3377 105.888 50.7781 105.301ZM54.0462 98.5691V106.7H55.3831V103.083C55.3831 102.559 55.4355 102.097 55.5404 101.699C55.6452 101.29 55.813 100.944 56.0437 100.661C56.2744 100.378 56.5784 100.163 56.9559 100.016C57.3334 99.8692 57.7895 99.7959 58.3243 99.7959V98.3803C57.6008 98.3594 57.0031 98.5062 56.5313 98.8207C56.0594 99.1353 55.661 99.6228 55.3359 100.283H55.3045V98.5691H54.0462ZM66.5344 106.669C66.3037 106.805 65.9839 106.873 65.575 106.873C65.229 106.873 64.9511 106.779 64.7414 106.59C64.5422 106.391 64.4426 106.071 64.4426 105.631C64.0756 106.071 63.6457 106.391 63.1529 106.59C62.6706 106.779 62.1463 106.873 61.5801 106.873C61.2131 106.873 60.8618 106.832 60.5263 106.748C60.2013 106.664 59.9182 106.533 59.677 106.354C59.4358 106.176 59.2418 105.946 59.0951 105.662C58.9587 105.369 58.8906 105.018 58.8906 104.609C58.8906 104.147 58.9692 103.77 59.1265 103.476C59.2838 103.183 59.4883 102.947 59.7399 102.768C60.002 102.58 60.2956 102.438 60.6207 102.344C60.9562 102.249 61.297 102.171 61.643 102.108C62.01 102.034 62.356 101.982 62.6811 101.951C63.0166 101.909 63.3102 101.856 63.5618 101.793C63.8135 101.72 64.0127 101.62 64.1595 101.494C64.3063 101.358 64.3797 101.164 64.3797 100.913C64.3797 100.619 64.322 100.383 64.2067 100.205C64.1018 100.027 63.9603 99.8902 63.782 99.7959C63.6143 99.7015 63.4203 99.6386 63.2001 99.6071C62.9904 99.5757 62.7807 99.5599 62.571 99.5599C62.0047 99.5599 61.5329 99.67 61.1554 99.8902C60.778 100.1 60.5735 100.504 60.542 101.101H59.2052C59.2261 100.598 59.331 100.173 59.5197 99.8273C59.7084 99.4813 59.9601 99.2034 60.2747 98.9937C60.5892 98.7735 60.9457 98.6162 61.3442 98.5219C61.7531 98.4275 62.1882 98.3803 62.6496 98.3803C63.0166 98.3803 63.3783 98.4065 63.7348 98.459C64.1018 98.5114 64.4321 98.6215 64.7257 98.7893C65.0193 98.9465 65.2552 99.172 65.4335 99.4656C65.6117 99.7592 65.7008 100.142 65.7008 100.614V104.797C65.7008 105.112 65.7166 105.343 65.748 105.489C65.79 105.636 65.9158 105.71 66.1255 105.71C66.2408 105.71 66.3771 105.683 66.5344 105.631V106.669ZM64.364 102.501C64.1962 102.627 63.976 102.721 63.7034 102.784C63.4308 102.837 63.1424 102.884 62.8383 102.926C62.5447 102.957 62.2459 102.999 61.9418 103.052C61.6378 103.094 61.3651 103.167 61.124 103.272C60.8828 103.377 60.6836 103.529 60.5263 103.728C60.3795 103.917 60.3061 104.179 60.3061 104.514C60.3061 104.734 60.3481 104.923 60.4319 105.08C60.5263 105.227 60.6416 105.348 60.778 105.442C60.9248 105.537 61.0925 105.605 61.2813 105.647C61.47 105.689 61.6692 105.71 61.8789 105.71C62.3193 105.71 62.6968 105.652 63.0113 105.537C63.3259 105.411 63.5828 105.259 63.782 105.08C63.9812 104.892 64.128 104.693 64.2224 104.483C64.3168 104.263 64.364 104.058 64.364 103.869V102.501ZM68.7538 102.706C68.7538 102.307 68.7957 101.919 68.8796 101.542C68.9635 101.164 69.0998 100.829 69.2886 100.535C69.4773 100.241 69.7289 100.006 70.0435 99.8273C70.3581 99.6491 70.7408 99.5599 71.1916 99.5599C71.653 99.5599 72.0462 99.6491 72.3713 99.8273C72.6963 99.9951 72.9584 100.221 73.1577 100.504C73.3674 100.787 73.5194 101.117 73.6138 101.494C73.7081 101.861 73.7553 102.244 73.7553 102.643C73.7553 103.02 73.7081 103.392 73.6138 103.759C73.5299 104.126 73.3883 104.457 73.1891 104.75C72.9899 105.033 72.733 105.264 72.4184 105.442C72.1039 105.62 71.7212 105.71 71.2703 105.71C70.8404 105.71 70.4629 105.626 70.1379 105.458C69.8233 105.29 69.5612 105.065 69.3515 104.782C69.1522 104.499 69.0002 104.179 68.8954 103.822C68.801 103.455 68.7538 103.083 68.7538 102.706ZM75.045 106.7V95.4706H73.7081V99.6543H73.6767C73.5299 99.4131 73.3464 99.2139 73.1262 99.0566C72.9165 98.8889 72.6911 98.7578 72.4499 98.6634C72.2087 98.5586 71.9676 98.4852 71.7264 98.4432C71.4852 98.4013 71.2598 98.3803 71.0501 98.3803C70.4315 98.3803 69.8862 98.4957 69.4144 98.7263C68.953 98.9465 68.5651 99.2506 68.2505 99.6386C67.9464 100.016 67.7157 100.462 67.5585 100.975C67.4117 101.489 67.3383 102.034 67.3383 102.611C67.3383 103.188 67.4169 103.733 67.5742 104.247C67.7315 104.761 67.9622 105.212 68.2662 105.6C68.5808 105.987 68.9687 106.297 69.4301 106.527C69.9019 106.758 70.4524 106.873 71.0816 106.873C71.6478 106.873 72.1668 106.774 72.6386 106.575C73.1105 106.375 73.4565 106.05 73.6767 105.6H73.7081V106.7H75.045ZM83.8334 106.7V98.5691H82.4966V103.162C82.4966 103.529 82.4441 103.869 82.3393 104.184C82.2449 104.488 82.0981 104.755 81.8989 104.986C81.6997 105.217 81.448 105.395 81.1439 105.521C80.8504 105.647 80.4991 105.71 80.0902 105.71C79.5764 105.71 79.1727 105.563 78.8791 105.269C78.5855 104.976 78.4387 104.577 78.4387 104.074V98.5691H77.1018V103.917C77.1018 104.357 77.1438 104.761 77.2277 105.128C77.322 105.484 77.4793 105.793 77.6995 106.056C77.9197 106.318 78.208 106.522 78.5645 106.669C78.921 106.805 79.3667 106.873 79.9014 106.873C80.4991 106.873 81.0181 106.758 81.4585 106.527C81.8989 106.286 82.2606 105.914 82.5437 105.411H82.5752V106.7H83.8334ZM93.0448 106.669C92.8141 106.805 92.4943 106.873 92.0854 106.873C91.7394 106.873 91.4615 106.779 91.2518 106.59C91.0526 106.391 90.953 106.071 90.953 105.631C90.586 106.071 90.1561 106.391 89.6633 106.59C89.1809 106.779 88.6567 106.873 88.0905 106.873C87.7235 106.873 87.3722 106.832 87.0367 106.748C86.7116 106.664 86.4285 106.533 86.1874 106.354C85.9462 106.176 85.7522 105.946 85.6054 105.662C85.4691 105.369 85.401 105.018 85.401 104.609C85.401 104.147 85.4796 103.77 85.6369 103.476C85.7942 103.183 85.9986 102.947 86.2503 102.768C86.5124 102.58 86.806 102.438 87.1311 102.344C87.4666 102.249 87.8074 102.171 88.1534 102.108C88.5204 102.034 88.8664 101.982 89.1914 101.951C89.527 101.909 89.8206 101.856 90.0722 101.793C90.3239 101.72 90.5231 101.62 90.6699 101.494C90.8167 101.358 90.8901 101.164 90.8901 100.913C90.8901 100.619 90.8324 100.383 90.7171 100.205C90.6122 100.027 90.4706 99.8902 90.2924 99.7959C90.1246 99.7015 89.9307 99.6386 89.7105 99.6071C89.5008 99.5757 89.291 99.5599 89.0813 99.5599C88.5151 99.5599 88.0433 99.67 87.6658 99.8902C87.2883 100.1 87.0839 100.504 87.0524 101.101H85.7155C85.7365 100.598 85.8414 100.173 86.0301 99.8273C86.2188 99.4813 86.4705 99.2034 86.785 98.9937C87.0996 98.7735 87.4561 98.6162 87.8545 98.5219C88.2635 98.4275 88.6986 98.3803 89.16 98.3803C89.527 98.3803 89.8887 98.4065 90.2452 98.459C90.6122 98.5114 90.9425 98.6215 91.2361 98.7893C91.5297 98.9465 91.7656 99.172 91.9438 99.4656C92.1221 99.7592 92.2112 100.142 92.2112 100.614V104.797C92.2112 105.112 92.2269 105.343 92.2584 105.489C92.3003 105.636 92.4262 105.71 92.6359 105.71C92.7512 105.71 92.8875 105.683 93.0448 105.631V106.669ZM90.8743 102.501C90.7066 102.627 90.4864 102.721 90.2138 102.784C89.9411 102.837 89.6528 102.884 89.3487 102.926C89.0551 102.957 88.7563 102.999 88.4522 103.052C88.1481 103.094 87.8755 103.167 87.6344 103.272C87.3932 103.377 87.194 103.529 87.0367 103.728C86.8899 103.917 86.8165 104.179 86.8165 104.514C86.8165 104.734 86.8584 104.923 86.9423 105.08C87.0367 105.227 87.152 105.348 87.2883 105.442C87.4351 105.537 87.6029 105.605 87.7916 105.647C87.9804 105.689 88.1796 105.71 88.3893 105.71C88.8297 105.71 89.2072 105.652 89.5217 105.537C89.8363 105.411 90.0932 105.259 90.2924 105.08C90.4916 104.892 90.6384 104.693 90.7328 104.483C90.8271 104.263 90.8743 104.058 90.8743 103.869V102.501ZM96.145 98.5691V96.1312H94.8081V98.5691H93.424V99.7487H94.8081V104.923C94.8081 105.301 94.8448 105.605 94.9182 105.835C94.9916 106.066 95.1017 106.244 95.2485 106.37C95.4057 106.496 95.605 106.585 95.8461 106.638C96.0978 106.679 96.3966 106.7 96.7426 106.7H97.7649V105.521H97.1516C96.9418 105.521 96.7688 105.516 96.6325 105.505C96.5067 105.484 96.4071 105.447 96.3337 105.395C96.2603 105.343 96.2079 105.269 96.1764 105.175C96.1554 105.08 96.145 104.955 96.145 104.797V99.7487H97.7649V98.5691H96.145ZM104.897 101.856H100.225C100.246 101.542 100.314 101.248 100.43 100.975C100.545 100.692 100.702 100.446 100.902 100.236C101.101 100.027 101.337 99.864 101.609 99.7487C101.892 99.6228 102.207 99.5599 102.553 99.5599C102.889 99.5599 103.193 99.6228 103.465 99.7487C103.748 99.864 103.99 100.027 104.189 100.236C104.398 100.435 104.561 100.677 104.676 100.96C104.802 101.243 104.876 101.542 104.897 101.856ZM106.186 104.121H104.865C104.75 104.656 104.509 105.054 104.142 105.316C103.785 105.579 103.324 105.71 102.757 105.71C102.317 105.71 101.934 105.636 101.609 105.489C101.284 105.343 101.017 105.149 100.807 104.907C100.598 104.656 100.445 104.373 100.351 104.058C100.257 103.733 100.215 103.392 100.225 103.036H106.312C106.333 102.543 106.286 102.024 106.17 101.479C106.066 100.934 105.866 100.43 105.573 99.9689C105.29 99.5075 104.907 99.13 104.425 98.8364C103.953 98.5324 103.355 98.3803 102.632 98.3803C102.076 98.3803 101.562 98.4852 101.09 98.6949C100.629 98.9046 100.225 99.1982 99.8793 99.5757C99.5437 99.9531 99.2816 100.399 99.0929 100.913C98.9041 101.426 98.8098 101.993 98.8098 102.611C98.8307 103.23 98.9199 103.801 99.0771 104.326C99.2449 104.85 99.4913 105.301 99.8164 105.678C100.141 106.056 100.54 106.349 101.012 106.559C101.494 106.769 102.06 106.873 102.71 106.873C103.633 106.873 104.398 106.643 105.007 106.181C105.615 105.72 106.008 105.033 106.186 104.121ZM36.4498 121.061L38.3529 115.823H38.3844L40.256 121.061H36.4498ZM37.5665 114.471L33.1941 125.7H34.7198L35.978 122.319H40.7279L41.9547 125.7H43.6061L39.218 114.471H37.5665ZM45.4689 121.706C45.4689 121.307 45.5108 120.919 45.5947 120.542C45.6786 120.164 45.8149 119.829 46.0037 119.535C46.1924 119.241 46.444 119.006 46.7586 118.827C47.0732 118.649 47.4559 118.56 47.9068 118.56C48.3681 118.56 48.7613 118.649 49.0864 118.827C49.4114 118.995 49.6735 119.221 49.8728 119.504C50.0825 119.787 50.2345 120.117 50.3289 120.494C50.4232 120.861 50.4704 121.244 50.4704 121.643C50.4704 122.02 50.4232 122.392 50.3289 122.759C50.245 123.126 50.1034 123.457 49.9042 123.75C49.705 124.033 49.4481 124.264 49.1335 124.442C48.819 124.62 48.4363 124.71 47.9854 124.71C47.5555 124.71 47.178 124.626 46.853 124.458C46.5384 124.29 46.2763 124.065 46.0666 123.782C45.8673 123.499 45.7153 123.179 45.6105 122.822C45.5161 122.455 45.4689 122.083 45.4689 121.706ZM51.7601 125.7V114.471H50.4232V118.654H50.3918C50.245 118.413 50.0615 118.214 49.8413 118.057C49.6316 117.889 49.4062 117.758 49.165 117.663C48.9238 117.559 48.6827 117.485 48.4415 117.443C48.2003 117.401 47.9749 117.38 47.7652 117.38C47.1466 117.38 46.6013 117.496 46.1295 117.726C45.6681 117.947 45.2802 118.251 44.9656 118.639C44.6615 119.016 44.4308 119.462 44.2736 119.975C44.1268 120.489 44.0534 121.034 44.0534 121.611C44.0534 122.188 44.132 122.733 44.2893 123.247C44.4466 123.761 44.6773 124.212 44.9813 124.6C45.2959 124.987 45.6839 125.297 46.1452 125.527C46.617 125.758 47.1675 125.873 47.7967 125.873C48.3629 125.873 48.8819 125.774 49.3537 125.575C49.8256 125.375 50.1716 125.05 50.3918 124.6H50.4232V125.7H51.7601ZM53.8169 117.569V125.7H55.1538V120.636C55.1538 120.479 55.1905 120.285 55.2639 120.054C55.3478 119.813 55.4736 119.582 55.6414 119.362C55.8196 119.142 56.0451 118.953 56.3177 118.796C56.6008 118.639 56.9363 118.56 57.3243 118.56C57.6284 118.56 57.8748 118.607 58.0635 118.701C58.2627 118.785 58.42 118.911 58.5354 119.079C58.6507 119.236 58.7293 119.425 58.7713 119.645C58.8237 119.865 58.8499 120.107 58.8499 120.369V125.7H60.1868V120.636C60.1868 120.007 60.3755 119.504 60.753 119.126C61.1305 118.749 61.6495 118.56 62.3101 118.56C62.6351 118.56 62.8973 118.607 63.0965 118.701C63.3062 118.796 63.4687 118.927 63.5841 119.095C63.6994 119.252 63.778 119.441 63.82 119.661C63.8619 119.881 63.8829 120.117 63.8829 120.369V125.7H65.2198V119.74C65.2198 119.32 65.1516 118.964 65.0153 118.67C64.8895 118.366 64.706 118.12 64.4648 117.931C64.2342 117.742 63.9511 117.606 63.6155 117.522C63.2905 117.428 62.9235 117.38 62.5146 117.38C61.9798 117.38 61.487 117.501 61.0361 117.742C60.5957 117.983 60.2392 118.324 59.9666 118.764C59.7988 118.261 59.5105 117.905 59.1016 117.695C58.6926 117.485 58.2365 117.38 57.7332 117.38C56.5903 117.38 55.7148 117.842 55.1066 118.764H55.0752V117.569H53.8169ZM68.6412 116.106V114.471H67.3044V116.106H68.6412ZM67.3044 117.569V125.7H68.6412V117.569H67.3044ZM71.5302 123.137H70.1933C70.2143 123.64 70.3191 124.07 70.5079 124.426C70.6966 124.773 70.9482 125.056 71.2628 125.276C71.5774 125.486 71.9391 125.638 72.348 125.732C72.757 125.826 73.1869 125.873 73.6377 125.873C74.0467 125.873 74.4556 125.832 74.8645 125.748C75.2839 125.674 75.6562 125.538 75.9812 125.339C76.3167 125.14 76.5841 124.877 76.7833 124.552C76.9931 124.227 77.0979 123.818 77.0979 123.326C77.0979 122.938 77.0193 122.613 76.862 122.35C76.7152 122.088 76.516 121.873 76.2643 121.706C76.0232 121.527 75.7401 121.386 75.415 121.281C75.1004 121.176 74.7754 121.087 74.4399 121.014C74.1253 120.94 73.8107 120.872 73.4962 120.809C73.1816 120.736 72.8985 120.652 72.6469 120.557C72.3952 120.453 72.1855 120.327 72.0177 120.18C71.8605 120.023 71.7818 119.829 71.7818 119.598C71.7818 119.388 71.8342 119.221 71.9391 119.095C72.044 118.958 72.1803 118.854 72.348 118.78C72.5158 118.696 72.6993 118.639 72.8985 118.607C73.1082 118.576 73.3127 118.56 73.5119 118.56C73.7321 118.56 73.9471 118.586 74.1568 118.639C74.377 118.681 74.5762 118.754 74.7544 118.859C74.9327 118.964 75.0795 119.105 75.1948 119.283C75.3102 119.451 75.3783 119.666 75.3993 119.928H76.7362C76.7047 119.435 76.5999 119.027 76.4216 118.701C76.2433 118.366 76.0022 118.104 75.6981 117.915C75.4045 117.716 75.0637 117.58 74.6758 117.506C74.2878 117.422 73.8632 117.38 73.4018 117.38C73.0453 117.38 72.6836 117.428 72.3166 117.522C71.9601 117.606 71.635 117.742 71.3414 117.931C71.0583 118.109 70.8224 118.345 70.6337 118.639C70.4554 118.932 70.3663 119.283 70.3663 119.692C70.3663 120.217 70.4974 120.626 70.7595 120.919C71.0216 121.213 71.3467 121.443 71.7346 121.611C72.1331 121.768 72.563 121.894 73.0243 121.989C73.4857 122.073 73.9104 122.172 74.2983 122.287C74.6968 122.392 75.027 122.534 75.2892 122.712C75.5513 122.89 75.6824 123.153 75.6824 123.499C75.6824 123.75 75.6195 123.96 75.4936 124.128C75.3678 124.285 75.2053 124.406 75.0061 124.489C74.8173 124.573 74.6076 124.631 74.377 124.662C74.1463 124.694 73.9261 124.71 73.7164 124.71C73.4438 124.71 73.1764 124.683 72.9142 124.631C72.6626 124.579 72.4319 124.495 72.2222 124.379C72.023 124.253 71.8605 124.091 71.7346 123.892C71.6088 123.682 71.5407 123.43 71.5302 123.137ZM79.3942 123.137H78.0573C78.0783 123.64 78.1831 124.07 78.3719 124.426C78.5606 124.773 78.8123 125.056 79.1268 125.276C79.4414 125.486 79.8031 125.638 80.2121 125.732C80.621 125.826 81.0509 125.873 81.5018 125.873C81.9107 125.873 82.3196 125.832 82.7286 125.748C83.148 125.674 83.5202 125.538 83.8452 125.339C84.1808 125.14 84.4482 124.877 84.6474 124.552C84.8571 124.227 84.9619 123.818 84.9619 123.326C84.9619 122.938 84.8833 122.613 84.726 122.35C84.5792 122.088 84.38 121.873 84.1283 121.706C83.8872 121.527 83.6041 121.386 83.279 121.281C82.9645 121.176 82.6394 121.087 82.3039 121.014C81.9893 120.94 81.6748 120.872 81.3602 120.809C81.0456 120.736 80.7625 120.652 80.5109 120.557C80.2592 120.453 80.0495 120.327 79.8818 120.18C79.7245 120.023 79.6459 119.829 79.6459 119.598C79.6459 119.388 79.6983 119.221 79.8031 119.095C79.908 118.958 80.0443 118.854 80.2121 118.78C80.3798 118.696 80.5633 118.639 80.7625 118.607C80.9723 118.576 81.1767 118.56 81.3759 118.56C81.5961 118.56 81.8111 118.586 82.0208 118.639C82.241 118.681 82.4402 118.754 82.6185 118.859C82.7967 118.964 82.9435 119.105 83.0588 119.283C83.1742 119.451 83.2423 119.666 83.2633 119.928H84.6002C84.5687 119.435 84.4639 119.027 84.2856 118.701C84.1074 118.366 83.8662 118.104 83.5621 117.915C83.2685 117.716 82.9278 117.58 82.5398 117.506C82.1519 117.422 81.7272 117.38 81.2658 117.38C80.9093 117.38 80.5476 117.428 80.1806 117.522C79.8241 117.606 79.4991 117.742 79.2055 117.931C78.9224 118.109 78.6864 118.345 78.4977 118.639C78.3195 118.932 78.2303 119.283 78.2303 119.692C78.2303 120.217 78.3614 120.626 78.6235 120.919C78.8857 121.213 79.2107 121.443 79.5987 121.611C79.9971 121.768 80.427 121.894 80.8884 121.989C81.3497 122.073 81.7744 122.172 82.1623 122.287C82.5608 122.392 82.8911 122.534 83.1532 122.712C83.4153 122.89 83.5464 123.153 83.5464 123.499C83.5464 123.75 83.4835 123.96 83.3577 124.128C83.2318 124.285 83.0693 124.406 82.8701 124.489C82.6814 124.573 82.4717 124.631 82.241 124.662C82.0103 124.694 81.7901 124.71 81.5804 124.71C81.3078 124.71 81.0404 124.683 80.7783 124.631C80.5266 124.579 80.2959 124.495 80.0862 124.379C79.887 124.253 79.7245 124.091 79.5987 123.892C79.4728 123.682 79.4047 123.43 79.3942 123.137ZM87.8559 116.106V114.471H86.519V116.106H87.8559ZM86.519 117.569V125.7H87.8559V117.569H86.519ZM90.9021 121.643C90.9021 121.15 90.965 120.715 91.0908 120.337C91.2271 119.949 91.4106 119.624 91.6413 119.362C91.872 119.1 92.1394 118.901 92.4434 118.764C92.758 118.628 93.0883 118.56 93.4343 118.56C93.7803 118.56 94.1054 118.628 94.4095 118.764C94.724 118.901 94.9966 119.1 95.2273 119.362C95.458 119.624 95.6362 119.949 95.7621 120.337C95.8984 120.715 95.9665 121.15 95.9665 121.643C95.9665 122.135 95.8984 122.576 95.7621 122.964C95.6362 123.341 95.458 123.661 95.2273 123.923C94.9966 124.175 94.724 124.369 94.4095 124.505C94.1054 124.641 93.7803 124.71 93.4343 124.71C93.0883 124.71 92.758 124.641 92.4434 124.505C92.1394 124.369 91.872 124.175 91.6413 123.923C91.4106 123.661 91.2271 123.341 91.0908 122.964C90.965 122.576 90.9021 122.135 90.9021 121.643ZM89.4866 121.643C89.4866 122.24 89.5705 122.796 89.7382 123.31C89.906 123.824 90.1576 124.274 90.4932 124.662C90.8287 125.04 91.2429 125.339 91.7357 125.559C92.2285 125.769 92.7947 125.873 93.4343 125.873C94.0844 125.873 94.6506 125.769 95.1329 125.559C95.6258 125.339 96.0399 125.04 96.3755 124.662C96.711 124.274 96.9626 123.824 97.1304 123.31C97.2982 122.796 97.3821 122.24 97.3821 121.643C97.3821 121.045 97.2982 120.489 97.1304 119.975C96.9626 119.451 96.711 119 96.3755 118.623C96.0399 118.235 95.6258 117.931 95.1329 117.711C94.6506 117.49 94.0844 117.38 93.4343 117.38C92.7947 117.38 92.2285 117.49 91.7357 117.711C91.2429 117.931 90.8287 118.235 90.4932 118.623C90.1576 119 89.906 119.451 89.7382 119.975C89.5705 120.489 89.4866 121.045 89.4866 121.643ZM98.9583 117.569V125.7H100.295V121.108C100.295 120.741 100.342 120.405 100.437 120.101C100.542 119.787 100.694 119.514 100.893 119.283C101.092 119.053 101.338 118.874 101.632 118.749C101.936 118.623 102.293 118.56 102.702 118.56C103.215 118.56 103.619 118.707 103.913 119C104.206 119.294 104.353 119.692 104.353 120.196V125.7H105.69V120.353C105.69 119.913 105.643 119.514 105.548 119.158C105.464 118.791 105.312 118.476 105.092 118.214C104.872 117.952 104.584 117.747 104.227 117.601C103.871 117.454 103.425 117.38 102.89 117.38C101.685 117.38 100.804 117.873 100.248 118.859H100.217V117.569H98.9583ZM108.516 123.137H107.179C107.2 123.64 107.305 124.07 107.493 124.426C107.682 124.773 107.934 125.056 108.248 125.276C108.563 125.486 108.925 125.638 109.334 125.732C109.742 125.826 110.172 125.873 110.623 125.873C111.032 125.873 111.441 125.832 111.85 125.748C112.269 125.674 112.642 125.538 112.967 125.339C113.302 125.14 113.57 124.877 113.769 124.552C113.979 124.227 114.083 123.818 114.083 123.326C114.083 122.938 114.005 122.613 113.848 122.35C113.701 122.088 113.501 121.873 113.25 121.706C113.009 121.527 112.726 121.386 112.401 121.281C112.086 121.176 111.761 121.087 111.425 121.014C111.111 120.94 110.796 120.872 110.482 120.809C110.167 120.736 109.884 120.652 109.632 120.557C109.381 120.453 109.171 120.327 109.003 120.18C108.846 120.023 108.767 119.829 108.767 119.598C108.767 119.388 108.82 119.221 108.925 119.095C109.029 118.958 109.166 118.854 109.334 118.78C109.501 118.696 109.685 118.639 109.884 118.607C110.094 118.576 110.298 118.56 110.497 118.56C110.718 118.56 110.933 118.586 111.142 118.639C111.362 118.681 111.562 118.754 111.74 118.859C111.918 118.964 112.065 119.105 112.18 119.283C112.296 119.451 112.364 119.666 112.385 119.928H113.722C113.69 119.435 113.585 119.027 113.407 118.701C113.229 118.366 112.988 118.104 112.684 117.915C112.39 117.716 112.049 117.58 111.661 117.506C111.273 117.422 110.849 117.38 110.387 117.38C110.031 117.38 109.669 117.428 109.302 117.522C108.946 117.606 108.621 117.742 108.327 117.931C108.044 118.109 107.808 118.345 107.619 118.639C107.441 118.932 107.352 119.283 107.352 119.692C107.352 120.217 107.483 120.626 107.745 120.919C108.007 121.213 108.332 121.443 108.72 121.611C109.119 121.768 109.549 121.894 110.01 121.989C110.471 122.073 110.896 122.172 111.284 122.287C111.682 122.392 112.013 122.534 112.275 122.712C112.537 122.89 112.668 123.153 112.668 123.499C112.668 123.75 112.605 123.96 112.479 124.128C112.353 124.285 112.191 124.406 111.992 124.489C111.803 124.573 111.593 124.631 111.362 124.662C111.132 124.694 110.912 124.71 110.702 124.71C110.429 124.71 110.162 124.683 109.9 124.631C109.648 124.579 109.417 124.495 109.208 124.379C109.009 124.253 108.846 124.091 108.72 123.892C108.594 123.682 108.526 123.43 108.516 123.137Z" fill="#650190"/>
<path d="M96.382 29.3125H49.9036C46.7082 29.3125 44.1228 31.9269 44.1228 35.1223L44.0938 69.9812C44.0938 73.1765 46.7082 75.791 49.9036 75.791H96.382C99.5774 75.791 102.192 73.1765 102.192 69.9812V35.1223C102.192 31.9269 99.5774 29.3125 96.382 29.3125ZM96.382 69.9812H49.9036V40.9321L73.1428 55.4566L96.382 40.9321V69.9812ZM73.1428 49.6468L49.9036 35.1223H96.382L73.1428 49.6468Z" fill="#650190"/>
</svg>
